<ttFont>
    <TTGlyph name=".notdef" xMin="56" yMin="250" xMax="146" yMax="360">
      <contour>
        <pt x="56" y="250" on="1"/>
        <pt x="56" y="360" on="1"/>
        <pt x="146" y="360" on="1"/>
        <pt x="146" y="250" on="1"/>
      </contour>
    </TTGlyph>
    <TTGlyph name="A" xMin="7" yMin="0" xMax="531" yMax="700">
      <contour>
        <pt x="433" y="0" on="1"/>
        <pt x="378" y="189" on="1"/>
        <pt x="160" y="189" on="1"/>
        <pt x="105" y="0" on="1"/>
        <pt x="7" y="0" on="1"/>
        <pt x="222" y="700" on="1"/>
        <pt x="316" y="700" on="1"/>
        <pt x="531" y="0" on="1"/>
      </contour>
      <contour>
        <pt x="269" y="567" on="1"/>
        <pt x="191" y="275" on="1"/>
        <pt x="347" y="275" on="1"/>
      </contour>
    </TTGlyph>
    <TTGlyph name="A.sc" xMin="29" yMin="0" xMax="486" yMax="560">
      <contour>
        <pt x="392" y="0" on="1"/>
        <pt x="346" y="141" on="1"/>
        <pt x="169" y="141" on="1"/>
        <pt x="124" y="0" on="1"/>
        <pt x="29" y="0" on="1"/>
        <pt x="214" y="560" on="1"/>
        <pt x="302" y="560" on="1"/>
        <pt x="486" y="0" on="1"/>
      </contour>
      <contour>
        <pt x="257" y="418" on="1"/>
        <pt x="200" y="229" on="1"/>
        <pt x="315" y="229" on="1"/>
      </contour>
    </TTGlyph>
    <TTGlyph name="AE" xMin="-5" yMin="0" xMax="716" yMax="700">
      <contour>
        <pt x="341" y="0" on="1"/>
        <pt x="341" y="180" on="1"/>
        <pt x="165" y="180" on="1"/>
        <pt x="89" y="0" on="1"/>
        <pt x="-5" y="0" on="1"/>
        <pt x="289" y="700" on="1"/>
        <pt x="708" y="700" on="1"/>
        <pt x="708" y="613" on="1"/>
        <pt x="446" y="613" on="1"/>
        <pt x="446" y="409" on="1"/>
        <pt x="648" y="409" on="1"/>
        <pt x="648" y="323" on="1"/>
        <pt x="446" y="323" on="1"/>
        <pt x="446" y="86" on="1"/>
        <pt x="716" y="86" on="1"/>
        <pt x="716" y="0" on="1"/>
      </contour>
      <contour>
        <pt x="341" y="611" on="1"/>
        <pt x="207" y="272" on="1"/>
        <pt x="341" y="272" on="1"/>
      </contour>
    </TTGlyph>
    <TTGlyph name="AE.sc" xMin="19" yMin="0" xMax="644" yMax="560">
      <contour>
        <pt x="321" y="0" on="1"/>
        <pt x="321" y="138" on="1"/>
        <pt x="174" y="138" on="1"/>
        <pt x="113" y="0" on="1"/>
        <pt x="19" y="0" on="1"/>
        <pt x="272" y="560" on="1"/>
        <pt x="637" y="560" on="1"/>
        <pt x="637" y="471" on="1"/>
        <pt x="416" y="471" on="1"/>
        <pt x="416" y="336" on="1"/>
        <pt x="586" y="336" on="1"/>
        <pt x="586" y="248" on="1"/>
        <pt x="416" y="248" on="1"/>
        <pt x="416" y="88" on="1"/>
        <pt x="644" y="88" on="1"/>
        <pt x="644" y="0" on="1"/>
      </contour>
      <contour>
        <pt x="321" y="469" on="1"/>
        <pt x="216" y="228" on="1"/>
        <pt x="321" y="228" on="1"/>
      </contour>
    </TTGlyph>
    <TTGlyph name="Aacute" xMin="7" yMin="0" xMax="531" yMax="942">
      <component glyphName="A" x="0" y="0" flags="0x204"/>
      <component glyphName="acute" x="139" y="210" flags="0x4"/>
    </TTGlyph>
    <TTGlyph name="Acircumflex" xMin="7" yMin="0" xMax="531" yMax="955">
      <component glyphName="A" x="0" y="0" flags="0x204"/>
      <component glyphName="circumflex" x="78" y="210" flags="0x4"/>
    </TTGlyph>
    <TTGlyph name="Adieresis" xMin="7" yMin="0" xMax="531" yMax="910">
      <component glyphName="A" x="0" y="0" flags="0x204"/>
      <component glyphName="dieresis" x="88" y="210" flags="0x4"/>
    </TTGlyph>
    <TTGlyph name="Agrave" xMin="7" yMin="0" xMax="531" yMax="942">
      <component glyphName="A" x="0" y="0" flags="0x204"/>
      <component glyphName="grave" x="139" y="210" flags="0x4"/>
    </TTGlyph>
    <TTGlyph name="Aring" xMin="7" yMin="0" xMax="531" yMax="965">
      <component glyphName="A" x="0" y="0" flags="0x204"/>
      <component glyphName="ring" x="144" y="210" flags="0x4"/>
    </TTGlyph>
    <TTGlyph name="Atilde" xMin="7" yMin="0" xMax="531" yMax="912">
      <component glyphName="A" x="0" y="0" flags="0x204"/>
      <component glyphName="tilde" x="42" y="210" flags="0x4"/>
    </TTGlyph>
    <TTGlyph name="B" xMin="52" yMin="0" xMax="480" yMax="700">
      <contour>
        <pt x="52" y="0" on="1"/>
        <pt x="52" y="700" on="1"/>
        <pt x="199" y="700" on="1"/>
        <pt x="251" y="700" on="0"/>
        <pt x="336" y="688" on="0"/>
        <pt x="396" y="650" on="0"/>
        <pt x="428" y="582" on="0"/>
        <pt x="428" y="527" on="1"/>
        <pt x="428" y="483" on="0"/>
        <pt x="409" y="415" on="0"/>
        <pt x="378" y="373" on="1"/>
        <pt x="434" y="347" on="0"/>
        <pt x="480" y="265" on="0"/>
        <pt x="480" y="208" on="1"/>
        <pt x="480" y="141" on="0"/>
        <pt x="442" y="59" on="0"/>
        <pt x="382" y="15" on="0"/>
        <pt x="306" y="0" on="0"/>
        <pt x="269" y="0" on="1"/>
      </contour>
      <contour>
        <pt x="146" y="615" on="1"/>
        <pt x="146" y="409" on="1"/>
        <pt x="250" y="409" on="1"/>
        <pt x="265" y="409" on="0"/>
        <pt x="296" y="414" on="0"/>
        <pt x="321" y="436" on="0"/>
        <pt x="336" y="481" on="0"/>
        <pt x="336" y="520" on="1"/>
        <pt x="336" y="553" on="0"/>
        <pt x="320" y="591" on="0"/>
        <pt x="292" y="610" on="0"/>
        <pt x="253" y="615" on="0"/>
        <pt x="231" y="615" on="1"/>
      </contour>
      <contour>
        <pt x="146" y="323" on="1"/>
        <pt x="146" y="86" on="1"/>
        <pt x="240" y="86" on="1"/>
        <pt x="273" y="86" on="0"/>
        <pt x="325" y="93" on="0"/>
        <pt x="363" y="116" on="0"/>
        <pt x="383" y="161" on="0"/>
        <pt x="383" y="199" on="1"/>
        <pt x="383" y="237" on="0"/>
        <pt x="364" y="286" on="0"/>
        <pt x="333" y="313" on="0"/>
        <pt x="291" y="323" on="0"/>
        <pt x="267" y="323" on="1"/>
      </contour>
    </TTGlyph>
    <TTGlyph name="B.sc" xMin="67" yMin="0" xMax="448" yMax="560">
      <contour>
        <pt x="67" y="0" on="1"/>
        <pt x="67" y="560" on="1"/>
        <pt x="203" y="560" on="1"/>
        <pt x="248" y="560" on="0"/>
        <pt x="321" y="550" on="0"/>
        <pt x="374" y="520" on="0"/>
        <pt x="402" y="464" on="0"/>
        <pt x="402" y="418" on="1"/>
        <pt x="402" y="381" on="0"/>
        <pt x="382" y="324" on="0"/>
        <pt x="358" y="299" on="1"/>
        <pt x="404" y="279" on="0"/>
        <pt x="448" y="216" on="0"/>
        <pt x="448" y="165" on="1"/>
        <pt x="448" y="115" on="0"/>
        <pt x="415" y="51" on="0"/>
        <pt x="362" y="14" on="0"/>
        <pt x="296" y="0" on="0"/>
        <pt x="264" y="0" on="1"/>
      </contour>
      <contour>
        <pt x="158" y="480" on="1"/>
        <pt x="158" y="332" on="1"/>
        <pt x="250" y="332" on="1"/>
        <pt x="261" y="332" on="0"/>
        <pt x="284" y="337" on="0"/>
        <pt x="304" y="353" on="0"/>
        <pt x="316" y="382" on="0"/>
        <pt x="316" y="406" on="1"/>
        <pt x="316" y="430" on="0"/>
        <pt x="305" y="459" on="0"/>
        <pt x="285" y="475" on="0"/>
        <pt x="256" y="480" on="0"/>
        <pt x="239" y="480" on="1"/>
      </contour>
      <contour>
        <pt x="158" y="256" on="1"/>
        <pt x="158" y="81" on="1"/>
        <pt x="248" y="81" on="1"/>
        <pt x="272" y="81" on="0"/>
        <pt x="312" y="88" on="0"/>
        <pt x="339" y="107" on="0"/>
        <pt x="354" y="140" on="0"/>
        <pt x="354" y="166" on="1"/>
        <pt x="354" y="193" on="0"/>
        <pt x="339" y="227" on="0"/>
        <pt x="313" y="248" on="0"/>
        <pt x="278" y="256" on="0"/>
        <pt x="258" y="256" on="1"/>
      </contour>
    </TTGlyph>
    <TTGlyph name="C" xMin="30" yMin="-14" xMax="498" yMax="714">
      <contour>
        <pt x="330" y="-14" on="1"/>
        <pt x="265" y="-14" on="0"/>
        <pt x="155" y="37" on="0"/>
        <pt x="75" y="132" on="0"/>
        <pt x="30" y="267" on="0"/>
        <pt x="30" y="350" on="1"/>
        <pt x="30" y="433" on="0"/>
        <pt x="75" y="568" on="0"/>
        <pt x="154" y="663" on="0"/>
        <pt x="264" y="714" on="0"/>
        <pt x="329" y="714" on="1"/>
        <pt x="376" y="714" on="0"/>
        <pt x="466" y="690" on="0"/>
        <pt x="498" y="673" on="1"/>
        <pt x="488" y="585" on="1"/>
        <pt x="451" y="599" on="0"/>
        <pt x="376" y="628" on="0"/>
        <pt x="329" y="628" on="1"/>
        <pt x="281" y="628" on="0"/>
        <pt x="207" y="585" on="0"/>
        <pt x="157" y="510" on="0"/>
        <pt x="132" y="408" on="0"/>
        <pt x="132" y="350" on="1"/>
        <pt x="132" y="292" on="0"/>
        <pt x="157" y="190" on="0"/>
        <pt x="207" y="115" on="0"/>
        <pt x="281" y="72" on="0"/>
        <pt x="330" y="72" on="1"/>
        <pt x="376" y="72" on="0"/>
        <pt x="451" y="100" on="0"/>
        <pt x="488" y="114" on="1"/>
        <pt x="498" y="26" on="1"/>
        <pt x="465" y="9" on="0"/>
        <pt x="376" y="-14" on="0"/>
      </contour>
    </TTGlyph>
    <TTGlyph name="C.sc" xMin="52" yMin="-11" xMax="455" yMax="571">
      <contour>
        <pt x="309" y="-11" on="1"/>
        <pt x="253" y="-11" on="0"/>
        <pt x="159" y="30" on="0"/>
        <pt x="90" y="106" on="0"/>
        <pt x="52" y="214" on="0"/>
        <pt x="52" y="280" on="1"/>
        <pt x="52" y="346" on="0"/>
        <pt x="90" y="454" on="0"/>
        <pt x="159" y="530" on="0"/>
        <pt x="253" y="571" on="0"/>
        <pt x="309" y="571" on="1"/>
        <pt x="350" y="571" on="0"/>
        <pt x="427" y="553" on="0"/>
        <pt x="455" y="538" on="1"/>
        <pt x="445" y="451" on="1"/>
        <pt x="413" y="464" on="0"/>
        <pt x="350" y="483" on="0"/>
        <pt x="309" y="483" on="1"/>
        <pt x="270" y="483" on="0"/>
        <pt x="211" y="452" on="0"/>
        <pt x="172" y="398" on="0"/>
        <pt x="152" y="323" on="0"/>
        <pt x="152" y="280" on="1"/>
        <pt x="152" y="236" on="0"/>
        <pt x="172" y="162" on="0"/>
        <pt x="211" y="108" on="0"/>
        <pt x="270" y="77" on="0"/>
        <pt x="309" y="77" on="1"/>
        <pt x="350" y="77" on="0"/>
        <pt x="413" y="96" on="0"/>
        <pt x="445" y="109" on="1"/>
        <pt x="455" y="21" on="1"/>
        <pt x="427" y="7" on="0"/>
        <pt x="350" y="-11" on="0"/>
      </contour>
    </TTGlyph>
    <TTGlyph name="Ccaron" xMin="30" yMin="-14" xMax="498" yMax="950">
      <component glyphName="C" x="0" y="0" flags="0x204"/>
      <component glyphName="caron" x="70" y="210" flags="0x4"/>
    </TTGlyph>
    <TTGlyph name="Ccedilla" xMin="30" yMin="-192" xMax="498" yMax="714">
      <component glyphName="C" x="0" y="0" flags="0x204"/>
      <component glyphName="cedilla" x="79" y="0" flags="0x4"/>
    </TTGlyph>
    <TTGlyph name="D" xMin="66" yMin="0" xMax="588" yMax="700">
      <contour>
        <pt x="66" y="0" on="1"/>
        <pt x="66" y="700" on="1"/>
        <pt x="290" y="700" on="1"/>
        <pt x="355" y="700" on="0"/>
        <pt x="464" y="653" on="0"/>
        <pt x="544" y="563" on="0"/>
        <pt x="588" y="433" on="0"/>
        <pt x="588" y="350" on="1"/>
        <pt x="588" y="267" on="0"/>
        <pt x="544" y="137" on="0"/>
        <pt x="464" y="47" on="0"/>
        <pt x="355" y="0" on="0"/>
        <pt x="290" y="0" on="1"/>
      </contour>
      <contour>
        <pt x="160" y="614" on="1"/>
        <pt x="160" y="86" on="1"/>
        <pt x="290" y="86" on="1"/>
        <pt x="338" y="86" on="0"/>
        <pt x="412" y="124" on="0"/>
        <pt x="461" y="194" on="0"/>
        <pt x="486" y="291" on="0"/>
        <pt x="486" y="350" on="1"/>
        <pt x="486" y="409" on="0"/>
        <pt x="461" y="506" on="0"/>
        <pt x="412" y="576" on="0"/>
        <pt x="338" y="614" on="0"/>
        <pt x="290" y="614" on="1"/>
      </contour>
    </TTGlyph>
    <TTGlyph name="D.sc" xMin="83" yMin="0" xMax="533" yMax="560">
      <contour>
        <pt x="83" y="0" on="1"/>
        <pt x="83" y="560" on="1"/>
        <pt x="277" y="560" on="1"/>
        <pt x="333" y="560" on="0"/>
        <pt x="427" y="522" on="0"/>
        <pt x="495" y="450" on="0"/>
        <pt x="533" y="346" on="0"/>
        <pt x="533" y="280" on="1"/>
        <pt x="533" y="214" on="0"/>
        <pt x="495" y="110" on="0"/>
        <pt x="427" y="38" on="0"/>
        <pt x="333" y="0" on="0"/>
        <pt x="277" y="0" on="1"/>
      </contour>
      <contour>
        <pt x="174" y="472" on="1"/>
        <pt x="174" y="88" on="1"/>
        <pt x="277" y="88" on="1"/>
        <pt x="355" y="88" on="0"/>
        <pt x="434" y="192" on="0"/>
        <pt x="434" y="280" on="1"/>
        <pt x="434" y="368" on="0"/>
        <pt x="355" y="472" on="0"/>
        <pt x="277" y="472" on="1"/>
      </contour>
    </TTGlyph>
    <TTGlyph name="E" xMin="66" yMin="0" xMax="449" yMax="700">
      <contour>
        <pt x="66" y="0" on="1"/>
        <pt x="66" y="700" on="1"/>
        <pt x="441" y="700" on="1"/>
        <pt x="441" y="614" on="1"/>
        <pt x="161" y="614" on="1"/>
        <pt x="161" y="409" on="1"/>
        <pt x="381" y="409" on="1"/>
        <pt x="381" y="323" on="1"/>
        <pt x="161" y="323" on="1"/>
        <pt x="161" y="86" on="1"/>
        <pt x="449" y="86" on="1"/>
        <pt x="449" y="0" on="1"/>
      </contour>
    </TTGlyph>
    <TTGlyph name="E.sc" xMin="83" yMin="0" xMax="420" yMax="560">
      <contour>
        <pt x="83" y="0" on="1"/>
        <pt x="83" y="560" on="1"/>
        <pt x="413" y="560" on="1"/>
        <pt x="413" y="472" on="1"/>
        <pt x="176" y="472" on="1"/>
        <pt x="176" y="336" on="1"/>
        <pt x="361" y="336" on="1"/>
        <pt x="361" y="248" on="1"/>
        <pt x="176" y="248" on="1"/>
        <pt x="176" y="88" on="1"/>
        <pt x="420" y="88" on="1"/>
        <pt x="420" y="0" on="1"/>
      </contour>
    </TTGlyph>
    <TTGlyph name="Eacute" xMin="66" yMin="0" xMax="449" yMax="942">
      <component glyphName="E" x="0" y="0" flags="0x4"/>
      <component glyphName="acute" x="105" y="210" flags="0x4"/>
    </TTGlyph>
    <TTGlyph name="Ecircumflex" xMin="66" yMin="0" xMax="449" yMax="955">
      <component glyphName="E" x="0" y="0" flags="0x4"/>
      <component glyphName="circumflex" x="43" y="210" flags="0x4"/>
    </TTGlyph>
    <TTGlyph name="Edieresis" xMin="66" yMin="0" xMax="449" yMax="910">
      <component glyphName="E" x="0" y="0" flags="0x4"/>
      <component glyphName="dieresis" x="53" y="210" flags="0x4"/>
    </TTGlyph>
    <TTGlyph name="Egrave" xMin="66" yMin="0" xMax="449" yMax="942">
      <component glyphName="E" x="0" y="0" flags="0x4"/>
      <component glyphName="grave" x="105" y="210" flags="0x4"/>
    </TTGlyph>
    <TTGlyph name="Eth" xMin="-3" yMin="0" xMax="598" yMax="700">
      <contour>
        <pt x="79" y="0" on="1"/>
        <pt x="79" y="313" on="1"/>
        <pt x="-3" y="313" on="1"/>
        <pt x="-3" y="377" on="1"/>
        <pt x="79" y="377" on="1"/>
        <pt x="79" y="700" on="1"/>
        <pt x="301" y="700" on="1"/>
        <pt x="365" y="700" on="0"/>
        <pt x="474" y="653" on="0"/>
        <pt x="554" y="563" on="0"/>
        <pt x="598" y="433" on="0"/>
        <pt x="598" y="350" on="1"/>
        <pt x="598" y="267" on="0"/>
        <pt x="554" y="137" on="0"/>
        <pt x="474" y="47" on="0"/>
        <pt x="365" y="0" on="0"/>
        <pt x="301" y="0" on="1"/>
      </contour>
      <contour>
        <pt x="170" y="614" on="1"/>
        <pt x="170" y="377" on="1"/>
        <pt x="280" y="377" on="1"/>
        <pt x="280" y="313" on="1"/>
        <pt x="170" y="313" on="1"/>
        <pt x="170" y="87" on="1"/>
        <pt x="301" y="87" on="1"/>
        <pt x="349" y="87" on="0"/>
        <pt x="422" y="124" on="0"/>
        <pt x="471" y="193" on="0"/>
        <pt x="496" y="290" on="0"/>
        <pt x="496" y="350" on="1"/>
        <pt x="496" y="410" on="0"/>
        <pt x="471" y="507" on="0"/>
        <pt x="422" y="576" on="0"/>
        <pt x="349" y="614" on="0"/>
        <pt x="301" y="614" on="1"/>
      </contour>
    </TTGlyph>
    <TTGlyph name="Euro" xMin="33" yMin="17" xMax="562" yMax="683">
      <contour>
        <pt x="409" y="17" on="1"/>
        <pt x="322" y="17" on="0"/>
        <pt x="187" y="120" on="0"/>
        <pt x="155" y="215" on="1"/>
        <pt x="33" y="215" on="1"/>
        <pt x="56" y="284" on="1"/>
        <pt x="138" y="284" on="1"/>
        <pt x="136" y="305" on="0"/>
        <pt x="135" y="340" on="0"/>
        <pt x="135" y="369" on="1"/>
        <pt x="56" y="369" on="1"/>
        <pt x="80" y="438" on="1"/>
        <pt x="144" y="438" on="1"/>
        <pt x="156" y="496" on="0"/>
        <pt x="205" y="587" on="0"/>
        <pt x="274" y="650" on="0"/>
        <pt x="360" y="683" on="0"/>
        <pt x="409" y="683" on="1"/>
        <pt x="450" y="683" on="0"/>
        <pt x="530" y="666" on="0"/>
        <pt x="562" y="649" on="1"/>
        <pt x="551" y="551" on="1"/>
        <pt x="516" y="568" on="0"/>
        <pt x="450" y="589" on="0"/>
        <pt x="409" y="589" on="1"/>
        <pt x="345" y="589" on="0"/>
        <pt x="267" y="510" on="0"/>
        <pt x="250" y="438" on="1"/>
        <pt x="470" y="438" on="1"/>
        <pt x="445" y="369" on="1"/>
        <pt x="240" y="369" on="1"/>
        <pt x="240" y="360" on="0"/>
        <pt x="240" y="335" on="0"/>
        <pt x="241" y="311" on="0"/>
        <pt x="242" y="290" on="0"/>
        <pt x="244" y="284" on="1"/>
        <pt x="453" y="284" on="1"/>
        <pt x="430" y="215" on="1"/>
        <pt x="265" y="215" on="1"/>
        <pt x="288" y="161" on="0"/>
        <pt x="359" y="111" on="0"/>
        <pt x="409" y="111" on="1"/>
        <pt x="450" y="111" on="0"/>
        <pt x="516" y="132" on="0"/>
        <pt x="551" y="149" on="1"/>
        <pt x="562" y="51" on="1"/>
        <pt x="530" y="34" on="0"/>
        <pt x="450" y="17" on="0"/>
      </contour>
    </TTGlyph>
    <TTGlyph name="F" xMin="66" yMin="0" xMax="435" yMax="700">
      <contour>
        <pt x="160" y="614" on="1"/>
        <pt x="160" y="409" on="1"/>
        <pt x="372" y="409" on="1"/>
        <pt x="372" y="323" on="1"/>
        <pt x="160" y="323" on="1"/>
        <pt x="160" y="0" on="1"/>
        <pt x="66" y="0" on="1"/>
        <pt x="66" y="700" on="1"/>
        <pt x="435" y="700" on="1"/>
        <pt x="435" y="614" on="1"/>
      </contour>
    </TTGlyph>
    <TTGlyph name="F.sc" xMin="83" yMin="0" xMax="402" yMax="560">
      <contour>
        <pt x="174" y="472" on="1"/>
        <pt x="174" y="336" on="1"/>
        <pt x="350" y="336" on="1"/>
        <pt x="350" y="248" on="1"/>
        <pt x="174" y="248" on="1"/>
        <pt x="174" y="0" on="1"/>
        <pt x="83" y="0" on="1"/>
        <pt x="83" y="560" on="1"/>
        <pt x="402" y="560" on="1"/>
        <pt x="402" y="472" on="1"/>
      </contour>
    </TTGlyph>
    <TTGlyph name="G" xMin="30" yMin="-14" xMax="531" yMax="714">
      <contour>
        <pt x="325" y="-14" on="1"/>
        <pt x="262" y="-14" on="0"/>
        <pt x="154" y="37" on="0"/>
        <pt x="75" y="132" on="0"/>
        <pt x="30" y="267" on="0"/>
        <pt x="30" y="351" on="1"/>
        <pt x="30" y="434" on="0"/>
        <pt x="75" y="568" on="0"/>
        <pt x="154" y="663" on="0"/>
        <pt x="265" y="714" on="0"/>
        <pt x="331" y="714" on="1"/>
        <pt x="353" y="714" on="0"/>
        <pt x="403" y="708" on="0"/>
        <pt x="451" y="697" on="0"/>
        <pt x="494" y="683" on="0"/>
        <pt x="511" y="674" on="1"/>
        <pt x="501" y="591" on="1"/>
        <pt x="465" y="606" on="0"/>
        <pt x="375" y="628" on="0"/>
        <pt x="334" y="628" on="1"/>
        <pt x="282" y="628" on="0"/>
        <pt x="206" y="585" on="0"/>
        <pt x="156" y="510" on="0"/>
        <pt x="132" y="408" on="0"/>
        <pt x="132" y="350" on="1"/>
        <pt x="132" y="290" on="0"/>
        <pt x="158" y="188" on="0"/>
        <pt x="211" y="114" on="0"/>
        <pt x="290" y="72" on="0"/>
        <pt x="344" y="72" on="1"/>
        <pt x="363" y="72" on="0"/>
        <pt x="414" y="80" on="0"/>
        <pt x="437" y="91" on="1"/>
        <pt x="437" y="265" on="1"/>
        <pt x="354" y="265" on="1"/>
        <pt x="354" y="351" on="1"/>
        <pt x="531" y="351" on="1"/>
        <pt x="531" y="39" on="1"/>
        <pt x="514" y="28" on="0"/>
        <pt x="464" y="9" on="0"/>
        <pt x="408" y="-6" on="0"/>
        <pt x="350" y="-14" on="0"/>
      </contour>
    </TTGlyph>
    <TTGlyph name="G.sc" xMin="52" yMin="-11" xMax="484" yMax="571">
      <contour>
        <pt x="306" y="-11" on="1"/>
        <pt x="252" y="-11" on="0"/>
        <pt x="159" y="30" on="0"/>
        <pt x="91" y="106" on="0"/>
        <pt x="52" y="214" on="0"/>
        <pt x="52" y="281" on="1"/>
        <pt x="52" y="347" on="0"/>
        <pt x="90" y="454" on="0"/>
        <pt x="159" y="530" on="0"/>
        <pt x="254" y="571" on="0"/>
        <pt x="311" y="571" on="1"/>
        <pt x="330" y="571" on="0"/>
        <pt x="373" y="566" on="0"/>
        <pt x="415" y="558" on="0"/>
        <pt x="453" y="546" on="0"/>
        <pt x="467" y="539" on="1"/>
        <pt x="457" y="452" on="1"/>
        <pt x="427" y="465" on="0"/>
        <pt x="348" y="483" on="0"/>
        <pt x="313" y="483" on="1"/>
        <pt x="271" y="483" on="0"/>
        <pt x="211" y="452" on="0"/>
        <pt x="171" y="398" on="0"/>
        <pt x="152" y="325" on="0"/>
        <pt x="152" y="282" on="1"/>
        <pt x="152" y="237" on="0"/>
        <pt x="173" y="162" on="0"/>
        <pt x="214" y="107" on="0"/>
        <pt x="277" y="77" on="0"/>
        <pt x="319" y="77" on="1"/>
        <pt x="335" y="77" on="0"/>
        <pt x="373" y="82" on="0"/>
        <pt x="393" y="88" on="1"/>
        <pt x="393" y="202" on="1"/>
        <pt x="332" y="202" on="1"/>
        <pt x="332" y="281" on="1"/>
        <pt x="484" y="281" on="1"/>
        <pt x="484" y="31" on="1"/>
        <pt x="469" y="22" on="0"/>
        <pt x="427" y="7" on="0"/>
        <pt x="378" y="-4" on="0"/>
        <pt x="328" y="-11" on="0"/>
      </contour>
    </TTGlyph>
    <TTGlyph name="H" xMin="66" yMin="0" xMax="570" yMax="700">
      <contour>
        <pt x="476" y="0" on="1"/>
        <pt x="476" y="321" on="1"/>
        <pt x="160" y="321" on="1"/>
        <pt x="160" y="0" on="1"/>
        <pt x="66" y="0" on="1"/>
        <pt x="66" y="700" on="1"/>
        <pt x="160" y="700" on="1"/>
        <pt x="160" y="411" on="1"/>
        <pt x="476" y="411" on="1"/>
        <pt x="476" y="700" on="1"/>
        <pt x="570" y="700" on="1"/>
        <pt x="570" y="0" on="1"/>
      </contour>
    </TTGlyph>
    <TTGlyph name="H.sc" xMin="83" yMin="0" xMax="518" yMax="560">
      <contour>
        <pt x="427" y="0" on="1"/>
        <pt x="427" y="248" on="1"/>
        <pt x="174" y="248" on="1"/>
        <pt x="174" y="0" on="1"/>
        <pt x="83" y="0" on="1"/>
        <pt x="83" y="560" on="1"/>
        <pt x="174" y="560" on="1"/>
        <pt x="174" y="337" on="1"/>
        <pt x="427" y="337" on="1"/>
        <pt x="427" y="560" on="1"/>
        <pt x="518" y="560" on="1"/>
        <pt x="518" y="0" on="1"/>
      </contour>
    </TTGlyph>
    <TTGlyph name="I" xMin="74" yMin="0" xMax="168" yMax="700">
      <contour>
        <pt x="74" y="0" on="1"/>
        <pt x="74" y="700" on="1"/>
        <pt x="168" y="700" on="1"/>
        <pt x="168" y="0" on="1"/>
      </contour>
    </TTGlyph>
    <TTGlyph name="I.sc" xMin="85" yMin="0" xMax="176" yMax="560">
      <contour>
        <pt x="85" y="0" on="1"/>
        <pt x="85" y="560" on="1"/>
        <pt x="176" y="560" on="1"/>
        <pt x="176" y="0" on="1"/>
      </contour>
    </TTGlyph>
    <TTGlyph name="Iacute" xMin="42" yMin="0" xMax="203" yMax="942">
      <component glyphName="I" x="0" y="0" flags="0x204"/>
      <component glyphName="acute" x="-8" y="210" flags="0x4"/>
    </TTGlyph>
    <TTGlyph name="Icircumflex" xMin="-4" yMin="0" xMax="249" yMax="955">
      <component glyphName="I" x="0" y="0" flags="0x204"/>
      <component glyphName="circumflex" x="-69" y="210" flags="0x4"/>
    </TTGlyph>
    <TTGlyph name="Idieresis" xMin="16" yMin="0" xMax="229" yMax="910">
      <component glyphName="I" x="0" y="0" flags="0x204"/>
      <component glyphName="dieresis" x="-59" y="210" flags="0x4"/>
    </TTGlyph>
    <TTGlyph name="Igrave" xMin="42" yMin="0" xMax="203" yMax="942">
      <component glyphName="I" x="0" y="0" flags="0x204"/>
      <component glyphName="grave" x="-8" y="210" flags="0x4"/>
    </TTGlyph>
    <TTGlyph name="J" xMin="-1" yMin="-172" xMax="170" yMax="700">
      <contour>
        <pt x="8" y="-172" on="1"/>
        <pt x="-1" y="-116" on="1"/>
        <pt x="10" y="-116" on="1"/>
        <pt x="50" y="-116" on="0"/>
        <pt x="76" y="-62" on="0"/>
        <pt x="76" y="-3" on="1"/>
        <pt x="76" y="700" on="1"/>
        <pt x="170" y="700" on="1"/>
        <pt x="170" y="-32" on="1"/>
        <pt x="170" y="-100" on="0"/>
        <pt x="99" y="-172" on="0"/>
        <pt x="29" y="-172" on="1"/>
      </contour>
    </TTGlyph>
    <TTGlyph name="J.sc" xMin="24" yMin="-138" xMax="176" yMax="560">
      <contour>
        <pt x="32" y="-138" on="1"/>
        <pt x="24" y="-72" on="1"/>
        <pt x="41" y="-72" on="1"/>
        <pt x="67" y="-72" on="0"/>
        <pt x="85" y="-37" on="0"/>
        <pt x="85" y="1" on="1"/>
        <pt x="85" y="560" on="1"/>
        <pt x="176" y="560" on="1"/>
        <pt x="176" y="-22" on="1"/>
        <pt x="176" y="-80" on="0"/>
        <pt x="113" y="-138" on="0"/>
        <pt x="56" y="-138" on="1"/>
      </contour>
    </TTGlyph>
    <TTGlyph name="K" xMin="83" yMin="0" xMax="524" yMax="700">
      <contour>
        <pt x="422" y="0" on="1"/>
        <pt x="205" y="371" on="1"/>
        <pt x="422" y="700" on="1"/>
        <pt x="524" y="700" on="1"/>
        <pt x="307" y="371" on="1"/>
        <pt x="524" y="0" on="1"/>
      </contour>
      <contour>
        <pt x="83" y="0" on="1"/>
        <pt x="83" y="700" on="1"/>
        <pt x="177" y="700" on="1"/>
        <pt x="177" y="0" on="1"/>
      </contour>
    </TTGlyph>
    <TTGlyph name="K.sc" xMin="87" yMin="0" xMax="483" yMax="560">
      <contour>
        <pt x="381" y="0" on="1"/>
        <pt x="198" y="296" on="1"/>
        <pt x="381" y="560" on="1"/>
        <pt x="483" y="560" on="1"/>
        <pt x="300" y="296" on="1"/>
        <pt x="483" y="0" on="1"/>
      </contour>
      <contour>
        <pt x="87" y="0" on="1"/>
        <pt x="87" y="560" on="1"/>
        <pt x="178" y="560" on="1"/>
        <pt x="178" y="0" on="1"/>
      </contour>
    </TTGlyph>
    <TTGlyph name="L" xMin="66" yMin="0" xMax="424" yMax="700">
      <contour>
        <pt x="66" y="0" on="1"/>
        <pt x="66" y="700" on="1"/>
        <pt x="160" y="700" on="1"/>
        <pt x="160" y="86" on="1"/>
        <pt x="424" y="86" on="1"/>
        <pt x="424" y="0" on="1"/>
      </contour>
    </TTGlyph>
    <TTGlyph name="L.sc" xMin="83" yMin="0" xMax="392" yMax="560">
      <contour>
        <pt x="83" y="0" on="1"/>
        <pt x="83" y="560" on="1"/>
        <pt x="174" y="560" on="1"/>
        <pt x="174" y="88" on="1"/>
        <pt x="392" y="88" on="1"/>
        <pt x="392" y="0" on="1"/>
      </contour>
    </TTGlyph>
    <TTGlyph name="M" xMin="47" yMin="0" xMax="673" yMax="700">
      <contour>
        <pt x="575" y="0" on="1"/>
        <pt x="526" y="512" on="1"/>
        <pt x="361" y="149" on="1"/>
        <pt x="194" y="512" on="1"/>
        <pt x="145" y="0" on="1"/>
        <pt x="47" y="0" on="1"/>
        <pt x="124" y="700" on="1"/>
        <pt x="202" y="700" on="1"/>
        <pt x="361" y="336" on="1"/>
        <pt x="518" y="700" on="1"/>
        <pt x="597" y="700" on="1"/>
        <pt x="673" y="0" on="1"/>
      </contour>
    </TTGlyph>
    <TTGlyph name="M.sc" xMin="62" yMin="0" xMax="611" yMax="560">
      <contour>
        <pt x="516" y="0" on="1"/>
        <pt x="471" y="392" on="1"/>
        <pt x="337" y="123" on="1"/>
        <pt x="202" y="392" on="1"/>
        <pt x="157" y="0" on="1"/>
        <pt x="62" y="0" on="1"/>
        <pt x="133" y="560" on="1"/>
        <pt x="208" y="560" on="1"/>
        <pt x="337" y="297" on="1"/>
        <pt x="465" y="560" on="1"/>
        <pt x="540" y="560" on="1"/>
        <pt x="611" y="0" on="1"/>
      </contour>
    </TTGlyph>
    <TTGlyph name="N" xMin="66" yMin="0" xMax="537" yMax="700">
      <contour>
        <pt x="459" y="0" on="1"/>
        <pt x="160" y="553" on="1"/>
        <pt x="160" y="0" on="1"/>
        <pt x="66" y="0" on="1"/>
        <pt x="66" y="700" on="1"/>
        <pt x="163" y="700" on="1"/>
        <pt x="443" y="176" on="1"/>
        <pt x="443" y="700" on="1"/>
        <pt x="537" y="700" on="1"/>
        <pt x="537" y="0" on="1"/>
      </contour>
    </TTGlyph>
    <TTGlyph name="N.sc" xMin="83" yMin="0" xMax="492" yMax="560">
      <contour>
        <pt x="417" y="0" on="1"/>
        <pt x="174" y="405" on="1"/>
        <pt x="174" y="0" on="1"/>
        <pt x="83" y="0" on="1"/>
        <pt x="83" y="560" on="1"/>
        <pt x="173" y="560" on="1"/>
        <pt x="401" y="178" on="1"/>
        <pt x="401" y="560" on="1"/>
        <pt x="492" y="560" on="1"/>
        <pt x="492" y="0" on="1"/>
      </contour>
    </TTGlyph>
    <TTGlyph name="Ntilde" xMin="66" yMin="0" xMax="537" yMax="912">
      <component glyphName="N" x="0" y="0" flags="0x204"/>
      <component glyphName="tilde" x="74" y="210" flags="0x4"/>
    </TTGlyph>
    <TTGlyph name="O" xMin="30" yMin="-14" xMax="623" yMax="714">
      <contour>
        <pt x="327" y="-14" on="1"/>
        <pt x="262" y="-14" on="0"/>
        <pt x="154" y="37" on="0"/>
        <pt x="74" y="132" on="0"/>
        <pt x="30" y="267" on="0"/>
        <pt x="30" y="350" on="1"/>
        <pt x="30" y="433" on="0"/>
        <pt x="74" y="568" on="0"/>
        <pt x="154" y="663" on="0"/>
        <pt x="262" y="714" on="0"/>
        <pt x="327" y="714" on="1"/>
        <pt x="391" y="714" on="0"/>
        <pt x="500" y="663" on="0"/>
        <pt x="579" y="568" on="0"/>
        <pt x="623" y="433" on="0"/>
        <pt x="623" y="350" on="1"/>
        <pt x="623" y="267" on="0"/>
        <pt x="579" y="132" on="0"/>
        <pt x="500" y="37" on="0"/>
        <pt x="391" y="-14" on="0"/>
      </contour>
      <contour>
        <pt x="327" y="628" on="1"/>
        <pt x="279" y="628" on="0"/>
        <pt x="206" y="585" on="0"/>
        <pt x="157" y="510" on="0"/>
        <pt x="132" y="408" on="0"/>
        <pt x="132" y="350" on="1"/>
        <pt x="132" y="292" on="0"/>
        <pt x="157" y="190" on="0"/>
        <pt x="206" y="115" on="0"/>
        <pt x="279" y="72" on="0"/>
        <pt x="327" y="72" on="1"/>
        <pt x="375" y="72" on="0"/>
        <pt x="448" y="115" on="0"/>
        <pt x="497" y="190" on="0"/>
        <pt x="521" y="292" on="0"/>
        <pt x="521" y="350" on="1"/>
        <pt x="521" y="408" on="0"/>
        <pt x="497" y="510" on="0"/>
        <pt x="448" y="585" on="0"/>
        <pt x="375" y="628" on="0"/>
      </contour>
    </TTGlyph>
    <TTGlyph name="O.sc" xMin="52" yMin="-11" xMax="564" yMax="571">
      <contour>
        <pt x="308" y="-11" on="1"/>
        <pt x="252" y="-11" on="0"/>
        <pt x="159" y="30" on="0"/>
        <pt x="90" y="106" on="0"/>
        <pt x="52" y="214" on="0"/>
        <pt x="52" y="280" on="1"/>
        <pt x="52" y="346" on="0"/>
        <pt x="90" y="454" on="0"/>
        <pt x="159" y="530" on="0"/>
        <pt x="252" y="571" on="0"/>
        <pt x="308" y="571" on="1"/>
        <pt x="363" y="571" on="0"/>
        <pt x="457" y="530" on="0"/>
        <pt x="526" y="454" on="0"/>
        <pt x="564" y="346" on="0"/>
        <pt x="564" y="280" on="1"/>
        <pt x="564" y="214" on="0"/>
        <pt x="526" y="106" on="0"/>
        <pt x="457" y="30" on="0"/>
        <pt x="363" y="-11" on="0"/>
      </contour>
      <contour>
        <pt x="308" y="483" on="1"/>
        <pt x="269" y="483" on="0"/>
        <pt x="210" y="452" on="0"/>
        <pt x="171" y="398" on="0"/>
        <pt x="152" y="323" on="0"/>
        <pt x="152" y="280" on="1"/>
        <pt x="152" y="236" on="0"/>
        <pt x="171" y="162" on="0"/>
        <pt x="210" y="108" on="0"/>
        <pt x="269" y="77" on="0"/>
        <pt x="308" y="77" on="1"/>
        <pt x="347" y="77" on="0"/>
        <pt x="405" y="108" on="0"/>
        <pt x="444" y="162" on="0"/>
        <pt x="464" y="236" on="0"/>
        <pt x="464" y="280" on="1"/>
        <pt x="464" y="323" on="0"/>
        <pt x="444" y="398" on="0"/>
        <pt x="405" y="452" on="0"/>
        <pt x="347" y="483" on="0"/>
      </contour>
    </TTGlyph>
    <TTGlyph name="OE" xMin="30" yMin="-14" xMax="885" yMax="714">
      <contour>
        <pt x="523" y="0" on="1"/>
        <pt x="523" y="83" on="1"/>
        <pt x="472" y="29" on="0"/>
        <pt x="376" y="-14" on="0"/>
        <pt x="323" y="-14" on="1"/>
        <pt x="259" y="-14" on="0"/>
        <pt x="152" y="37" on="0"/>
        <pt x="74" y="132" on="0"/>
        <pt x="30" y="267" on="0"/>
        <pt x="30" y="350" on="1"/>
        <pt x="30" y="433" on="0"/>
        <pt x="74" y="568" on="0"/>
        <pt x="152" y="663" on="0"/>
        <pt x="259" y="714" on="0"/>
        <pt x="323" y="714" on="1"/>
        <pt x="376" y="714" on="0"/>
        <pt x="472" y="671" on="0"/>
        <pt x="523" y="617" on="1"/>
        <pt x="523" y="699" on="1"/>
        <pt x="877" y="699" on="1"/>
        <pt x="877" y="614" on="1"/>
        <pt x="616" y="614" on="1"/>
        <pt x="616" y="409" on="1"/>
        <pt x="817" y="409" on="1"/>
        <pt x="817" y="323" on="1"/>
        <pt x="616" y="323" on="1"/>
        <pt x="616" y="86" on="1"/>
        <pt x="885" y="86" on="1"/>
        <pt x="885" y="0" on="1"/>
      </contour>
      <contour>
        <pt x="323" y="628" on="1"/>
        <pt x="275" y="628" on="0"/>
        <pt x="202" y="585" on="0"/>
        <pt x="154" y="510" on="0"/>
        <pt x="130" y="409" on="0"/>
        <pt x="130" y="350" on="1"/>
        <pt x="130" y="291" on="0"/>
        <pt x="154" y="190" on="0"/>
        <pt x="202" y="115" on="0"/>
        <pt x="275" y="72" on="0"/>
        <pt x="323" y="72" on="1"/>
        <pt x="371" y="72" on="0"/>
        <pt x="444" y="115" on="0"/>
        <pt x="492" y="190" on="0"/>
        <pt x="516" y="291" on="0"/>
        <pt x="516" y="350" on="1"/>
        <pt x="516" y="409" on="0"/>
        <pt x="492" y="510" on="0"/>
        <pt x="444" y="585" on="0"/>
        <pt x="371" y="628" on="0"/>
      </contour>
    </TTGlyph>
    <TTGlyph name="OE.sc" xMin="52" yMin="-11" xMax="789" yMax="571">
      <contour>
        <pt x="469" y="0" on="1"/>
        <pt x="469" y="52" on="1"/>
        <pt x="399" y="-11" on="0"/>
        <pt x="307" y="-11" on="1"/>
        <pt x="251" y="-11" on="0"/>
        <pt x="158" y="30" on="0"/>
        <pt x="90" y="106" on="0"/>
        <pt x="52" y="214" on="0"/>
        <pt x="52" y="280" on="1"/>
        <pt x="52" y="346" on="0"/>
        <pt x="90" y="454" on="0"/>
        <pt x="158" y="530" on="0"/>
        <pt x="251" y="571" on="0"/>
        <pt x="307" y="571" on="1"/>
        <pt x="399" y="571" on="0"/>
        <pt x="469" y="508" on="1"/>
        <pt x="469" y="560" on="1"/>
        <pt x="783" y="560" on="1"/>
        <pt x="783" y="472" on="1"/>
        <pt x="561" y="472" on="1"/>
        <pt x="561" y="336" on="1"/>
        <pt x="732" y="336" on="1"/>
        <pt x="732" y="248" on="1"/>
        <pt x="561" y="248" on="1"/>
        <pt x="561" y="88" on="1"/>
        <pt x="789" y="88" on="1"/>
        <pt x="789" y="0" on="1"/>
      </contour>
      <contour>
        <pt x="307" y="483" on="1"/>
        <pt x="268" y="483" on="0"/>
        <pt x="209" y="452" on="0"/>
        <pt x="170" y="398" on="0"/>
        <pt x="151" y="324" on="0"/>
        <pt x="151" y="280" on="1"/>
        <pt x="151" y="236" on="0"/>
        <pt x="170" y="162" on="0"/>
        <pt x="209" y="108" on="0"/>
        <pt x="268" y="77" on="0"/>
        <pt x="307" y="77" on="1"/>
        <pt x="346" y="77" on="0"/>
        <pt x="404" y="108" on="0"/>
        <pt x="443" y="162" on="0"/>
        <pt x="463" y="236" on="0"/>
        <pt x="463" y="280" on="1"/>
        <pt x="463" y="324" on="0"/>
        <pt x="443" y="398" on="0"/>
        <pt x="404" y="452" on="0"/>
        <pt x="346" y="483" on="0"/>
      </contour>
    </TTGlyph>
    <TTGlyph name="Oacute" xMin="30" yMin="-14" xMax="623" yMax="942">
      <component glyphName="O" x="0" y="0" flags="0x204"/>
      <component glyphName="acute" x="196" y="210" flags="0x4"/>
    </TTGlyph>
    <TTGlyph name="Ocircumflex" xMin="30" yMin="-14" xMax="623" yMax="955">
      <component glyphName="O" x="0" y="0" flags="0x204"/>
      <component glyphName="circumflex" x="135" y="210" flags="0x4"/>
    </TTGlyph>
    <TTGlyph name="Odieresis" xMin="30" yMin="-14" xMax="623" yMax="910">
      <component glyphName="O" x="0" y="0" flags="0x204"/>
      <component glyphName="dieresis" x="145" y="210" flags="0x4"/>
    </TTGlyph>
    <TTGlyph name="Ograve" xMin="30" yMin="-14" xMax="623" yMax="942">
      <component glyphName="O" x="0" y="0" flags="0x204"/>
      <component glyphName="grave" x="196" y="210" flags="0x4"/>
    </TTGlyph>
    <TTGlyph name="Oslash" xMin="30" yMin="-30" xMax="623" yMax="716">
      <contour>
        <pt x="326" y="-12" on="1"/>
        <pt x="288" y="-12" on="0"/>
        <pt x="216" y="8" on="0"/>
        <pt x="180" y="31" on="1"/>
        <pt x="146" y="-30" on="1"/>
        <pt x="52" y="-30" on="1"/>
        <pt x="117" y="75" on="1"/>
        <pt x="75" y="132" on="0"/>
        <pt x="30" y="267" on="0"/>
        <pt x="30" y="350" on="1"/>
        <pt x="30" y="433" on="0"/>
        <pt x="74" y="568" on="0"/>
        <pt x="154" y="663" on="0"/>
        <pt x="262" y="714" on="0"/>
        <pt x="327" y="714" on="1"/>
        <pt x="364" y="714" on="0"/>
        <pt x="434" y="695" on="0"/>
        <pt x="469" y="672" on="1"/>
        <pt x="493" y="716" on="1"/>
        <pt x="588" y="716" on="1"/>
        <pt x="532" y="627" on="1"/>
        <pt x="577" y="572" on="0"/>
        <pt x="623" y="434" on="0"/>
        <pt x="623" y="349" on="1"/>
        <pt x="623" y="266" on="0"/>
        <pt x="579" y="133" on="0"/>
        <pt x="500" y="39" on="0"/>
        <pt x="391" y="-12" on="0"/>
      </contour>
      <contour>
        <pt x="233" y="105" on="1"/>
        <pt x="259" y="88" on="0"/>
        <pt x="303" y="76" on="0"/>
        <pt x="327" y="76" on="1"/>
        <pt x="375" y="76" on="0"/>
        <pt x="447" y="118" on="0"/>
        <pt x="495" y="193" on="0"/>
        <pt x="519" y="293" on="0"/>
        <pt x="519" y="352" on="1"/>
        <pt x="519" y="400" on="0"/>
        <pt x="500" y="506" on="0"/>
        <pt x="477" y="548" on="1"/>
      </contour>
      <contour>
        <pt x="326" y="625" on="1"/>
        <pt x="278" y="625" on="0"/>
        <pt x="206" y="583" on="0"/>
        <pt x="158" y="508" on="0"/>
        <pt x="134" y="407" on="0"/>
        <pt x="134" y="349" on="1"/>
        <pt x="134" y="303" on="0"/>
        <pt x="151" y="213" on="0"/>
        <pt x="174" y="156" on="1"/>
        <pt x="416" y="597" on="1"/>
        <pt x="391" y="613" on="0"/>
        <pt x="349" y="625" on="0"/>
      </contour>
    </TTGlyph>
    <TTGlyph name="Otilde" xMin="30" yMin="-14" xMax="623" yMax="912">
      <component glyphName="O" x="0" y="0" flags="0x204"/>
      <component glyphName="tilde" x="100" y="210" flags="0x4"/>
    </TTGlyph>
    <TTGlyph name="P" xMin="74" yMin="0" xMax="487" yMax="700">
      <contour>
        <pt x="170" y="245" on="1"/>
        <pt x="170" y="0" on="1"/>
        <pt x="74" y="0" on="1"/>
        <pt x="74" y="700" on="1"/>
        <pt x="257" y="700" on="1"/>
        <pt x="308" y="700" on="0"/>
        <pt x="392" y="685" on="0"/>
        <pt x="453" y="638" on="0"/>
        <pt x="487" y="552" on="0"/>
        <pt x="487" y="482" on="1"/>
        <pt x="487" y="414" on="0"/>
        <pt x="449" y="323" on="0"/>
        <pt x="391" y="268" on="0"/>
        <pt x="322" y="245" on="0"/>
        <pt x="291" y="245" on="1"/>
      </contour>
      <contour>
        <pt x="170" y="615" on="1"/>
        <pt x="170" y="330" on="1"/>
        <pt x="276" y="330" on="1"/>
        <pt x="338" y="330" on="0"/>
        <pt x="391" y="407" on="0"/>
        <pt x="391" y="478" on="1"/>
        <pt x="391" y="515" on="0"/>
        <pt x="378" y="568" on="0"/>
        <pt x="348" y="600" on="0"/>
        <pt x="298" y="615" on="0"/>
        <pt x="261" y="615" on="1"/>
      </contour>
    </TTGlyph>
    <TTGlyph name="P.sc" xMin="85" yMin="0" xMax="451" yMax="560">
      <contour>
        <pt x="177" y="188" on="1"/>
        <pt x="177" y="0" on="1"/>
        <pt x="85" y="0" on="1"/>
        <pt x="85" y="560" on="1"/>
        <pt x="235" y="560" on="1"/>
        <pt x="286" y="560" on="0"/>
        <pt x="367" y="548" on="0"/>
        <pt x="422" y="510" on="0"/>
        <pt x="451" y="441" on="0"/>
        <pt x="451" y="384" on="1"/>
        <pt x="451" y="325" on="0"/>
        <pt x="416" y="250" on="0"/>
        <pt x="362" y="205" on="0"/>
        <pt x="300" y="188" on="0"/>
        <pt x="273" y="188" on="1"/>
      </contour>
      <contour>
        <pt x="177" y="481" on="1"/>
        <pt x="177" y="274" on="1"/>
        <pt x="260" y="274" on="1"/>
        <pt x="313" y="274" on="0"/>
        <pt x="358" y="325" on="0"/>
        <pt x="358" y="382" on="1"/>
        <pt x="358" y="435" on="0"/>
        <pt x="316" y="481" on="0"/>
        <pt x="255" y="481" on="1"/>
      </contour>
    </TTGlyph>
    <TTGlyph name="Q" xMin="30" yMin="-14" xMax="623" yMax="714">
      <contour>
        <pt x="565" y="3" on="1"/>
        <pt x="507" y="57" on="1"/>
        <pt x="467" y="20" on="0"/>
        <pt x="377" y="-14" on="0"/>
        <pt x="327" y="-14" on="1"/>
        <pt x="262" y="-14" on="0"/>
        <pt x="154" y="37" on="0"/>
        <pt x="74" y="132" on="0"/>
        <pt x="30" y="267" on="0"/>
        <pt x="30" y="350" on="1"/>
        <pt x="30" y="433" on="0"/>
        <pt x="74" y="568" on="0"/>
        <pt x="154" y="663" on="0"/>
        <pt x="262" y="714" on="0"/>
        <pt x="327" y="714" on="1"/>
        <pt x="391" y="714" on="0"/>
        <pt x="500" y="663" on="0"/>
        <pt x="579" y="568" on="0"/>
        <pt x="623" y="433" on="0"/>
        <pt x="623" y="350" on="1"/>
        <pt x="623" y="284" on="0"/>
        <pt x="594" y="168" on="0"/>
        <pt x="564" y="111" on="1"/>
        <pt x="616" y="62" on="1"/>
      </contour>
      <contour>
        <pt x="327" y="628" on="1"/>
        <pt x="278" y="628" on="0"/>
        <pt x="205" y="585" on="0"/>
        <pt x="156" y="510" on="0"/>
        <pt x="132" y="408" on="0"/>
        <pt x="132" y="350" on="1"/>
        <pt x="132" y="291" on="0"/>
        <pt x="156" y="190" on="0"/>
        <pt x="205" y="115" on="0"/>
        <pt x="278" y="72" on="0"/>
        <pt x="327" y="72" on="1"/>
        <pt x="354" y="72" on="0"/>
        <pt x="414" y="87" on="0"/>
        <pt x="438" y="112" on="1"/>
        <pt x="356" y="196" on="1"/>
        <pt x="408" y="257" on="1"/>
        <pt x="492" y="164" on="1"/>
        <pt x="514" y="216" on="0"/>
        <pt x="526" y="308" on="0"/>
        <pt x="526" y="350" on="1"/>
        <pt x="526" y="408" on="0"/>
        <pt x="500" y="510" on="0"/>
        <pt x="450" y="585" on="0"/>
        <pt x="376" y="628" on="0"/>
      </contour>
    </TTGlyph>
    <TTGlyph name="Q.sc" xMin="52" yMin="-11" xMax="564" yMax="571">
      <contour>
        <pt x="510" y="-4" on="1"/>
        <pt x="459" y="40" on="1"/>
        <pt x="396" y="-11" on="0"/>
        <pt x="308" y="-11" on="1"/>
        <pt x="252" y="-11" on="0"/>
        <pt x="159" y="30" on="0"/>
        <pt x="90" y="106" on="0"/>
        <pt x="52" y="214" on="0"/>
        <pt x="52" y="280" on="1"/>
        <pt x="52" y="346" on="0"/>
        <pt x="90" y="454" on="0"/>
        <pt x="159" y="530" on="0"/>
        <pt x="252" y="571" on="0"/>
        <pt x="308" y="571" on="1"/>
        <pt x="363" y="571" on="0"/>
        <pt x="457" y="530" on="0"/>
        <pt x="526" y="454" on="0"/>
        <pt x="564" y="346" on="0"/>
        <pt x="564" y="280" on="1"/>
        <pt x="564" y="228" on="0"/>
        <pt x="539" y="138" on="0"/>
        <pt x="516" y="99" on="1"/>
        <pt x="562" y="58" on="1"/>
      </contour>
      <contour>
        <pt x="308" y="483" on="1"/>
        <pt x="269" y="483" on="0"/>
        <pt x="210" y="452" on="0"/>
        <pt x="171" y="398" on="0"/>
        <pt x="152" y="324" on="0"/>
        <pt x="152" y="280" on="1"/>
        <pt x="152" y="236" on="0"/>
        <pt x="171" y="162" on="0"/>
        <pt x="210" y="108" on="0"/>
        <pt x="269" y="77" on="0"/>
        <pt x="308" y="77" on="1"/>
        <pt x="330" y="77" on="0"/>
        <pt x="371" y="87" on="0"/>
        <pt x="388" y="100" on="1"/>
        <pt x="324" y="160" on="1"/>
        <pt x="375" y="224" on="1"/>
        <pt x="443" y="159" on="1"/>
        <pt x="456" y="188" on="0"/>
        <pt x="465" y="248" on="0"/>
        <pt x="465" y="280" on="1"/>
        <pt x="465" y="324" on="0"/>
        <pt x="445" y="398" on="0"/>
        <pt x="406" y="452" on="0"/>
        <pt x="347" y="483" on="0"/>
      </contour>
    </TTGlyph>
    <TTGlyph name="R" xMin="73" yMin="0" xMax="518" yMax="700">
      <contour>
        <pt x="419" y="0" on="1"/>
        <pt x="289" y="273" on="1"/>
        <pt x="169" y="273" on="1"/>
        <pt x="169" y="0" on="1"/>
        <pt x="73" y="0" on="1"/>
        <pt x="73" y="700" on="1"/>
        <pt x="279" y="700" on="1"/>
        <pt x="324" y="700" on="0"/>
        <pt x="400" y="680" on="0"/>
        <pt x="455" y="633" on="0"/>
        <pt x="486" y="554" on="0"/>
        <pt x="486" y="495" on="1"/>
        <pt x="486" y="430" on="0"/>
        <pt x="428" y="327" on="0"/>
        <pt x="380" y="298" on="1"/>
        <pt x="518" y="0" on="1"/>
      </contour>
      <contour>
        <pt x="169" y="623" on="1"/>
        <pt x="169" y="365" on="1"/>
        <pt x="278" y="365" on="1"/>
        <pt x="303" y="365" on="0"/>
        <pt x="345" y="378" on="0"/>
        <pt x="373" y="408" on="0"/>
        <pt x="389" y="458" on="0"/>
        <pt x="389" y="495" on="1"/>
        <pt x="389" y="556" on="0"/>
        <pt x="334" y="623" on="0"/>
        <pt x="268" y="623" on="1"/>
      </contour>
    </TTGlyph>
    <TTGlyph name="R.sc" xMin="84" yMin="0" xMax="478" yMax="560">
      <contour>
        <pt x="383" y="0" on="1"/>
        <pt x="274" y="212" on="1"/>
        <pt x="176" y="212" on="1"/>
        <pt x="176" y="0" on="1"/>
        <pt x="84" y="0" on="1"/>
        <pt x="84" y="560" on="1"/>
        <pt x="271" y="560" on="1"/>
        <pt x="309" y="560" on="0"/>
        <pt x="374" y="544" on="0"/>
        <pt x="422" y="506" on="0"/>
        <pt x="449" y="444" on="0"/>
        <pt x="449" y="398" on="1"/>
        <pt x="449" y="337" on="0"/>
        <pt x="398" y="260" on="0"/>
        <pt x="360" y="236" on="1"/>
        <pt x="478" y="0" on="1"/>
      </contour>
      <contour>
        <pt x="176" y="483" on="1"/>
        <pt x="176" y="300" on="1"/>
        <pt x="252" y="300" on="1"/>
        <pt x="311" y="300" on="0"/>
        <pt x="354" y="347" on="0"/>
        <pt x="354" y="393" on="1"/>
        <pt x="354" y="436" on="0"/>
        <pt x="312" y="483" on="0"/>
        <pt x="252" y="483" on="1"/>
      </contour>
    </TTGlyph>
    <TTGlyph name="S" xMin="33" yMin="-14" xMax="474" yMax="714">
      <contour>
        <pt x="241" y="-14" on="1"/>
        <pt x="178" y="-14" on="0"/>
        <pt x="73" y="11" on="0"/>
        <pt x="42" y="31" on="1"/>
        <pt x="54" y="142" on="1"/>
        <pt x="86" y="108" on="0"/>
        <pt x="187" y="72" on="0"/>
        <pt x="237" y="72" on="1"/>
        <pt x="302" y="72" on="0"/>
        <pt x="371" y="129" on="0"/>
        <pt x="371" y="179" on="1"/>
        <pt x="371" y="206" on="0"/>
        <pt x="351" y="243" on="0"/>
        <pt x="313" y="274" on="0"/>
        <pt x="257" y="301" on="0"/>
        <pt x="222" y="317" on="1"/>
        <pt x="177" y="337" on="0"/>
        <pt x="107" y="374" on="0"/>
        <pt x="59" y="417" on="0"/>
        <pt x="33" y="475" on="0"/>
        <pt x="33" y="516" on="1"/>
        <pt x="33" y="559" on="0"/>
        <pt x="61" y="631" on="0"/>
        <pt x="116" y="684" on="0"/>
        <pt x="197" y="714" on="0"/>
        <pt x="250" y="714" on="1"/>
        <pt x="277" y="714" on="0"/>
        <pt x="331" y="707" on="0"/>
        <pt x="382" y="694" on="0"/>
        <pt x="425" y="676" on="0"/>
        <pt x="440" y="666" on="1"/>
        <pt x="428" y="569" on="1"/>
        <pt x="377" y="601" on="0"/>
        <pt x="294" y="628" on="0"/>
        <pt x="261" y="628" on="1"/>
        <pt x="206" y="628" on="0"/>
        <pt x="132" y="570" on="0"/>
        <pt x="132" y="523" on="1"/>
        <pt x="132" y="499" on="0"/>
        <pt x="153" y="465" on="0"/>
        <pt x="187" y="438" on="0"/>
        <pt x="233" y="417" on="0"/>
        <pt x="258" y="407" on="1"/>
        <pt x="311" y="385" on="0"/>
        <pt x="392" y="345" on="0"/>
        <pt x="446" y="295" on="0"/>
        <pt x="474" y="228" on="0"/>
        <pt x="474" y="179" on="1"/>
        <pt x="474" y="87" on="0"/>
        <pt x="366" y="-14" on="0"/>
      </contour>
    </TTGlyph>
    <TTGlyph name="S.sc" xMin="54" yMin="-11" xMax="434" yMax="571">
      <contour>
        <pt x="234" y="-11" on="1"/>
        <pt x="174" y="-11" on="0"/>
        <pt x="84" y="13" on="0"/>
        <pt x="61" y="28" on="1"/>
        <pt x="72" y="135" on="1"/>
        <pt x="95" y="113" on="0"/>
        <pt x="178" y="77" on="0"/>
        <pt x="236" y="77" on="1"/>
        <pt x="278" y="77" on="0"/>
        <pt x="333" y="108" on="0"/>
        <pt x="333" y="147" on="1"/>
        <pt x="333" y="169" on="0"/>
        <pt x="313" y="200" on="0"/>
        <pt x="279" y="224" on="0"/>
        <pt x="234" y="242" on="0"/>
        <pt x="210" y="251" on="1"/>
        <pt x="181" y="261" on="0"/>
        <pt x="126" y="285" on="0"/>
        <pt x="81" y="319" on="0"/>
        <pt x="54" y="369" on="0"/>
        <pt x="54" y="406" on="1"/>
        <pt x="54" y="433" on="0"/>
        <pt x="73" y="491" on="0"/>
        <pt x="117" y="540" on="0"/>
        <pt x="189" y="571" on="0"/>
        <pt x="242" y="571" on="1"/>
        <pt x="295" y="571" on="0"/>
        <pt x="386" y="544" on="0"/>
        <pt x="407" y="530" on="1"/>
        <pt x="397" y="434" on="1"/>
        <pt x="356" y="457" on="0"/>
        <pt x="284" y="484" on="0"/>
        <pt x="246" y="484" on="1"/>
        <pt x="230" y="484" on="0"/>
        <pt x="195" y="477" on="0"/>
        <pt x="166" y="462" on="0"/>
        <pt x="147" y="435" on="0"/>
        <pt x="147" y="416" on="1"/>
        <pt x="147" y="398" on="0"/>
        <pt x="164" y="373" on="0"/>
        <pt x="193" y="353" on="0"/>
        <pt x="232" y="338" on="0"/>
        <pt x="253" y="331" on="1"/>
        <pt x="284" y="320" on="0"/>
        <pt x="348" y="296" on="0"/>
        <pt x="400" y="256" on="0"/>
        <pt x="434" y="195" on="0"/>
        <pt x="434" y="149" on="1"/>
        <pt x="434" y="126" on="0"/>
        <pt x="421" y="70" on="0"/>
        <pt x="379" y="22" on="0"/>
        <pt x="300" y="-11" on="0"/>
      </contour>
    </TTGlyph>
    <TTGlyph name="Scaron" xMin="33" yMin="-14" xMax="474" yMax="950">
      <component glyphName="S" x="0" y="0" flags="0x204"/>
      <component glyphName="caron" x="58" y="210" flags="0x4"/>
    </TTGlyph>
    <TTGlyph name="T" xMin="18" yMin="0" xMax="458" yMax="700">
      <contour>
        <pt x="285" y="614" on="1"/>
        <pt x="285" y="0" on="1"/>
        <pt x="191" y="0" on="1"/>
        <pt x="191" y="614" on="1"/>
        <pt x="18" y="614" on="1"/>
        <pt x="18" y="700" on="1"/>
        <pt x="458" y="700" on="1"/>
        <pt x="458" y="614" on="1"/>
      </contour>
    </TTGlyph>
    <TTGlyph name="T.sc" xMin="38" yMin="0" xMax="424" yMax="560">
      <contour>
        <pt x="277" y="472" on="1"/>
        <pt x="277" y="0" on="1"/>
        <pt x="185" y="0" on="1"/>
        <pt x="185" y="472" on="1"/>
        <pt x="38" y="472" on="1"/>
        <pt x="38" y="560" on="1"/>
        <pt x="424" y="560" on="1"/>
        <pt x="424" y="472" on="1"/>
      </contour>
    </TTGlyph>
    <TTGlyph name="Thorn" xMin="74" yMin="0" xMax="487" yMax="700">
      <contour>
        <pt x="170" y="125" on="1"/>
        <pt x="170" y="0" on="1"/>
        <pt x="74" y="0" on="1"/>
        <pt x="74" y="700" on="1"/>
        <pt x="170" y="700" on="1"/>
        <pt x="170" y="580" on="1"/>
        <pt x="257" y="580" on="1"/>
        <pt x="308" y="580" on="0"/>
        <pt x="392" y="565" on="0"/>
        <pt x="453" y="518" on="0"/>
        <pt x="487" y="432" on="0"/>
        <pt x="487" y="362" on="1"/>
        <pt x="487" y="294" on="0"/>
        <pt x="449" y="203" on="0"/>
        <pt x="391" y="148" on="0"/>
        <pt x="322" y="125" on="0"/>
        <pt x="291" y="125" on="1"/>
      </contour>
      <contour>
        <pt x="170" y="495" on="1"/>
        <pt x="170" y="210" on="1"/>
        <pt x="276" y="210" on="1"/>
        <pt x="338" y="210" on="0"/>
        <pt x="391" y="287" on="0"/>
        <pt x="391" y="358" on="1"/>
        <pt x="391" y="395" on="0"/>
        <pt x="378" y="448" on="0"/>
        <pt x="348" y="480" on="0"/>
        <pt x="298" y="495" on="0"/>
        <pt x="261" y="495" on="1"/>
      </contour>
    </TTGlyph>
    <TTGlyph name="U" xMin="59" yMin="-14" xMax="558" yMax="700">
      <contour>
        <pt x="308" y="-14" on="1"/>
        <pt x="245" y="-14" on="0"/>
        <pt x="151" y="29" on="0"/>
        <pt x="89" y="110" on="0"/>
        <pt x="59" y="225" on="0"/>
        <pt x="59" y="297" on="1"/>
        <pt x="59" y="700" on="1"/>
        <pt x="153" y="700" on="1"/>
        <pt x="153" y="343" on="1"/>
        <pt x="153" y="291" on="0"/>
        <pt x="165" y="194" on="0"/>
        <pt x="198" y="118" on="0"/>
        <pt x="259" y="72" on="0"/>
        <pt x="308" y="72" on="1"/>
        <pt x="357" y="72" on="0"/>
        <pt x="419" y="118" on="0"/>
        <pt x="452" y="194" on="0"/>
        <pt x="464" y="292" on="0"/>
        <pt x="464" y="343" on="1"/>
        <pt x="464" y="700" on="1"/>
        <pt x="558" y="700" on="1"/>
        <pt x="558" y="297" on="1"/>
        <pt x="558" y="225" on="0"/>
        <pt x="528" y="110" on="0"/>
        <pt x="466" y="29" on="0"/>
        <pt x="372" y="-14" on="0"/>
      </contour>
    </TTGlyph>
    <TTGlyph name="U.sc" xMin="77" yMin="-11" xMax="507" yMax="560">
      <contour>
        <pt x="292" y="-11" on="1"/>
        <pt x="237" y="-11" on="0"/>
        <pt x="156" y="24" on="0"/>
        <pt x="103" y="90" on="0"/>
        <pt x="77" y="182" on="0"/>
        <pt x="77" y="239" on="1"/>
        <pt x="77" y="560" on="1"/>
        <pt x="168" y="560" on="1"/>
        <pt x="168" y="274" on="1"/>
        <pt x="168" y="234" on="0"/>
        <pt x="177" y="163" on="0"/>
        <pt x="204" y="109" on="0"/>
        <pt x="253" y="77" on="0"/>
        <pt x="292" y="77" on="1"/>
        <pt x="331" y="77" on="0"/>
        <pt x="379" y="109" on="0"/>
        <pt x="406" y="163" on="0"/>
        <pt x="416" y="234" on="0"/>
        <pt x="416" y="274" on="1"/>
        <pt x="416" y="560" on="1"/>
        <pt x="507" y="560" on="1"/>
        <pt x="507" y="239" on="1"/>
        <pt x="507" y="182" on="0"/>
        <pt x="481" y="90" on="0"/>
        <pt x="428" y="24" on="0"/>
        <pt x="347" y="-11" on="0"/>
      </contour>
    </TTGlyph>
    <TTGlyph name="Uacute" xMin="59" yMin="-14" xMax="558" yMax="942">
      <component glyphName="U" x="0" y="0" flags="0x204"/>
      <component glyphName="acute" x="178" y="210" flags="0x4"/>
    </TTGlyph>
    <TTGlyph name="Ucircumflex" xMin="59" yMin="-14" xMax="558" yMax="955">
      <component glyphName="U" x="0" y="0" flags="0x204"/>
      <component glyphName="circumflex" x="117" y="210" flags="0x4"/>
    </TTGlyph>
    <TTGlyph name="Udieresis" xMin="59" yMin="-14" xMax="558" yMax="910">
      <component glyphName="U" x="0" y="0" flags="0x204"/>
      <component glyphName="dieresis" x="127" y="210" flags="0x4"/>
    </TTGlyph>
    <TTGlyph name="Ugrave" xMin="59" yMin="-14" xMax="558" yMax="942">
      <component glyphName="U" x="0" y="0" flags="0x204"/>
      <component glyphName="grave" x="178" y="210" flags="0x4"/>
    </TTGlyph>
    <TTGlyph name="V" xMin="6" yMin="0" xMax="559" yMax="700">
      <contour>
        <pt x="337" y="0" on="1"/>
        <pt x="231" y="0" on="1"/>
        <pt x="6" y="700" on="1"/>
        <pt x="104" y="700" on="1"/>
        <pt x="284" y="109" on="1"/>
        <pt x="462" y="700" on="1"/>
        <pt x="559" y="700" on="1"/>
      </contour>
    </TTGlyph>
    <TTGlyph name="V.sc" xMin="28" yMin="0" xMax="511" yMax="560">
      <contour>
        <pt x="326" y="0" on="1"/>
        <pt x="217" y="0" on="1"/>
        <pt x="28" y="560" on="1"/>
        <pt x="123" y="560" on="1"/>
        <pt x="271" y="118" on="1"/>
        <pt x="417" y="560" on="1"/>
        <pt x="511" y="560" on="1"/>
      </contour>
    </TTGlyph>
    <TTGlyph name="W" xMin="9" yMin="0" xMax="823" yMax="700">
      <contour>
        <pt x="647" y="0" on="1"/>
        <pt x="554" y="0" on="1"/>
        <pt x="415" y="553" on="1"/>
        <pt x="274" y="0" on="1"/>
        <pt x="178" y="0" on="1"/>
        <pt x="9" y="700" on="1"/>
        <pt x="107" y="700" on="1"/>
        <pt x="235" y="118" on="1"/>
        <pt x="378" y="686" on="1"/>
        <pt x="454" y="686" on="1"/>
        <pt x="600" y="119" on="1"/>
        <pt x="726" y="700" on="1"/>
        <pt x="823" y="700" on="1"/>
      </contour>
    </TTGlyph>
    <TTGlyph name="W.sc" xMin="34" yMin="0" xMax="736" yMax="560">
      <contour>
        <pt x="585" y="0" on="1"/>
        <pt x="501" y="0" on="1"/>
        <pt x="385" y="404" on="1"/>
        <pt x="268" y="0" on="1"/>
        <pt x="180" y="0" on="1"/>
        <pt x="34" y="560" on="1"/>
        <pt x="129" y="560" on="1"/>
        <pt x="235" y="135" on="1"/>
        <pt x="352" y="556" on="1"/>
        <pt x="418" y="556" on="1"/>
        <pt x="540" y="142" on="1"/>
        <pt x="642" y="560" on="1"/>
        <pt x="736" y="560" on="1"/>
      </contour>
    </TTGlyph>
    <TTGlyph name="X" xMin="9" yMin="0" xMax="528" yMax="700">
      <contour>
        <pt x="425" y="0" on="1"/>
        <pt x="263" y="286" on="1"/>
        <pt x="112" y="0" on="1"/>
        <pt x="9" y="0" on="1"/>
        <pt x="215" y="349" on="1"/>
        <pt x="13" y="700" on="1"/>
        <pt x="121" y="700" on="1"/>
        <pt x="270" y="427" on="1"/>
        <pt x="420" y="700" on="1"/>
        <pt x="523" y="700" on="1"/>
        <pt x="315" y="361" on="1"/>
        <pt x="528" y="0" on="1"/>
      </contour>
    </TTGlyph>
    <TTGlyph name="X.sc" xMin="25" yMin="0" xMax="487" yMax="560">
      <contour>
        <pt x="383" y="0" on="1"/>
        <pt x="253" y="214" on="1"/>
        <pt x="128" y="0" on="1"/>
        <pt x="25" y="0" on="1"/>
        <pt x="207" y="279" on="1"/>
        <pt x="32" y="560" on="1"/>
        <pt x="137" y="560" on="1"/>
        <pt x="259" y="355" on="1"/>
        <pt x="375" y="560" on="1"/>
        <pt x="478" y="560" on="1"/>
        <pt x="305" y="290" on="1"/>
        <pt x="487" y="0" on="1"/>
      </contour>
    </TTGlyph>
    <TTGlyph name="Y" xMin="-1" yMin="0" xMax="505" yMax="700">
      <contour>
        <pt x="300" y="323" on="1"/>
        <pt x="300" y="0" on="1"/>
        <pt x="205" y="0" on="1"/>
        <pt x="205" y="323" on="1"/>
        <pt x="-1" y="700" on="1"/>
        <pt x="98" y="700" on="1"/>
        <pt x="252" y="409" on="1"/>
        <pt x="406" y="700" on="1"/>
        <pt x="505" y="700" on="1"/>
      </contour>
    </TTGlyph>
    <TTGlyph name="Y.sc" xMin="18" yMin="0" xMax="467" yMax="560">
      <contour>
        <pt x="288" y="252" on="1"/>
        <pt x="288" y="0" on="1"/>
        <pt x="197" y="0" on="1"/>
        <pt x="197" y="252" on="1"/>
        <pt x="18" y="560" on="1"/>
        <pt x="115" y="560" on="1"/>
        <pt x="243" y="335" on="1"/>
        <pt x="371" y="560" on="1"/>
        <pt x="467" y="560" on="1"/>
      </contour>
    </TTGlyph>
    <TTGlyph name="Yacute" xMin="-1" yMin="0" xMax="505" yMax="942">
      <component glyphName="Y" x="0" y="0" flags="0x204"/>
      <component glyphName="acute" x="128" y="210" flags="0x4"/>
    </TTGlyph>
    <TTGlyph name="Ydieresis" xMin="-1" yMin="0" xMax="505" yMax="910">
      <component glyphName="Y" x="0" y="0" flags="0x204"/>
      <component glyphName="dieresis" x="77" y="210" flags="0x4"/>
    </TTGlyph>
    <TTGlyph name="Z" xMin="7" yMin="0" xMax="465" yMax="700">
      <contour>
        <pt x="161" y="86" on="1"/>
        <pt x="427" y="86" on="1"/>
        <pt x="427" y="0" on="1"/>
        <pt x="7" y="0" on="1"/>
        <pt x="311" y="614" on="1"/>
        <pt x="46" y="614" on="1"/>
        <pt x="46" y="700" on="1"/>
        <pt x="465" y="700" on="1"/>
      </contour>
    </TTGlyph>
    <TTGlyph name="Z.sc" xMin="32" yMin="0" xMax="427" yMax="560">
      <contour>
        <pt x="182" y="88" on="1"/>
        <pt x="394" y="88" on="1"/>
        <pt x="394" y="0" on="1"/>
        <pt x="32" y="0" on="1"/>
        <pt x="277" y="472" on="1"/>
        <pt x="65" y="472" on="1"/>
        <pt x="65" y="560" on="1"/>
        <pt x="427" y="560" on="1"/>
      </contour>
    </TTGlyph>
    <TTGlyph name="Zcaron" xMin="7" yMin="0" xMax="465" yMax="950">
      <component glyphName="Z" x="0" y="0" flags="0x204"/>
      <component glyphName="caron" x="48" y="210" flags="0x4"/>
    </TTGlyph>
    <TTGlyph name="a" xMin="24" yMin="-10" xMax="416" yMax="500">
      <contour>
        <pt x="405" y="-10" on="1"/>
        <pt x="385" y="-10" on="1"/>
        <pt x="337" y="-10" on="0"/>
        <pt x="295" y="27" on="0"/>
        <pt x="282" y="62" on="1"/>
        <pt x="259" y="30" on="0"/>
        <pt x="192" y="-10" on="0"/>
        <pt x="152" y="-10" on="1"/>
        <pt x="95" y="-10" on="0"/>
        <pt x="24" y="70" on="0"/>
        <pt x="24" y="132" on="1"/>
        <pt x="24" y="184" on="0"/>
        <pt x="74" y="251" on="0"/>
        <pt x="149" y="290" on="0"/>
        <pt x="236" y="306" on="0"/>
        <pt x="272" y="307" on="1"/>
        <pt x="272" y="342" on="0"/>
        <pt x="261" y="386" on="0"/>
        <pt x="239" y="411" on="0"/>
        <pt x="207" y="420" on="0"/>
        <pt x="186" y="420" on="1"/>
        <pt x="160" y="420" on="0"/>
        <pt x="106" y="403" on="0"/>
        <pt x="72" y="376" on="1"/>
        <pt x="61" y="449" on="1"/>
        <pt x="93" y="472" on="0"/>
        <pt x="168" y="500" on="0"/>
        <pt x="210" y="500" on="1"/>
        <pt x="248" y="500" on="0"/>
        <pt x="305" y="476" on="0"/>
        <pt x="343" y="421" on="0"/>
        <pt x="362" y="331" on="0"/>
        <pt x="362" y="265" on="1"/>
        <pt x="362" y="165" on="1"/>
        <pt x="362" y="112" on="0"/>
        <pt x="376" y="62" on="0"/>
        <pt x="405" y="62" on="1"/>
        <pt x="416" y="62" on="1"/>
      </contour>
      <contour>
        <pt x="272" y="245" on="1"/>
        <pt x="199" y="241" on="0"/>
        <pt x="117" y="192" on="0"/>
        <pt x="117" y="137" on="1"/>
        <pt x="117" y="97" on="0"/>
        <pt x="149" y="62" on="0"/>
        <pt x="179" y="62" on="1"/>
        <pt x="203" y="62" on="0"/>
        <pt x="254" y="98" on="0"/>
        <pt x="272" y="128" on="1"/>
      </contour>
    </TTGlyph>
    <TTGlyph name="aacute" xMin="24" yMin="-10" xMax="416" yMax="732">
      <component glyphName="a" x="0" y="0" flags="0x4"/>
      <component glyphName="acute" x="83" y="0" flags="0x4"/>
    </TTGlyph>
    <TTGlyph name="acircumflex" xMin="24" yMin="-10" xMax="416" yMax="745">
      <component glyphName="a" x="0" y="0" flags="0x4"/>
      <component glyphName="circumflex" x="23" y="0" flags="0x4"/>
    </TTGlyph>
    <TTGlyph name="acute" xMin="50" yMin="596" xMax="211" yMax="732">
      <contour>
        <pt x="50" y="596" on="1"/>
        <pt x="50" y="637" on="1"/>
        <pt x="211" y="732" on="1"/>
        <pt x="211" y="660" on="1"/>
      </contour>
    </TTGlyph>
    <TTGlyph name="adieresis" xMin="24" yMin="-10" xMax="416" yMax="700">
      <component glyphName="a" x="0" y="0" flags="0x4"/>
      <component glyphName="dieresis" x="33" y="0" flags="0x4"/>
    </TTGlyph>
    <TTGlyph name="ae" xMin="17" yMin="-14" xMax="659" yMax="500">
      <contour>
        <pt x="372" y="245" on="1"/>
        <pt x="376" y="152" on="0"/>
        <pt x="452" y="62" on="0"/>
        <pt x="506" y="62" on="1"/>
        <pt x="536" y="62" on="0"/>
        <pt x="596" y="82" on="0"/>
        <pt x="628" y="99" on="1"/>
        <pt x="639" y="30" on="1"/>
        <pt x="610" y="13" on="0"/>
        <pt x="542" y="-10" on="0"/>
        <pt x="497" y="-10" on="1"/>
        <pt x="434" y="-10" on="0"/>
        <pt x="348" y="42" on="0"/>
        <pt x="325" y="103" on="1"/>
        <pt x="300" y="44" on="0"/>
        <pt x="211" y="-14" on="0"/>
        <pt x="151" y="-14" on="1"/>
        <pt x="85" y="-14" on="0"/>
        <pt x="17" y="58" on="0"/>
        <pt x="17" y="118" on="1"/>
        <pt x="17" y="175" on="0"/>
        <pt x="69" y="247" on="0"/>
        <pt x="145" y="288" on="0"/>
        <pt x="233" y="305" on="0"/>
        <pt x="269" y="307" on="1"/>
        <pt x="264" y="367" on="0"/>
        <pt x="224" y="420" on="0"/>
        <pt x="177" y="420" on="1"/>
        <pt x="149" y="420" on="0"/>
        <pt x="98" y="405" on="0"/>
        <pt x="67" y="391" on="1"/>
        <pt x="59" y="461" on="1"/>
        <pt x="134" y="500" on="0"/>
        <pt x="202" y="500" on="1"/>
        <pt x="221" y="500" on="0"/>
        <pt x="262" y="491" on="0"/>
        <pt x="300" y="465" on="0"/>
        <pt x="329" y="418" on="0"/>
        <pt x="336" y="380" on="1"/>
        <pt x="343" y="413" on="0"/>
        <pt x="375" y="459" on="0"/>
        <pt x="417" y="488" on="0"/>
        <pt x="466" y="500" on="0"/>
        <pt x="492" y="500" on="1"/>
        <pt x="567" y="500" on="0"/>
        <pt x="659" y="397" on="0"/>
        <pt x="659" y="300" on="1"/>
        <pt x="659" y="284" on="0"/>
        <pt x="656" y="257" on="0"/>
        <pt x="654" y="245" on="1"/>
      </contour>
      <contour>
        <pt x="488" y="420" on="1"/>
        <pt x="446" y="420" on="0"/>
        <pt x="388" y="367" on="0"/>
        <pt x="377" y="307" on="1"/>
        <pt x="576" y="307" on="1"/>
        <pt x="576" y="367" on="0"/>
        <pt x="533" y="420" on="0"/>
      </contour>
      <contour>
        <pt x="276" y="245" on="1"/>
        <pt x="249" y="245" on="0"/>
        <pt x="191" y="233" on="0"/>
        <pt x="142" y="205" on="0"/>
        <pt x="110" y="159" on="0"/>
        <pt x="110" y="126" on="1"/>
        <pt x="110" y="91" on="0"/>
        <pt x="145" y="62" on="0"/>
        <pt x="170" y="62" on="1"/>
        <pt x="188" y="62" on="0"/>
        <pt x="226" y="76" on="0"/>
        <pt x="257" y="108" on="0"/>
        <pt x="277" y="160" on="0"/>
        <pt x="277" y="198" on="1"/>
        <pt x="277" y="208" on="0"/>
        <pt x="277" y="231" on="0"/>
      </contour>
    </TTGlyph>
    <TTGlyph name="agrave" xMin="24" yMin="-10" xMax="416" yMax="732">
      <component glyphName="a" x="0" y="0" flags="0x4"/>
      <component glyphName="grave" x="83" y="0" flags="0x4"/>
    </TTGlyph>
    <TTGlyph name="ampersand" xMin="28" yMin="-23" xMax="520" yMax="703">
      <contour>
        <pt x="422" y="0" on="1"/>
        <pt x="389" y="46" on="1"/>
        <pt x="354" y="7" on="0"/>
        <pt x="279" y="-23" on="0"/>
        <pt x="228" y="-23" on="1"/>
        <pt x="175" y="-23" on="0"/>
        <pt x="99" y="6" on="0"/>
        <pt x="51" y="56" on="0"/>
        <pt x="28" y="124" on="0"/>
        <pt x="28" y="162" on="1"/>
        <pt x="28" y="220" on="0"/>
        <pt x="84" y="318" on="0"/>
        <pt x="135" y="366" on="1"/>
        <pt x="103" y="420" on="0"/>
        <pt x="70" y="501" on="0"/>
        <pt x="70" y="536" on="1"/>
        <pt x="70" y="575" on="0"/>
        <pt x="98" y="637" on="0"/>
        <pt x="145" y="680" on="0"/>
        <pt x="207" y="703" on="0"/>
        <pt x="241" y="703" on="1"/>
        <pt x="305" y="703" on="0"/>
        <pt x="370" y="630" on="0"/>
        <pt x="370" y="577" on="1"/>
        <pt x="370" y="541" on="0"/>
        <pt x="347" y="477" on="0"/>
        <pt x="309" y="421" on="0"/>
        <pt x="261" y="375" on="0"/>
        <pt x="237" y="356" on="1"/>
        <pt x="382" y="161" on="1"/>
        <pt x="389" y="174" on="0"/>
        <pt x="397" y="225" on="0"/>
        <pt x="402" y="282" on="0"/>
        <pt x="405" y="335" on="0"/>
        <pt x="405" y="351" on="1"/>
        <pt x="488" y="351" on="1"/>
        <pt x="488" y="329" on="0"/>
        <pt x="484" y="269" on="0"/>
        <pt x="473" y="201" on="0"/>
        <pt x="454" y="131" on="0"/>
        <pt x="438" y="100" on="1"/>
        <pt x="520" y="0" on="1"/>
      </contour>
      <contour>
        <pt x="233" y="634" on="1"/>
        <pt x="201" y="634" on="0"/>
        <pt x="155" y="585" on="0"/>
        <pt x="155" y="534" on="1"/>
        <pt x="155" y="511" on="0"/>
        <pt x="173" y="448" on="0"/>
        <pt x="199" y="406" on="1"/>
        <pt x="220" y="429" on="0"/>
        <pt x="255" y="465" on="0"/>
        <pt x="279" y="500" on="0"/>
        <pt x="293" y="536" on="0"/>
        <pt x="293" y="559" on="1"/>
        <pt x="293" y="595" on="0"/>
        <pt x="260" y="634" on="0"/>
      </contour>
      <contour>
        <pt x="177" y="313" on="1"/>
        <pt x="151" y="288" on="0"/>
        <pt x="118" y="214" on="0"/>
        <pt x="118" y="169" on="1"/>
        <pt x="118" y="143" on="0"/>
        <pt x="130" y="98" on="0"/>
        <pt x="158" y="65" on="0"/>
        <pt x="203" y="45" on="0"/>
        <pt x="235" y="45" on="1"/>
        <pt x="273" y="45" on="0"/>
        <pt x="325" y="78" on="0"/>
        <pt x="343" y="105" on="1"/>
      </contour>
    </TTGlyph>
    <TTGlyph name="aring" xMin="24" yMin="-10" xMax="416" yMax="755">
      <component glyphName="a" x="0" y="0" flags="0x4"/>
      <component glyphName="ring" x="89" y="0" flags="0x4"/>
    </TTGlyph>
    <TTGlyph name="asciicircum" xMin="42" yMin="437" xMax="396" yMax="759">
      <contour>
        <pt x="219" y="653" on="1"/>
        <pt x="42" y="437" on="1"/>
        <pt x="42" y="543" on="1"/>
        <pt x="219" y="759" on="1"/>
        <pt x="396" y="543" on="1"/>
        <pt x="396" y="437" on="1"/>
      </contour>
    </TTGlyph>
    <TTGlyph name="asciitilde" xMin="73" yMin="179" xMax="381" yMax="282">
      <contour>
        <pt x="285" y="179" on="1"/>
        <pt x="271" y="179" on="0"/>
        <pt x="241" y="195" on="0"/>
        <pt x="212" y="214" on="0"/>
        <pt x="185" y="230" on="0"/>
        <pt x="174" y="230" on="1"/>
        <pt x="151" y="230" on="0"/>
        <pt x="126" y="204" on="0"/>
        <pt x="121" y="181" on="1"/>
        <pt x="73" y="190" on="1"/>
        <pt x="77" y="215" on="0"/>
        <pt x="98" y="249" on="0"/>
        <pt x="125" y="270" on="0"/>
        <pt x="155" y="280" on="0"/>
        <pt x="169" y="280" on="1"/>
        <pt x="185" y="280" on="0"/>
        <pt x="216" y="265" on="0"/>
        <pt x="244" y="246" on="0"/>
        <pt x="270" y="231" on="0"/>
        <pt x="282" y="231" on="1"/>
        <pt x="302" y="231" on="0"/>
        <pt x="329" y="258" on="0"/>
        <pt x="337" y="282" on="1"/>
        <pt x="381" y="273" on="1"/>
        <pt x="373" y="229" on="0"/>
        <pt x="323" y="179" on="0"/>
      </contour>
    </TTGlyph>
    <TTGlyph name="asterisk" xMin="34" yMin="424" xMax="352" yMax="749">
      <contour>
        <pt x="194" y="560" on="1"/>
        <pt x="113" y="424" on="1"/>
        <pt x="73" y="456" on="1"/>
        <pt x="170" y="573" on="1"/>
        <pt x="34" y="638" on="1"/>
        <pt x="62" y="679" on="1"/>
        <pt x="184" y="593" on="1"/>
        <pt x="165" y="749" on="1"/>
        <pt x="222" y="749" on="1"/>
        <pt x="201" y="593" on="1"/>
        <pt x="324" y="679" on="1"/>
        <pt x="352" y="637" on="1"/>
        <pt x="216" y="574" on="1"/>
        <pt x="316" y="459" on="1"/>
        <pt x="275" y="427" on="1"/>
      </contour>
    </TTGlyph>
    <TTGlyph name="at" xMin="35" yMin="-87" xMax="573" yMax="553">
      <contour>
        <pt x="462" y="379" on="1"/>
        <pt x="445" y="399" on="0"/>
        <pt x="393" y="432" on="0"/>
        <pt x="358" y="432" on="1"/>
        <pt x="317" y="432" on="0"/>
        <pt x="239" y="383" on="0"/>
        <pt x="176" y="304" on="0"/>
        <pt x="138" y="204" on="0"/>
        <pt x="138" y="153" on="1"/>
        <pt x="138" y="131" on="0"/>
        <pt x="146" y="90" on="0"/>
        <pt x="165" y="59" on="0"/>
        <pt x="195" y="40" on="0"/>
        <pt x="216" y="40" on="1"/>
        <pt x="235" y="40" on="0"/>
        <pt x="277" y="55" on="0"/>
        <pt x="319" y="85" on="0"/>
        <pt x="357" y="128" on="0"/>
        <pt x="371" y="156" on="1"/>
        <pt x="371" y="151" on="0"/>
        <pt x="369" y="132" on="0"/>
        <pt x="369" y="121" on="1"/>
        <pt x="369" y="109" on="0"/>
        <pt x="374" y="81" on="0"/>
        <pt x="385" y="58" on="0"/>
        <pt x="404" y="42" on="0"/>
        <pt x="419" y="42" on="1"/>
        <pt x="431" y="42" on="0"/>
        <pt x="461" y="53" on="0"/>
        <pt x="491" y="71" on="0"/>
        <pt x="520" y="94" on="0"/>
        <pt x="530" y="106" on="1"/>
        <pt x="510" y="63" on="0"/>
        <pt x="450" y="-8" on="0"/>
        <pt x="377" y="-59" on="0"/>
        <pt x="293" y="-87" on="0"/>
        <pt x="248" y="-87" on="1"/>
        <pt x="150" y="-87" on="0"/>
        <pt x="35" y="48" on="0"/>
        <pt x="35" y="170" on="1"/>
        <pt x="35" y="252" on="0"/>
        <pt x="88" y="392" on="0"/>
        <pt x="177" y="495" on="0"/>
        <pt x="294" y="553" on="0"/>
        <pt x="359" y="553" on="1"/>
        <pt x="410" y="553" on="0"/>
        <pt x="489" y="517" on="0"/>
        <pt x="544" y="451" on="0"/>
        <pt x="573" y="358" on="0"/>
        <pt x="573" y="300" on="1"/>
        <pt x="573" y="262" on="0"/>
        <pt x="560" y="188" on="0"/>
        <pt x="531" y="130" on="0"/>
        <pt x="484" y="94" on="0"/>
        <pt x="451" y="94" on="1"/>
        <pt x="435" y="94" on="0"/>
        <pt x="414" y="111" on="0"/>
        <pt x="414" y="145" on="1"/>
        <pt x="414" y="189" on="0"/>
        <pt x="445" y="299" on="0"/>
      </contour>
      <contour>
        <pt x="365" y="371" on="1"/>
        <pt x="373" y="371" on="0"/>
        <pt x="399" y="365" on="0"/>
        <pt x="404" y="349" on="1"/>
        <pt x="398" y="309" on="0"/>
        <pt x="363" y="223" on="0"/>
        <pt x="317" y="152" on="0"/>
        <pt x="266" y="106" on="0"/>
        <pt x="245" y="106" on="1"/>
        <pt x="225" y="106" on="0"/>
        <pt x="207" y="144" on="0"/>
        <pt x="207" y="173" on="1"/>
        <pt x="207" y="214" on="0"/>
        <pt x="239" y="286" on="0"/>
        <pt x="286" y="340" on="0"/>
        <pt x="341" y="371" on="0"/>
      </contour>
    </TTGlyph>
    <TTGlyph name="atilde" xMin="24" yMin="-10" xMax="416" yMax="702">
      <component glyphName="a" x="0" y="0" flags="0x4"/>
      <component glyphName="tilde" x="-15" y="0" flags="0x4"/>
    </TTGlyph>
    <TTGlyph name="b" xMin="50" yMin="-10" xMax="456" yMax="750">
      <contour>
        <pt x="257" y="-10" on="1"/>
        <pt x="225" y="-10" on="0"/>
        <pt x="161" y="26" on="0"/>
        <pt x="137" y="62" on="1"/>
        <pt x="132" y="0" on="1"/>
        <pt x="50" y="0" on="1"/>
        <pt x="50" y="750" on="1"/>
        <pt x="140" y="750" on="1"/>
        <pt x="140" y="437" on="1"/>
        <pt x="164" y="475" on="0"/>
        <pt x="227" y="500" on="0"/>
        <pt x="258" y="500" on="1"/>
        <pt x="305" y="500" on="0"/>
        <pt x="379" y="458" on="0"/>
        <pt x="430" y="387" on="0"/>
        <pt x="456" y="295" on="0"/>
        <pt x="456" y="245" on="1"/>
        <pt x="456" y="191" on="0"/>
        <pt x="428" y="98" on="0"/>
        <pt x="375" y="29" on="0"/>
        <pt x="302" y="-10" on="0"/>
      </contour>
      <contour>
        <pt x="249" y="420" on="1"/>
        <pt x="201" y="420" on="0"/>
        <pt x="135" y="334" on="0"/>
        <pt x="135" y="245" on="1"/>
        <pt x="135" y="153" on="0"/>
        <pt x="201" y="70" on="0"/>
        <pt x="249" y="70" on="1"/>
        <pt x="276" y="70" on="0"/>
        <pt x="319" y="98" on="0"/>
        <pt x="349" y="145" on="0"/>
        <pt x="365" y="209" on="0"/>
        <pt x="365" y="245" on="1"/>
        <pt x="365" y="282" on="0"/>
        <pt x="349" y="347" on="0"/>
        <pt x="319" y="393" on="0"/>
        <pt x="276" y="420" on="0"/>
      </contour>
    </TTGlyph>
    <TTGlyph name="backslash" xMin="35" yMin="-85" xMax="450" yMax="700">
      <contour>
        <pt x="355" y="-85" on="1"/>
        <pt x="35" y="700" on="1"/>
        <pt x="130" y="700" on="1"/>
        <pt x="450" y="-85" on="1"/>
      </contour>
    </TTGlyph>
    <TTGlyph name="bar" xMin="55" yMin="-209" xMax="135" yMax="750">
      <contour>
        <pt x="55" y="-209" on="1"/>
        <pt x="55" y="750" on="1"/>
        <pt x="135" y="750" on="1"/>
        <pt x="135" y="-209" on="1"/>
      </contour>
    </TTGlyph>
    <TTGlyph name="braceleft" xMin="19" yMin="-135" xMax="263" yMax="750">
      <contour>
        <pt x="78" y="14" on="1"/>
        <pt x="78" y="44" on="0"/>
        <pt x="85" y="123" on="0"/>
        <pt x="85" y="159" on="1"/>
        <pt x="85" y="210" on="0"/>
        <pt x="57" y="281" on="0"/>
        <pt x="19" y="307" on="1"/>
        <pt x="54" y="333" on="0"/>
        <pt x="85" y="401" on="0"/>
        <pt x="85" y="456" on="1"/>
        <pt x="85" y="491" on="0"/>
        <pt x="78" y="570" on="0"/>
        <pt x="78" y="600" on="1"/>
        <pt x="78" y="634" on="0"/>
        <pt x="96" y="688" on="0"/>
        <pt x="140" y="726" on="0"/>
        <pt x="210" y="748" on="0"/>
        <pt x="263" y="750" on="1"/>
        <pt x="263" y="681" on="1"/>
        <pt x="222" y="679" on="0"/>
        <pt x="176" y="662" on="0"/>
        <pt x="154" y="623" on="0"/>
        <pt x="150" y="558" on="0"/>
        <pt x="150" y="510" on="1"/>
        <pt x="150" y="490" on="0"/>
        <pt x="152" y="445" on="0"/>
        <pt x="152" y="424" on="1"/>
        <pt x="152" y="408" on="0"/>
        <pt x="148" y="379" on="0"/>
        <pt x="136" y="351" on="0"/>
        <pt x="112" y="323" on="0"/>
        <pt x="92" y="307" on="1"/>
        <pt x="112" y="292" on="0"/>
        <pt x="136" y="265" on="0"/>
        <pt x="148" y="240" on="0"/>
        <pt x="152" y="214" on="0"/>
        <pt x="152" y="199" on="1"/>
        <pt x="152" y="177" on="0"/>
        <pt x="150" y="131" on="0"/>
        <pt x="150" y="105" on="1"/>
        <pt x="150" y="57" on="0"/>
        <pt x="154" y="-8" on="0"/>
        <pt x="176" y="-47" on="0"/>
        <pt x="222" y="-65" on="0"/>
        <pt x="263" y="-66" on="1"/>
        <pt x="263" y="-135" on="1"/>
        <pt x="161" y="-131" on="0"/>
        <pt x="78" y="-56" on="0"/>
      </contour>
    </TTGlyph>
    <TTGlyph name="braceright" xMin="19" yMin="-135" xMax="263" yMax="750">
      <contour>
        <pt x="204" y="14" on="1"/>
        <pt x="204" y="-56" on="0"/>
        <pt x="121" y="-131" on="0"/>
        <pt x="19" y="-135" on="1"/>
        <pt x="19" y="-66" on="1"/>
        <pt x="60" y="-65" on="0"/>
        <pt x="106" y="-47" on="0"/>
        <pt x="128" y="-8" on="0"/>
        <pt x="133" y="57" on="0"/>
        <pt x="133" y="105" on="1"/>
        <pt x="133" y="131" on="0"/>
        <pt x="130" y="177" on="0"/>
        <pt x="130" y="199" on="1"/>
        <pt x="130" y="214" on="0"/>
        <pt x="134" y="240" on="0"/>
        <pt x="146" y="265" on="0"/>
        <pt x="170" y="292" on="0"/>
        <pt x="190" y="307" on="1"/>
        <pt x="170" y="323" on="0"/>
        <pt x="146" y="351" on="0"/>
        <pt x="134" y="379" on="0"/>
        <pt x="130" y="408" on="0"/>
        <pt x="130" y="424" on="1"/>
        <pt x="130" y="445" on="0"/>
        <pt x="133" y="490" on="0"/>
        <pt x="133" y="510" on="1"/>
        <pt x="133" y="558" on="0"/>
        <pt x="128" y="623" on="0"/>
        <pt x="106" y="662" on="0"/>
        <pt x="60" y="679" on="0"/>
        <pt x="19" y="681" on="1"/>
        <pt x="19" y="750" on="1"/>
        <pt x="72" y="748" on="0"/>
        <pt x="143" y="726" on="0"/>
        <pt x="186" y="688" on="0"/>
        <pt x="204" y="634" on="0"/>
        <pt x="204" y="600" on="1"/>
        <pt x="204" y="570" on="0"/>
        <pt x="198" y="491" on="0"/>
        <pt x="198" y="456" on="1"/>
        <pt x="198" y="401" on="0"/>
        <pt x="228" y="333" on="0"/>
        <pt x="263" y="307" on="1"/>
        <pt x="225" y="281" on="0"/>
        <pt x="198" y="210" on="0"/>
        <pt x="198" y="159" on="1"/>
        <pt x="198" y="123" on="0"/>
        <pt x="204" y="44" on="0"/>
      </contour>
    </TTGlyph>
    <TTGlyph name="bracketleft" xMin="58" yMin="-135" xMax="279" yMax="750">
      <contour>
        <pt x="58" y="-135" on="1"/>
        <pt x="58" y="750" on="1"/>
        <pt x="279" y="750" on="1"/>
        <pt x="279" y="682" on="1"/>
        <pt x="140" y="682" on="1"/>
        <pt x="140" y="-67" on="1"/>
        <pt x="279" y="-67" on="1"/>
        <pt x="279" y="-135" on="1"/>
      </contour>
    </TTGlyph>
    <TTGlyph name="bracketright" xMin="9" yMin="-135" xMax="230" yMax="750">
      <contour>
        <pt x="9" y="-135" on="1"/>
        <pt x="9" y="-67" on="1"/>
        <pt x="148" y="-67" on="1"/>
        <pt x="148" y="682" on="1"/>
        <pt x="9" y="682" on="1"/>
        <pt x="9" y="750" on="1"/>
        <pt x="230" y="750" on="1"/>
        <pt x="230" y="-135" on="1"/>
      </contour>
    </TTGlyph>
    <TTGlyph name="brokenbar" xMin="58" yMin="-210" xMax="134" yMax="750">
      <contour>
        <pt x="58" y="308" on="1"/>
        <pt x="58" y="750" on="1"/>
        <pt x="134" y="750" on="1"/>
        <pt x="134" y="308" on="1"/>
      </contour>
      <contour>
        <pt x="58" y="-210" on="1"/>
        <pt x="58" y="163" on="1"/>
        <pt x="134" y="163" on="1"/>
        <pt x="134" y="-210" on="1"/>
      </contour>
    </TTGlyph>
    <TTGlyph name="bullet" xMin="34" yMin="169" xMax="221" yMax="387">
      <contour>
        <pt x="128" y="169" on="1"/>
        <pt x="108" y="169" on="0"/>
        <pt x="74" y="186" on="0"/>
        <pt x="49" y="216" on="0"/>
        <pt x="34" y="255" on="0"/>
        <pt x="34" y="278" on="1"/>
        <pt x="34" y="300" on="0"/>
        <pt x="49" y="340" on="0"/>
        <pt x="74" y="370" on="0"/>
        <pt x="108" y="387" on="0"/>
        <pt x="128" y="387" on="1"/>
        <pt x="147" y="387" on="0"/>
        <pt x="181" y="370" on="0"/>
        <pt x="206" y="340" on="0"/>
        <pt x="221" y="300" on="0"/>
        <pt x="221" y="278" on="1"/>
        <pt x="221" y="255" on="0"/>
        <pt x="206" y="216" on="0"/>
        <pt x="181" y="186" on="0"/>
        <pt x="147" y="169" on="0"/>
      </contour>
    </TTGlyph>
    <TTGlyph name="c" xMin="24" yMin="-10" xMax="362" yMax="500">
      <contour>
        <pt x="233" y="-10" on="1"/>
        <pt x="181" y="-10" on="0"/>
        <pt x="103" y="31" on="0"/>
        <pt x="50" y="102" on="0"/>
        <pt x="24" y="195" on="0"/>
        <pt x="24" y="246" on="1"/>
        <pt x="24" y="300" on="0"/>
        <pt x="50" y="392" on="0"/>
        <pt x="103" y="461" on="0"/>
        <pt x="181" y="500" on="0"/>
        <pt x="233" y="500" on="1"/>
        <pt x="283" y="500" on="0"/>
        <pt x="342" y="483" on="0"/>
        <pt x="362" y="471" on="1"/>
        <pt x="352" y="390" on="1"/>
        <pt x="326" y="404" on="0"/>
        <pt x="272" y="420" on="0"/>
        <pt x="242" y="420" on="1"/>
        <pt x="179" y="420" on="0"/>
        <pt x="116" y="328" on="0"/>
        <pt x="116" y="246" on="1"/>
        <pt x="116" y="165" on="0"/>
        <pt x="179" y="69" on="0"/>
        <pt x="242" y="69" on="1"/>
        <pt x="272" y="69" on="0"/>
        <pt x="326" y="85" on="0"/>
        <pt x="352" y="99" on="1"/>
        <pt x="362" y="27" on="1"/>
        <pt x="342" y="13" on="0"/>
        <pt x="285" y="-10" on="0"/>
      </contour>
    </TTGlyph>
    <TTGlyph name="caron" xMin="65" yMin="600" xMax="318" yMax="740">
      <contour>
        <pt x="191" y="600" on="1"/>
        <pt x="65" y="699" on="1"/>
        <pt x="65" y="740" on="1"/>
        <pt x="191" y="664" on="1"/>
        <pt x="318" y="740" on="1"/>
        <pt x="318" y="699" on="1"/>
      </contour>
    </TTGlyph>
    <TTGlyph name="ccaron" xMin="24" yMin="-10" xMax="362" yMax="740">
      <component glyphName="c" x="0" y="0" flags="0x204"/>
      <component glyphName="caron" x="0" y="0" flags="0x4"/>
    </TTGlyph>
    <TTGlyph name="ccedilla" xMin="24" yMin="-192" xMax="362" yMax="500">
      <component glyphName="c" x="0" y="0" flags="0x204"/>
      <component glyphName="cedilla" x="35" y="0" flags="0x4"/>
    </TTGlyph>
    <TTGlyph name="cedilla" xMin="118" yMin="-192" xMax="248" yMax="-54">
      <contour>
        <pt x="168" y="-187" on="1"/>
        <pt x="118" y="-192" on="1"/>
        <pt x="177" y="-60" on="1"/>
        <pt x="248" y="-54" on="1"/>
      </contour>
    </TTGlyph>
    <TTGlyph name="cent" xMin="29" yMin="-31" xMax="366" yMax="748">
      <contour>
        <pt x="276" y="-31" on="1"/>
        <pt x="192" y="-31" on="1"/>
        <pt x="207" y="89" on="1"/>
        <pt x="166" y="95" on="0"/>
        <pt x="101" y="137" on="0"/>
        <pt x="54" y="203" on="0"/>
        <pt x="29" y="292" on="0"/>
        <pt x="29" y="346" on="1"/>
        <pt x="29" y="395" on="0"/>
        <pt x="52" y="484" on="0"/>
        <pt x="97" y="553" on="0"/>
        <pt x="164" y="599" on="0"/>
        <pt x="207" y="606" on="1"/>
        <pt x="192" y="748" on="1"/>
        <pt x="276" y="748" on="1"/>
        <pt x="262" y="608" on="1"/>
        <pt x="300" y="605" on="0"/>
        <pt x="347" y="590" on="0"/>
        <pt x="366" y="576" on="1"/>
        <pt x="359" y="498" on="1"/>
        <pt x="333" y="514" on="0"/>
        <pt x="279" y="531" on="0"/>
        <pt x="252" y="531" on="1"/>
        <pt x="220" y="531" on="0"/>
        <pt x="171" y="502" on="0"/>
        <pt x="139" y="452" on="0"/>
        <pt x="123" y="385" on="0"/>
        <pt x="123" y="347" on="1"/>
        <pt x="123" y="265" on="0"/>
        <pt x="190" y="165" on="0"/>
        <pt x="253" y="165" on="1"/>
        <pt x="306" y="165" on="0"/>
        <pt x="359" y="197" on="1"/>
        <pt x="366" y="119" on="1"/>
        <pt x="350" y="108" on="0"/>
        <pt x="307" y="90" on="0"/>
        <pt x="268" y="87" on="1"/>
      </contour>
    </TTGlyph>
    <TTGlyph name="circumflex" xMin="65" yMin="603" xMax="318" yMax="745">
      <contour>
        <pt x="191" y="685" on="1"/>
        <pt x="65" y="603" on="1"/>
        <pt x="65" y="639" on="1"/>
        <pt x="191" y="745" on="1"/>
        <pt x="318" y="639" on="1"/>
        <pt x="318" y="603" on="1"/>
      </contour>
    </TTGlyph>
    <TTGlyph name="colon" xMin="68" yMin="0" xMax="158" yMax="440">
      <contour>
        <pt x="68" y="354" on="1"/>
        <pt x="68" y="440" on="1"/>
        <pt x="158" y="440" on="1"/>
        <pt x="158" y="354" on="1"/>
      </contour>
      <contour>
        <pt x="68" y="0" on="1"/>
        <pt x="68" y="86" on="1"/>
        <pt x="158" y="86" on="1"/>
        <pt x="158" y="0" on="1"/>
      </contour>
    </TTGlyph>
    <TTGlyph name="comma" xMin="54" yMin="-109" xMax="149" yMax="86">
      <contour>
        <pt x="75" y="-109" on="1"/>
        <pt x="54" y="-96" on="1"/>
        <pt x="83" y="-9" on="1"/>
        <pt x="55" y="0" on="1"/>
        <pt x="55" y="86" on="1"/>
        <pt x="149" y="86" on="1"/>
        <pt x="149" y="0" on="1"/>
      </contour>
    </TTGlyph>
    <TTGlyph name="copyright" xMin="34" yMin="37" xMax="568" yMax="693">
      <contour>
        <pt x="301" y="37" on="1"/>
        <pt x="243" y="37" on="0"/>
        <pt x="145" y="84" on="0"/>
        <pt x="74" y="170" on="0"/>
        <pt x="34" y="291" on="0"/>
        <pt x="34" y="365" on="1"/>
        <pt x="34" y="440" on="0"/>
        <pt x="74" y="561" on="0"/>
        <pt x="145" y="646" on="0"/>
        <pt x="243" y="693" on="0"/>
        <pt x="301" y="693" on="1"/>
        <pt x="359" y="693" on="0"/>
        <pt x="457" y="646" on="0"/>
        <pt x="528" y="561" on="0"/>
        <pt x="568" y="440" on="0"/>
        <pt x="568" y="365" on="1"/>
        <pt x="568" y="291" on="0"/>
        <pt x="528" y="170" on="0"/>
        <pt x="457" y="84" on="0"/>
        <pt x="359" y="37" on="0"/>
      </contour>
      <contour>
        <pt x="301" y="648" on="1"/>
        <pt x="247" y="648" on="0"/>
        <pt x="167" y="605" on="0"/>
        <pt x="114" y="528" on="0"/>
        <pt x="88" y="425" on="0"/>
        <pt x="88" y="365" on="1"/>
        <pt x="88" y="305" on="0"/>
        <pt x="114" y="201" on="0"/>
        <pt x="167" y="125" on="0"/>
        <pt x="247" y="81" on="0"/>
        <pt x="301" y="81" on="1"/>
        <pt x="355" y="81" on="0"/>
        <pt x="435" y="125" on="0"/>
        <pt x="488" y="201" on="0"/>
        <pt x="514" y="305" on="0"/>
        <pt x="514" y="365" on="1"/>
        <pt x="514" y="425" on="0"/>
        <pt x="488" y="528" on="0"/>
        <pt x="435" y="605" on="0"/>
        <pt x="355" y="648" on="0"/>
      </contour>
      <contour>
        <pt x="309" y="197" on="1"/>
        <pt x="279" y="197" on="0"/>
        <pt x="228" y="220" on="0"/>
        <pt x="192" y="264" on="0"/>
        <pt x="171" y="325" on="0"/>
        <pt x="171" y="363" on="1"/>
        <pt x="171" y="440" on="0"/>
        <pt x="248" y="530" on="0"/>
        <pt x="309" y="530" on="1"/>
        <pt x="330" y="530" on="0"/>
        <pt x="374" y="519" on="0"/>
        <pt x="391" y="511" on="1"/>
        <pt x="383" y="451" on="1"/>
        <pt x="365" y="459" on="0"/>
        <pt x="329" y="470" on="0"/>
        <pt x="309" y="470" on="1"/>
        <pt x="273" y="470" on="0"/>
        <pt x="237" y="410" on="0"/>
        <pt x="237" y="363" on="1"/>
        <pt x="237" y="318" on="0"/>
        <pt x="273" y="256" on="0"/>
        <pt x="309" y="256" on="1"/>
        <pt x="329" y="256" on="0"/>
        <pt x="365" y="267" on="0"/>
        <pt x="383" y="276" on="1"/>
        <pt x="391" y="217" on="1"/>
        <pt x="374" y="207" on="0"/>
        <pt x="330" y="197" on="0"/>
      </contour>
    </TTGlyph>
    <TTGlyph name="currency" xMin="43" yMin="29" xMax="480" yMax="667">
      <contour>
        <pt x="444" y="29" on="1"/>
        <pt x="378" y="132" on="1"/>
        <pt x="349" y="111" on="0"/>
        <pt x="293" y="94" on="0"/>
        <pt x="261" y="94" on="1"/>
        <pt x="229" y="94" on="0"/>
        <pt x="174" y="111" on="0"/>
        <pt x="145" y="132" on="1"/>
        <pt x="79" y="29" on="1"/>
        <pt x="43" y="53" on="1"/>
        <pt x="107" y="155" on="1"/>
        <pt x="75" y="200" on="0"/>
        <pt x="44" y="295" on="0"/>
        <pt x="44" y="348" on="1"/>
        <pt x="44" y="401" on="0"/>
        <pt x="75" y="496" on="0"/>
        <pt x="108" y="541" on="1"/>
        <pt x="43" y="643" on="1"/>
        <pt x="79" y="667" on="1"/>
        <pt x="144" y="564" on="1"/>
        <pt x="173" y="584" on="0"/>
        <pt x="229" y="602" on="0"/>
        <pt x="261" y="602" on="1"/>
        <pt x="293" y="602" on="0"/>
        <pt x="349" y="584" on="0"/>
        <pt x="378" y="563" on="1"/>
        <pt x="445" y="667" on="1"/>
        <pt x="480" y="643" on="1"/>
        <pt x="415" y="540" on="1"/>
        <pt x="448" y="495" on="0"/>
        <pt x="478" y="400" on="0"/>
        <pt x="478" y="348" on="1"/>
        <pt x="478" y="295" on="0"/>
        <pt x="447" y="199" on="0"/>
        <pt x="414" y="154" on="1"/>
        <pt x="480" y="53" on="1"/>
      </contour>
      <contour>
        <pt x="261" y="540" on="1"/>
        <pt x="230" y="540" on="0"/>
        <pt x="183" y="510" on="0"/>
        <pt x="151" y="458" on="0"/>
        <pt x="135" y="388" on="0"/>
        <pt x="135" y="348" on="1"/>
        <pt x="135" y="308" on="0"/>
        <pt x="151" y="238" on="0"/>
        <pt x="183" y="186" on="0"/>
        <pt x="230" y="156" on="0"/>
        <pt x="261" y="156" on="1"/>
        <pt x="292" y="156" on="0"/>
        <pt x="339" y="186" on="0"/>
        <pt x="371" y="238" on="0"/>
        <pt x="388" y="308" on="0"/>
        <pt x="388" y="348" on="1"/>
        <pt x="388" y="388" on="0"/>
        <pt x="371" y="458" on="0"/>
        <pt x="339" y="510" on="0"/>
        <pt x="292" y="540" on="0"/>
      </contour>
    </TTGlyph>
    <TTGlyph name="d" xMin="31" yMin="-10" xMax="437" yMax="750">
      <contour>
        <pt x="355" y="0" on="1"/>
        <pt x="350" y="62" on="1"/>
        <pt x="327" y="26" on="0"/>
        <pt x="262" y="-10" on="0"/>
        <pt x="231" y="-10" on="1"/>
        <pt x="186" y="-10" on="0"/>
        <pt x="112" y="29" on="0"/>
        <pt x="60" y="98" on="0"/>
        <pt x="31" y="191" on="0"/>
        <pt x="31" y="245" on="1"/>
        <pt x="31" y="295" on="0"/>
        <pt x="58" y="387" on="0"/>
        <pt x="109" y="458" on="0"/>
        <pt x="184" y="500" on="0"/>
        <pt x="231" y="500" on="1"/>
        <pt x="261" y="500" on="0"/>
        <pt x="323" y="476" on="0"/>
        <pt x="348" y="438" on="1"/>
        <pt x="348" y="750" on="1"/>
        <pt x="437" y="750" on="1"/>
        <pt x="437" y="0" on="1"/>
      </contour>
      <contour>
        <pt x="237" y="420" on="1"/>
        <pt x="210" y="420" on="0"/>
        <pt x="168" y="393" on="0"/>
        <pt x="138" y="347" on="0"/>
        <pt x="123" y="282" on="0"/>
        <pt x="123" y="245" on="1"/>
        <pt x="123" y="209" on="0"/>
        <pt x="138" y="145" on="0"/>
        <pt x="168" y="98" on="0"/>
        <pt x="210" y="70" on="0"/>
        <pt x="237" y="70" on="1"/>
        <pt x="261" y="70" on="0"/>
        <pt x="304" y="89" on="0"/>
        <pt x="336" y="131" on="0"/>
        <pt x="355" y="196" on="0"/>
        <pt x="355" y="242" on="1"/>
        <pt x="355" y="331" on="0"/>
        <pt x="286" y="420" on="0"/>
      </contour>
    </TTGlyph>
    <TTGlyph name="dagger" xMin="31" yMin="0" xMax="335" yMax="607">
      <contour>
        <pt x="209" y="403" on="1"/>
        <pt x="240" y="252" on="1"/>
        <pt x="214" y="0" on="1"/>
        <pt x="153" y="0" on="1"/>
        <pt x="126" y="252" on="1"/>
        <pt x="157" y="403" on="1"/>
        <pt x="31" y="373" on="1"/>
        <pt x="31" y="458" on="1"/>
        <pt x="156" y="427" on="1"/>
        <pt x="129" y="607" on="1"/>
        <pt x="238" y="607" on="1"/>
        <pt x="210" y="427" on="1"/>
        <pt x="335" y="458" on="1"/>
        <pt x="335" y="373" on="1"/>
      </contour>
    </TTGlyph>
    <TTGlyph name="daggerdbl" xMin="41" yMin="-59" xMax="345" yMax="607">
      <contour>
        <pt x="220" y="118" on="1"/>
        <pt x="248" y="-59" on="1"/>
        <pt x="139" y="-59" on="1"/>
        <pt x="166" y="118" on="1"/>
        <pt x="41" y="88" on="1"/>
        <pt x="41" y="172" on="1"/>
        <pt x="168" y="142" on="1"/>
        <pt x="136" y="274" on="1"/>
        <pt x="168" y="407" on="1"/>
        <pt x="41" y="377" on="1"/>
        <pt x="41" y="461" on="1"/>
        <pt x="166" y="431" on="1"/>
        <pt x="139" y="607" on="1"/>
        <pt x="248" y="607" on="1"/>
        <pt x="220" y="431" on="1"/>
        <pt x="345" y="461" on="1"/>
        <pt x="345" y="377" on="1"/>
        <pt x="218" y="407" on="1"/>
        <pt x="250" y="274" on="1"/>
        <pt x="218" y="142" on="1"/>
        <pt x="345" y="172" on="1"/>
        <pt x="345" y="88" on="1"/>
      </contour>
    </TTGlyph>
    <TTGlyph name="degree" xMin="26" yMin="482" xMax="254" yMax="755">
      <contour>
        <pt x="140" y="482" on="1"/>
        <pt x="113" y="482" on="0"/>
        <pt x="71" y="503" on="0"/>
        <pt x="41" y="540" on="0"/>
        <pt x="26" y="589" on="0"/>
        <pt x="26" y="618" on="1"/>
        <pt x="26" y="646" on="0"/>
        <pt x="41" y="696" on="0"/>
        <pt x="71" y="734" on="0"/>
        <pt x="113" y="755" on="0"/>
        <pt x="140" y="755" on="1"/>
        <pt x="167" y="755" on="0"/>
        <pt x="209" y="734" on="0"/>
        <pt x="239" y="696" on="0"/>
        <pt x="254" y="646" on="0"/>
        <pt x="254" y="618" on="1"/>
        <pt x="254" y="589" on="0"/>
        <pt x="239" y="540" on="0"/>
        <pt x="209" y="503" on="0"/>
        <pt x="167" y="482" on="0"/>
      </contour>
      <contour>
        <pt x="140" y="729" on="1"/>
        <pt x="123" y="729" on="0"/>
        <pt x="98" y="710" on="0"/>
        <pt x="81" y="678" on="0"/>
        <pt x="72" y="639" on="0"/>
        <pt x="72" y="618" on="1"/>
        <pt x="72" y="597" on="0"/>
        <pt x="81" y="557" on="0"/>
        <pt x="99" y="527" on="0"/>
        <pt x="124" y="508" on="0"/>
        <pt x="140" y="508" on="1"/>
        <pt x="157" y="508" on="0"/>
        <pt x="182" y="527" on="0"/>
        <pt x="199" y="558" on="0"/>
        <pt x="207" y="597" on="0"/>
        <pt x="208" y="618" on="1"/>
        <pt x="207" y="638" on="0"/>
        <pt x="199" y="678" on="0"/>
        <pt x="182" y="709" on="0"/>
        <pt x="157" y="729" on="0"/>
      </contour>
    </TTGlyph>
    <TTGlyph name="dieresis" xMin="75" yMin="600" xMax="288" yMax="700">
      <contour>
        <pt x="218" y="600" on="1"/>
        <pt x="218" y="700" on="1"/>
        <pt x="288" y="700" on="1"/>
        <pt x="288" y="600" on="1"/>
      </contour>
      <contour>
        <pt x="75" y="600" on="1"/>
        <pt x="75" y="700" on="1"/>
        <pt x="145" y="700" on="1"/>
        <pt x="145" y="600" on="1"/>
      </contour>
    </TTGlyph>
    <TTGlyph name="divide" xMin="38" yMin="20" xMax="434" yMax="534">
      <contour>
        <pt x="188" y="440" on="1"/>
        <pt x="188" y="534" on="1"/>
        <pt x="277" y="534" on="1"/>
        <pt x="277" y="440" on="1"/>
      </contour>
      <contour>
        <pt x="38" y="245" on="1"/>
        <pt x="38" y="319" on="1"/>
        <pt x="434" y="319" on="1"/>
        <pt x="434" y="245" on="1"/>
      </contour>
      <contour>
        <pt x="188" y="20" on="1"/>
        <pt x="188" y="114" on="1"/>
        <pt x="277" y="114" on="1"/>
        <pt x="277" y="20" on="1"/>
      </contour>
    </TTGlyph>
    <TTGlyph name="dollar" xMin="32" yMin="-32" xMax="412" yMax="748">
      <contour>
        <pt x="260" y="-32" on="1"/>
        <pt x="177" y="-32" on="1"/>
        <pt x="191" y="81" on="1"/>
        <pt x="139" y="84" on="0"/>
        <pt x="60" y="106" on="0"/>
        <pt x="40" y="119" on="1"/>
        <pt x="52" y="228" on="1"/>
        <pt x="75" y="205" on="0"/>
        <pt x="157" y="170" on="0"/>
        <pt x="213" y="170" on="1"/>
        <pt x="255" y="170" on="0"/>
        <pt x="304" y="196" on="0"/>
        <pt x="304" y="233" on="1"/>
        <pt x="304" y="262" on="0"/>
        <pt x="264" y="298" on="0"/>
        <pt x="203" y="324" on="0"/>
        <pt x="133" y="348" on="0"/>
        <pt x="72" y="382" on="0"/>
        <pt x="32" y="434" on="0"/>
        <pt x="32" y="476" on="1"/>
        <pt x="32" y="500" on="0"/>
        <pt x="48" y="551" on="0"/>
        <pt x="85" y="594" on="0"/>
        <pt x="146" y="626" on="0"/>
        <pt x="191" y="631" on="1"/>
        <pt x="177" y="748" on="1"/>
        <pt x="260" y="748" on="1"/>
        <pt x="246" y="631" on="1"/>
        <pt x="291" y="628" on="0"/>
        <pt x="366" y="606" on="0"/>
        <pt x="384" y="594" on="1"/>
        <pt x="376" y="498" on="1"/>
        <pt x="340" y="518" on="0"/>
        <pt x="262" y="546" on="0"/>
        <pt x="230" y="546" on="1"/>
        <pt x="212" y="546" on="0"/>
        <pt x="176" y="541" on="0"/>
        <pt x="147" y="527" on="0"/>
        <pt x="129" y="505" on="0"/>
        <pt x="129" y="488" on="1"/>
        <pt x="129" y="461" on="0"/>
        <pt x="171" y="429" on="0"/>
        <pt x="234" y="406" on="0"/>
        <pt x="307" y="383" on="0"/>
        <pt x="370" y="344" on="0"/>
        <pt x="412" y="283" on="0"/>
        <pt x="412" y="234" on="1"/>
        <pt x="412" y="214" on="0"/>
        <pt x="400" y="165" on="0"/>
        <pt x="364" y="121" on="0"/>
        <pt x="299" y="87" on="0"/>
        <pt x="246" y="82" on="1"/>
      </contour>
    </TTGlyph>
    <TTGlyph name="dotlessi" xMin="58" yMin="0" xMax="148" yMax="490">
      <contour>
        <pt x="58" y="0" on="1"/>
        <pt x="58" y="490" on="1"/>
        <pt x="148" y="490" on="1"/>
        <pt x="148" y="0" on="1"/>
      </contour>
    </TTGlyph>
    <TTGlyph name="e" xMin="27" yMin="-10" xMax="418" yMax="500">
      <contour>
        <pt x="119" y="245" on="1"/>
        <pt x="123" y="194" on="0"/>
        <pt x="151" y="127" on="0"/>
        <pt x="190" y="86" on="0"/>
        <pt x="239" y="70" on="0"/>
        <pt x="265" y="70" on="1"/>
        <pt x="294" y="70" on="0"/>
        <pt x="363" y="84" on="0"/>
        <pt x="391" y="99" on="1"/>
        <pt x="399" y="28" on="1"/>
        <pt x="374" y="15" on="0"/>
        <pt x="303" y="-10" on="0"/>
        <pt x="257" y="-10" on="1"/>
        <pt x="200" y="-10" on="0"/>
        <pt x="114" y="31" on="0"/>
        <pt x="56" y="102" on="0"/>
        <pt x="27" y="196" on="0"/>
        <pt x="27" y="249" on="1"/>
        <pt x="27" y="300" on="0"/>
        <pt x="55" y="392" on="0"/>
        <pt x="107" y="460" on="0"/>
        <pt x="184" y="500" on="0"/>
        <pt x="233" y="500" on="1"/>
        <pt x="273" y="500" on="0"/>
        <pt x="341" y="472" on="0"/>
        <pt x="390" y="420" on="0"/>
        <pt x="418" y="342" on="0"/>
        <pt x="418" y="293" on="1"/>
        <pt x="418" y="282" on="0"/>
        <pt x="416" y="258" on="0"/>
        <pt x="413" y="245" on="1"/>
      </contour>
      <contour>
        <pt x="234" y="420" on="1"/>
        <pt x="186" y="420" on="0"/>
        <pt x="135" y="361" on="0"/>
        <pt x="125" y="307" on="1"/>
        <pt x="326" y="307" on="1"/>
        <pt x="326" y="359" on="0"/>
        <pt x="283" y="420" on="0"/>
      </contour>
    </TTGlyph>
    <TTGlyph name="eacute" xMin="27" yMin="-10" xMax="418" yMax="732">
      <component glyphName="e" x="0" y="0" flags="0x4"/>
      <component glyphName="acute" x="91" y="0" flags="0x4"/>
    </TTGlyph>
    <TTGlyph name="ecircumflex" xMin="27" yMin="-10" xMax="418" yMax="745">
      <component glyphName="e" x="0" y="0" flags="0x4"/>
      <component glyphName="circumflex" x="30" y="0" flags="0x4"/>
    </TTGlyph>
    <TTGlyph name="edieresis" xMin="27" yMin="-10" xMax="418" yMax="700">
      <component glyphName="e" x="0" y="0" flags="0x4"/>
      <component glyphName="dieresis" x="39" y="0" flags="0x4"/>
    </TTGlyph>
    <TTGlyph name="egrave" xMin="27" yMin="-10" xMax="418" yMax="732">
      <component glyphName="e" x="0" y="0" flags="0x4"/>
      <component glyphName="grave" x="91" y="0" flags="0x4"/>
    </TTGlyph>
    <TTGlyph name="eight" xMin="46" yMin="-14" xMax="467" yMax="713">
      <contour>
        <pt x="249" y="-14" on="1"/>
        <pt x="195" y="-14" on="0"/>
        <pt x="118" y="22" on="0"/>
        <pt x="69" y="81" on="0"/>
        <pt x="46" y="153" on="0"/>
        <pt x="46" y="189" on="1"/>
        <pt x="46" y="234" on="0"/>
        <pt x="89" y="332" on="0"/>
        <pt x="152" y="376" on="1"/>
        <pt x="111" y="418" on="0"/>
        <pt x="81" y="498" on="0"/>
        <pt x="81" y="540" on="1"/>
        <pt x="81" y="571" on="0"/>
        <pt x="98" y="633" on="0"/>
        <pt x="139" y="683" on="0"/>
        <pt x="208" y="713" on="0"/>
        <pt x="260" y="713" on="1"/>
        <pt x="309" y="713" on="0"/>
        <pt x="376" y="685" on="0"/>
        <pt x="417" y="640" on="0"/>
        <pt x="434" y="583" on="0"/>
        <pt x="434" y="555" on="1"/>
        <pt x="434" y="527" on="0"/>
        <pt x="424" y="485" on="0"/>
        <pt x="402" y="447" on="0"/>
        <pt x="368" y="409" on="0"/>
        <pt x="345" y="387" on="1"/>
        <pt x="405" y="359" on="0"/>
        <pt x="467" y="270" on="0"/>
        <pt x="467" y="198" on="1"/>
        <pt x="467" y="162" on="0"/>
        <pt x="442" y="87" on="0"/>
        <pt x="389" y="26" on="0"/>
        <pt x="306" y="-14" on="0"/>
      </contour>
      <contour>
        <pt x="256" y="628" on="1"/>
        <pt x="210" y="628" on="0"/>
        <pt x="164" y="579" on="0"/>
        <pt x="164" y="534" on="1"/>
        <pt x="164" y="499" on="0"/>
        <pt x="207" y="440" on="0"/>
        <pt x="252" y="421" on="1"/>
        <pt x="302" y="439" on="0"/>
        <pt x="344" y="507" on="0"/>
        <pt x="344" y="545" on="1"/>
        <pt x="344" y="584" on="0"/>
        <pt x="301" y="628" on="0"/>
      </contour>
      <contour>
        <pt x="259" y="338" on="1"/>
        <pt x="211" y="326" on="0"/>
        <pt x="142" y="253" on="0"/>
        <pt x="142" y="189" on="1"/>
        <pt x="142" y="129" on="0"/>
        <pt x="201" y="72" on="0"/>
        <pt x="253" y="72" on="1"/>
        <pt x="306" y="72" on="0"/>
        <pt x="372" y="142" on="0"/>
        <pt x="372" y="199" on="1"/>
        <pt x="372" y="226" on="0"/>
        <pt x="354" y="271" on="0"/>
        <pt x="322" y="306" on="0"/>
        <pt x="281" y="331" on="0"/>
      </contour>
    </TTGlyph>
    <TTGlyph name="ellipsis" xMin="58" yMin="0" xMax="554" yMax="86">
      <contour>
        <pt x="464" y="0" on="1"/>
        <pt x="464" y="86" on="1"/>
        <pt x="554" y="86" on="1"/>
        <pt x="554" y="0" on="1"/>
      </contour>
      <contour>
        <pt x="261" y="0" on="1"/>
        <pt x="261" y="86" on="1"/>
        <pt x="351" y="86" on="1"/>
        <pt x="351" y="0" on="1"/>
      </contour>
      <contour>
        <pt x="58" y="0" on="1"/>
        <pt x="58" y="86" on="1"/>
        <pt x="148" y="86" on="1"/>
        <pt x="148" y="0" on="1"/>
      </contour>
    </TTGlyph>
    <TTGlyph name="emdash" xMin="42" yMin="238" xMax="455" yMax="324">
      <contour>
        <pt x="42" y="238" on="1"/>
        <pt x="42" y="324" on="1"/>
        <pt x="455" y="324" on="1"/>
        <pt x="455" y="238" on="1"/>
      </contour>
    </TTGlyph>
    <TTGlyph name="endash" xMin="42" yMin="238" xMax="376" yMax="324">
      <contour>
        <pt x="42" y="238" on="1"/>
        <pt x="42" y="324" on="1"/>
        <pt x="376" y="324" on="1"/>
        <pt x="376" y="238" on="1"/>
      </contour>
    </TTGlyph>
    <TTGlyph name="equal" xMin="52" yMin="160" xMax="370" yMax="394">
      <contour>
        <pt x="52" y="318" on="1"/>
        <pt x="52" y="394" on="1"/>
        <pt x="370" y="394" on="1"/>
        <pt x="370" y="318" on="1"/>
      </contour>
      <contour>
        <pt x="52" y="160" on="1"/>
        <pt x="52" y="236" on="1"/>
        <pt x="370" y="236" on="1"/>
        <pt x="370" y="160" on="1"/>
      </contour>
    </TTGlyph>
    <TTGlyph name="eth" xMin="17" yMin="-12" xMax="409" yMax="710">
      <contour>
        <pt x="209" y="-12" on="1"/>
        <pt x="168" y="-12" on="0"/>
        <pt x="98" y="20" on="0"/>
        <pt x="46" y="77" on="0"/>
        <pt x="17" y="155" on="0"/>
        <pt x="17" y="201" on="1"/>
        <pt x="17" y="239" on="0"/>
        <pt x="39" y="319" on="0"/>
        <pt x="84" y="384" on="0"/>
        <pt x="152" y="426" on="0"/>
        <pt x="199" y="426" on="1"/>
        <pt x="240" y="426" on="0"/>
        <pt x="293" y="389" on="0"/>
        <pt x="308" y="371" on="1"/>
        <pt x="306" y="393" on="0"/>
        <pt x="294" y="447" on="0"/>
        <pt x="276" y="500" on="0"/>
        <pt x="254" y="546" on="0"/>
        <pt x="241" y="560" on="1"/>
        <pt x="182" y="507" on="0"/>
        <pt x="121" y="498" on="1"/>
        <pt x="92" y="553" on="1"/>
        <pt x="115" y="557" on="0"/>
        <pt x="168" y="579" on="0"/>
        <pt x="199" y="605" on="1"/>
        <pt x="175" y="631" on="0"/>
        <pt x="122" y="655" on="0"/>
        <pt x="96" y="659" on="1"/>
        <pt x="127" y="701" on="1"/>
        <pt x="155" y="701" on="0"/>
        <pt x="221" y="675" on="0"/>
        <pt x="254" y="646" on="1"/>
        <pt x="271" y="666" on="0"/>
        <pt x="293" y="694" on="0"/>
        <pt x="303" y="710" on="1"/>
        <pt x="351" y="698" on="1"/>
        <pt x="337" y="677" on="0"/>
        <pt x="310" y="640" on="0"/>
        <pt x="291" y="614" on="1"/>
        <pt x="317" y="584" on="0"/>
        <pt x="361" y="504" on="0"/>
        <pt x="392" y="411" on="0"/>
        <pt x="409" y="308" on="0"/>
        <pt x="409" y="257" on="1"/>
        <pt x="409" y="176" on="0"/>
        <pt x="371" y="72" on="0"/>
        <pt x="312" y="12" on="0"/>
        <pt x="241" y="-12" on="0"/>
      </contour>
      <contour>
        <pt x="211" y="343" on="1"/>
        <pt x="186" y="343" on="0"/>
        <pt x="148" y="321" on="0"/>
        <pt x="122" y="284" on="0"/>
        <pt x="109" y="236" on="0"/>
        <pt x="109" y="210" on="1"/>
        <pt x="109" y="181" on="0"/>
        <pt x="123" y="131" on="0"/>
        <pt x="149" y="93" on="0"/>
        <pt x="187" y="71" on="0"/>
        <pt x="212" y="71" on="1"/>
        <pt x="254" y="71" on="0"/>
        <pt x="310" y="148" on="0"/>
        <pt x="310" y="208" on="1"/>
        <pt x="310" y="268" on="0"/>
        <pt x="259" y="343" on="0"/>
      </contour>
    </TTGlyph>
    <TTGlyph name="exclam" xMin="55" yMin="0" xMax="162" yMax="750">
      <contour>
        <pt x="139" y="200" on="1"/>
        <pt x="77" y="200" on="1"/>
        <pt x="55" y="750" on="1"/>
        <pt x="162" y="750" on="1"/>
      </contour>
      <contour>
        <pt x="65" y="0" on="1"/>
        <pt x="65" y="86" on="1"/>
        <pt x="152" y="86" on="1"/>
        <pt x="152" y="0" on="1"/>
      </contour>
    </TTGlyph>
    <TTGlyph name="exclamdown" xMin="55" yMin="-250" xMax="162" yMax="500">
      <component glyphName="exclam" x="0" y="500" scalex="1.0" scaley="-0.999938964844" flags="0x4"/>
    </TTGlyph>
    <TTGlyph name="f" xMin="14" yMin="0" xMax="277" yMax="750">
      <contour>
        <pt x="172" y="420" on="1"/>
        <pt x="172" y="0" on="1"/>
        <pt x="82" y="0" on="1"/>
        <pt x="82" y="420" on="1"/>
        <pt x="14" y="420" on="1"/>
        <pt x="24" y="490" on="1"/>
        <pt x="82" y="490" on="1"/>
        <pt x="82" y="614" on="1"/>
        <pt x="82" y="674" on="0"/>
        <pt x="132" y="750" on="0"/>
        <pt x="182" y="750" on="1"/>
        <pt x="202" y="750" on="0"/>
        <pt x="229" y="748" on="0"/>
        <pt x="249" y="745" on="0"/>
        <pt x="265" y="740" on="0"/>
        <pt x="274" y="737" on="1"/>
        <pt x="263" y="661" on="1"/>
        <pt x="249" y="666" on="0"/>
        <pt x="223" y="670" on="0"/>
        <pt x="214" y="670" on="1"/>
        <pt x="200" y="670" on="0"/>
        <pt x="184" y="661" on="0"/>
        <pt x="175" y="634" on="0"/>
        <pt x="172" y="587" on="0"/>
        <pt x="172" y="550" on="1"/>
        <pt x="172" y="490" on="1"/>
        <pt x="277" y="490" on="1"/>
        <pt x="277" y="420" on="1"/>
      </contour>
    </TTGlyph>
    <TTGlyph name="five" xMin="43" yMin="-14" xMax="420" yMax="700">
      <contour>
        <pt x="193" y="-14" on="1"/>
        <pt x="169" y="-14" on="0"/>
        <pt x="118" y="-6" on="0"/>
        <pt x="76" y="5" on="0"/>
        <pt x="46" y="19" on="0"/>
        <pt x="43" y="25" on="1"/>
        <pt x="65" y="114" on="1"/>
        <pt x="90" y="95" on="0"/>
        <pt x="158" y="72" on="0"/>
        <pt x="191" y="72" on="1"/>
        <pt x="217" y="72" on="0"/>
        <pt x="265" y="96" on="0"/>
        <pt x="301" y="138" on="0"/>
        <pt x="323" y="197" on="0"/>
        <pt x="323" y="232" on="1"/>
        <pt x="323" y="263" on="0"/>
        <pt x="307" y="309" on="0"/>
        <pt x="268" y="340" on="0"/>
        <pt x="204" y="355" on="0"/>
        <pt x="156" y="355" on="1"/>
        <pt x="75" y="355" on="1"/>
        <pt x="112" y="700" on="1"/>
        <pt x="386" y="700" on="1"/>
        <pt x="377" y="614" on="1"/>
        <pt x="184" y="614" on="1"/>
        <pt x="168" y="440" on="1"/>
        <pt x="235" y="439" on="0"/>
        <pt x="331" y="414" on="0"/>
        <pt x="392" y="364" on="0"/>
        <pt x="420" y="288" on="0"/>
        <pt x="420" y="236" on="1"/>
        <pt x="420" y="179" on="0"/>
        <pt x="382" y="86" on="0"/>
        <pt x="318" y="21" on="0"/>
        <pt x="236" y="-14" on="0"/>
      </contour>
    </TTGlyph>
    <TTGlyph name="florin" xMin="-22" yMin="-241" xMax="329" yMax="714">
      <contour>
        <pt x="322" y="648" on="1"/>
        <pt x="314" y="653" on="0"/>
        <pt x="296" y="656" on="0"/>
        <pt x="288" y="656" on="1"/>
        <pt x="241" y="656" on="0"/>
        <pt x="201" y="578" on="0"/>
        <pt x="190" y="490" on="1"/>
        <pt x="310" y="490" on="1"/>
        <pt x="304" y="434" on="1"/>
        <pt x="180" y="434" on="1"/>
        <pt x="109" y="-92" on="1"/>
        <pt x="103" y="-137" on="0"/>
        <pt x="77" y="-195" on="0"/>
        <pt x="48" y="-228" on="0"/>
        <pt x="19" y="-241" on="0"/>
        <pt x="9" y="-241" on="1"/>
        <pt x="-8" y="-241" on="1"/>
        <pt x="-22" y="-178" on="1"/>
        <pt x="3" y="-172" on="0"/>
        <pt x="32" y="-126" on="0"/>
        <pt x="38" y="-77" on="1"/>
        <pt x="103" y="434" on="1"/>
        <pt x="28" y="434" on="1"/>
        <pt x="35" y="490" on="1"/>
        <pt x="112" y="490" on="1"/>
        <pt x="119" y="551" on="1"/>
        <pt x="123" y="590" on="0"/>
        <pt x="152" y="651" on="0"/>
        <pt x="195" y="693" on="0"/>
        <pt x="248" y="714" on="0"/>
        <pt x="278" y="714" on="1"/>
        <pt x="291" y="714" on="0"/>
        <pt x="316" y="708" on="0"/>
        <pt x="329" y="703" on="1"/>
      </contour>
    </TTGlyph>
    <TTGlyph name="four" xMin="16" yMin="0" xMax="444" yMax="700">
      <contour>
        <pt x="371" y="190" on="1"/>
        <pt x="371" y="0" on="1"/>
        <pt x="275" y="0" on="1"/>
        <pt x="275" y="190" on="1"/>
        <pt x="16" y="190" on="1"/>
        <pt x="293" y="700" on="1"/>
        <pt x="371" y="700" on="1"/>
        <pt x="371" y="276" on="1"/>
        <pt x="444" y="276" on="1"/>
        <pt x="444" y="190" on="1"/>
      </contour>
      <contour>
        <pt x="275" y="530" on="1"/>
        <pt x="153" y="276" on="1"/>
        <pt x="275" y="276" on="1"/>
      </contour>
    </TTGlyph>
    <TTGlyph name="g" xMin="21" yMin="-250" xMax="430" yMax="500">
      <contour>
        <pt x="220" y="-250" on="1"/>
        <pt x="166" y="-250" on="0"/>
        <pt x="90" y="-222" on="0"/>
        <pt x="43" y="-179" on="0"/>
        <pt x="21" y="-126" on="0"/>
        <pt x="21" y="-102" on="1"/>
        <pt x="21" y="-92" on="0"/>
        <pt x="27" y="-63" on="0"/>
        <pt x="44" y="-31" on="0"/>
        <pt x="72" y="-2" on="0"/>
        <pt x="94" y="8" on="1"/>
        <pt x="71" y="23" on="0"/>
        <pt x="53" y="59" on="0"/>
        <pt x="53" y="70" on="1"/>
        <pt x="53" y="83" on="0"/>
        <pt x="73" y="126" on="0"/>
        <pt x="100" y="143" on="1"/>
        <pt x="60" y="181" on="0"/>
        <pt x="30" y="265" on="0"/>
        <pt x="30" y="303" on="1"/>
        <pt x="30" y="343" on="0"/>
        <pt x="53" y="415" on="0"/>
        <pt x="96" y="469" on="0"/>
        <pt x="161" y="500" on="0"/>
        <pt x="203" y="500" on="1"/>
        <pt x="261" y="500" on="0"/>
        <pt x="306" y="464" on="1"/>
        <pt x="323" y="476" on="0"/>
        <pt x="373" y="492" on="0"/>
        <pt x="404" y="492" on="1"/>
        <pt x="420" y="492" on="1"/>
        <pt x="411" y="432" on="1"/>
        <pt x="384" y="432" on="1"/>
        <pt x="379" y="432" on="0"/>
        <pt x="356" y="429" on="0"/>
        <pt x="345" y="425" on="1"/>
        <pt x="364" y="393" on="0"/>
        <pt x="378" y="335" on="0"/>
        <pt x="378" y="308" on="1"/>
        <pt x="378" y="271" on="0"/>
        <pt x="355" y="201" on="0"/>
        <pt x="312" y="146" on="0"/>
        <pt x="248" y="113" on="0"/>
        <pt x="206" y="113" on="1"/>
        <pt x="177" y="113" on="0"/>
        <pt x="152" y="122" on="1"/>
        <pt x="145" y="116" on="0"/>
        <pt x="136" y="101" on="0"/>
        <pt x="136" y="92" on="1"/>
        <pt x="136" y="73" on="0"/>
        <pt x="191" y="54" on="0"/>
        <pt x="257" y="40" on="1"/>
        <pt x="281" y="35" on="0"/>
        <pt x="341" y="18" on="0"/>
        <pt x="394" y="-12" on="0"/>
        <pt x="430" y="-60" on="0"/>
        <pt x="430" y="-96" on="1"/>
        <pt x="430" y="-126" on="0"/>
        <pt x="403" y="-181" on="0"/>
        <pt x="350" y="-224" on="0"/>
        <pt x="271" y="-250" on="0"/>
      </contour>
      <contour>
        <pt x="203" y="428" on="1"/>
        <pt x="158" y="428" on="0"/>
        <pt x="113" y="360" on="0"/>
        <pt x="113" y="306" on="1"/>
        <pt x="113" y="248" on="0"/>
        <pt x="162" y="182" on="0"/>
        <pt x="204" y="182" on="1"/>
        <pt x="226" y="182" on="0"/>
        <pt x="260" y="202" on="0"/>
        <pt x="283" y="236" on="0"/>
        <pt x="295" y="282" on="0"/>
        <pt x="295" y="309" on="1"/>
        <pt x="295" y="367" on="0"/>
        <pt x="245" y="428" on="0"/>
      </contour>
      <contour>
        <pt x="231" y="-32" on="1"/>
        <pt x="228" y="-32" on="0"/>
        <pt x="211" y="-27" on="0"/>
        <pt x="190" y="-21" on="0"/>
        <pt x="170" y="-15" on="0"/>
        <pt x="165" y="-14" on="1"/>
        <pt x="138" y="-25" on="0"/>
        <pt x="101" y="-74" on="0"/>
        <pt x="101" y="-100" on="1"/>
        <pt x="101" y="-134" on="0"/>
        <pt x="163" y="-180" on="0"/>
        <pt x="220" y="-180" on="1"/>
        <pt x="249" y="-180" on="0"/>
        <pt x="295" y="-166" on="0"/>
        <pt x="327" y="-144" on="0"/>
        <pt x="344" y="-116" on="0"/>
        <pt x="344" y="-102" on="1"/>
        <pt x="344" y="-89" on="0"/>
        <pt x="328" y="-64" on="0"/>
        <pt x="298" y="-44" on="0"/>
        <pt x="256" y="-32" on="0"/>
      </contour>
    </TTGlyph>
    <TTGlyph name="germandbls" xMin="11" yMin="-136" xMax="468" yMax="750">
      <contour>
        <pt x="277" y="-10" on="1"/>
        <pt x="263" y="-10" on="0"/>
        <pt x="242" y="-8" on="0"/>
        <pt x="231" y="-7" on="1"/>
        <pt x="231" y="70" on="1"/>
        <pt x="266" y="70" on="0"/>
        <pt x="320" y="73" on="0"/>
        <pt x="358" y="86" on="0"/>
        <pt x="377" y="115" on="0"/>
        <pt x="377" y="142" on="1"/>
        <pt x="377" y="170" on="0"/>
        <pt x="357" y="217" on="0"/>
        <pt x="327" y="258" on="0"/>
        <pt x="291" y="293" on="0"/>
        <pt x="261" y="326" on="0"/>
        <pt x="241" y="356" on="0"/>
        <pt x="241" y="371" on="1"/>
        <pt x="241" y="389" on="0"/>
        <pt x="268" y="431" on="0"/>
        <pt x="300" y="482" on="0"/>
        <pt x="327" y="545" on="0"/>
        <pt x="327" y="584" on="1"/>
        <pt x="327" y="610" on="0"/>
        <pt x="314" y="643" on="0"/>
        <pt x="293" y="663" on="0"/>
        <pt x="264" y="670" on="0"/>
        <pt x="249" y="670" on="1"/>
        <pt x="208" y="670" on="0"/>
        <pt x="169" y="619" on="0"/>
        <pt x="169" y="548" on="1"/>
        <pt x="169" y="-136" on="1"/>
        <pt x="79" y="-136" on="1"/>
        <pt x="79" y="420" on="1"/>
        <pt x="11" y="420" on="1"/>
        <pt x="21" y="490" on="1"/>
        <pt x="79" y="490" on="1"/>
        <pt x="79" y="577" on="1"/>
        <pt x="79" y="619" on="0"/>
        <pt x="107" y="683" on="0"/>
        <pt x="153" y="727" on="0"/>
        <pt x="215" y="750" on="0"/>
        <pt x="250" y="750" on="1"/>
        <pt x="281" y="750" on="0"/>
        <pt x="340" y="732" on="0"/>
        <pt x="386" y="693" on="0"/>
        <pt x="415" y="631" on="0"/>
        <pt x="415" y="586" on="1"/>
        <pt x="415" y="541" on="0"/>
        <pt x="391" y="472" on="0"/>
        <pt x="363" y="422" on="0"/>
        <pt x="339" y="388" on="0"/>
        <pt x="339" y="378" on="1"/>
        <pt x="339" y="366" on="0"/>
        <pt x="379" y="327" on="0"/>
        <pt x="428" y="270" on="0"/>
        <pt x="468" y="194" on="0"/>
        <pt x="468" y="143" on="1"/>
        <pt x="468" y="101" on="0"/>
        <pt x="436" y="43" on="0"/>
        <pt x="383" y="7" on="0"/>
        <pt x="314" y="-10" on="0"/>
      </contour>
    </TTGlyph>
    <TTGlyph name="grave" xMin="50" yMin="596" xMax="211" yMax="732">
      <contour>
        <pt x="50" y="660" on="1"/>
        <pt x="50" y="732" on="1"/>
        <pt x="211" y="637" on="1"/>
        <pt x="211" y="596" on="1"/>
      </contour>
    </TTGlyph>
    <TTGlyph name="greater" xMin="71" yMin="78" xMax="356" yMax="490">
      <contour>
        <pt x="171" y="78" on="1"/>
        <pt x="71" y="78" on="1"/>
        <pt x="255" y="284" on="1"/>
        <pt x="71" y="490" on="1"/>
        <pt x="171" y="490" on="1"/>
        <pt x="356" y="284" on="1"/>
      </contour>
    </TTGlyph>
    <TTGlyph name="guillemotleft" xMin="9" yMin="78" xMax="464" yMax="490">
      <contour>
        <pt x="361" y="78" on="1"/>
        <pt x="233" y="284" on="1"/>
        <pt x="361" y="490" on="1"/>
        <pt x="464" y="490" on="1"/>
        <pt x="336" y="284" on="1"/>
        <pt x="464" y="78" on="1"/>
      </contour>
      <contour>
        <pt x="137" y="78" on="1"/>
        <pt x="9" y="284" on="1"/>
        <pt x="137" y="490" on="1"/>
        <pt x="240" y="490" on="1"/>
        <pt x="112" y="284" on="1"/>
        <pt x="240" y="78" on="1"/>
      </contour>
    </TTGlyph>
    <TTGlyph name="guillemotright" xMin="57" yMin="78" xMax="512" yMax="490">
      <contour>
        <pt x="384" y="78" on="1"/>
        <pt x="281" y="78" on="1"/>
        <pt x="409" y="284" on="1"/>
        <pt x="281" y="490" on="1"/>
        <pt x="384" y="490" on="1"/>
        <pt x="512" y="284" on="1"/>
      </contour>
      <contour>
        <pt x="160" y="78" on="1"/>
        <pt x="57" y="78" on="1"/>
        <pt x="186" y="284" on="1"/>
        <pt x="57" y="490" on="1"/>
        <pt x="160" y="490" on="1"/>
        <pt x="289" y="284" on="1"/>
      </contour>
    </TTGlyph>
    <TTGlyph name="guilsinglleft" xMin="9" yMin="78" xMax="251" yMax="490">
      <contour>
        <pt x="143" y="78" on="1"/>
        <pt x="9" y="284" on="1"/>
        <pt x="143" y="490" on="1"/>
        <pt x="251" y="490" on="1"/>
        <pt x="116" y="284" on="1"/>
        <pt x="251" y="78" on="1"/>
      </contour>
    </TTGlyph>
    <TTGlyph name="guilsinglright" xMin="48" yMin="78" xMax="290" yMax="490">
      <contour>
        <pt x="155" y="78" on="1"/>
        <pt x="48" y="78" on="1"/>
        <pt x="182" y="284" on="1"/>
        <pt x="48" y="490" on="1"/>
        <pt x="155" y="490" on="1"/>
        <pt x="290" y="284" on="1"/>
      </contour>
    </TTGlyph>
    <TTGlyph name="h" xMin="57" yMin="0" xMax="429" yMax="750">
      <contour>
        <pt x="339" y="0" on="1"/>
        <pt x="339" y="262" on="1"/>
        <pt x="339" y="349" on="0"/>
        <pt x="297" y="420" on="0"/>
        <pt x="245" y="420" on="1"/>
        <pt x="179" y="420" on="0"/>
        <pt x="147" y="356" on="1"/>
        <pt x="147" y="0" on="1"/>
        <pt x="57" y="0" on="1"/>
        <pt x="57" y="750" on="1"/>
        <pt x="147" y="750" on="1"/>
        <pt x="147" y="437" on="1"/>
        <pt x="188" y="500" on="0"/>
        <pt x="256" y="500" on="1"/>
        <pt x="303" y="500" on="0"/>
        <pt x="369" y="465" on="0"/>
        <pt x="410" y="402" on="0"/>
        <pt x="429" y="315" on="0"/>
        <pt x="429" y="262" on="1"/>
        <pt x="429" y="0" on="1"/>
      </contour>
    </TTGlyph>
    <TTGlyph name="hyphen" xMin="42" yMin="238" xMax="309" yMax="324">
      <contour>
        <pt x="42" y="238" on="1"/>
        <pt x="42" y="324" on="1"/>
        <pt x="309" y="324" on="1"/>
        <pt x="309" y="238" on="1"/>
      </contour>
    </TTGlyph>
    <TTGlyph name="i" xMin="58" yMin="0" xMax="148" yMax="700">
      <contour>
        <pt x="58" y="600" on="1"/>
        <pt x="58" y="700" on="1"/>
        <pt x="148" y="700" on="1"/>
        <pt x="148" y="600" on="1"/>
      </contour>
      <contour>
        <pt x="58" y="0" on="1"/>
        <pt x="58" y="490" on="1"/>
        <pt x="148" y="490" on="1"/>
        <pt x="148" y="0" on="1"/>
      </contour>
    </TTGlyph>
    <TTGlyph name="iacute" xMin="24" yMin="0" xMax="185" yMax="732">
      <component glyphName="dotlessi" x="0" y="0" flags="0x204"/>
      <component glyphName="acute" x="-26" y="0" flags="0x4"/>
    </TTGlyph>
    <TTGlyph name="icircumflex" xMin="-22" yMin="0" xMax="231" yMax="745">
      <component glyphName="dotlessi" x="0" y="0" flags="0x204"/>
      <component glyphName="circumflex" x="-87" y="0" flags="0x4"/>
    </TTGlyph>
    <TTGlyph name="idieresis" xMin="-2" yMin="0" xMax="211" yMax="700">
      <component glyphName="dotlessi" x="0" y="0" flags="0x204"/>
      <component glyphName="dieresis" x="-77" y="0" flags="0x4"/>
    </TTGlyph>
    <TTGlyph name="igrave" xMin="24" yMin="0" xMax="185" yMax="732">
      <component glyphName="dotlessi" x="0" y="0" flags="0x204"/>
      <component glyphName="grave" x="-26" y="0" flags="0x4"/>
    </TTGlyph>
    <TTGlyph name="j" xMin="0" yMin="-242" xMax="148" yMax="700">
      <contour>
        <pt x="9" y="-242" on="1"/>
        <pt x="0" y="-173" on="1"/>
        <pt x="18" y="-171" on="0"/>
        <pt x="41" y="-161" on="0"/>
        <pt x="54" y="-140" on="0"/>
        <pt x="58" y="-103" on="0"/>
        <pt x="58" y="-73" on="1"/>
        <pt x="58" y="490" on="1"/>
        <pt x="148" y="490" on="1"/>
        <pt x="148" y="-107" on="1"/>
        <pt x="148" y="-142" on="0"/>
        <pt x="130" y="-189" on="0"/>
        <pt x="100" y="-219" on="0"/>
        <pt x="61" y="-234" on="0"/>
        <pt x="40" y="-237" on="1"/>
      </contour>
      <contour>
        <pt x="58" y="600" on="1"/>
        <pt x="58" y="700" on="1"/>
        <pt x="148" y="700" on="1"/>
        <pt x="148" y="600" on="1"/>
      </contour>
    </TTGlyph>
    <TTGlyph name="k" xMin="60" yMin="0" xMax="405" yMax="750">
      <contour>
        <pt x="60" y="0" on="1"/>
        <pt x="60" y="750" on="1"/>
        <pt x="150" y="750" on="1"/>
        <pt x="150" y="269" on="1"/>
        <pt x="297" y="490" on="1"/>
        <pt x="402" y="490" on="1"/>
        <pt x="235" y="264" on="1"/>
        <pt x="405" y="0" on="1"/>
        <pt x="299" y="0" on="1"/>
        <pt x="150" y="249" on="1"/>
        <pt x="150" y="0" on="1"/>
      </contour>
    </TTGlyph>
    <TTGlyph name="l" xMin="55" yMin="-10" xMax="206" yMax="750">
      <contour>
        <pt x="195" y="-10" on="1"/>
        <pt x="165" y="-10" on="1"/>
        <pt x="135" y="-10" on="0"/>
        <pt x="93" y="10" on="0"/>
        <pt x="67" y="43" on="0"/>
        <pt x="55" y="86" on="0"/>
        <pt x="55" y="108" on="1"/>
        <pt x="55" y="750" on="1"/>
        <pt x="145" y="750" on="1"/>
        <pt x="145" y="160" on="1"/>
        <pt x="145" y="128" on="0"/>
        <pt x="149" y="90" on="0"/>
        <pt x="163" y="69" on="0"/>
        <pt x="186" y="62" on="0"/>
        <pt x="206" y="62" on="1"/>
      </contour>
    </TTGlyph>
    <TTGlyph name="less" xMin="28" yMin="78" xMax="313" yMax="490">
      <contour>
        <pt x="212" y="78" on="1"/>
        <pt x="28" y="284" on="1"/>
        <pt x="212" y="490" on="1"/>
        <pt x="313" y="490" on="1"/>
        <pt x="128" y="284" on="1"/>
        <pt x="313" y="78" on="1"/>
      </contour>
    </TTGlyph>
    <TTGlyph name="logicalnot" xMin="42" yMin="151" xMax="438" yMax="406">
      <contour>
        <pt x="376" y="151" on="1"/>
        <pt x="376" y="346" on="1"/>
        <pt x="42" y="346" on="1"/>
        <pt x="42" y="406" on="1"/>
        <pt x="438" y="406" on="1"/>
        <pt x="438" y="151" on="1"/>
      </contour>
    </TTGlyph>
    <TTGlyph name="m" xMin="50" yMin="0" xMax="702" yMax="500">
      <contour>
        <pt x="612" y="0" on="1"/>
        <pt x="612" y="288" on="1"/>
        <pt x="612" y="357" on="0"/>
        <pt x="571" y="420" on="0"/>
        <pt x="521" y="420" on="1"/>
        <pt x="488" y="420" on="0"/>
        <pt x="449" y="393" on="0"/>
        <pt x="428" y="352" on="0"/>
        <pt x="421" y="305" on="0"/>
        <pt x="421" y="284" on="1"/>
        <pt x="421" y="0" on="1"/>
        <pt x="331" y="0" on="1"/>
        <pt x="331" y="270" on="1"/>
        <pt x="331" y="315" on="0"/>
        <pt x="319" y="373" on="0"/>
        <pt x="295" y="407" on="0"/>
        <pt x="260" y="420" on="0"/>
        <pt x="238" y="420" on="1"/>
        <pt x="206" y="420" on="0"/>
        <pt x="155" y="389" on="0"/>
        <pt x="140" y="356" on="1"/>
        <pt x="140" y="0" on="1"/>
        <pt x="50" y="0" on="1"/>
        <pt x="50" y="490" on="1"/>
        <pt x="122" y="490" on="1"/>
        <pt x="129" y="438" on="1"/>
        <pt x="158" y="476" on="0"/>
        <pt x="215" y="500" on="0"/>
        <pt x="249" y="500" on="1"/>
        <pt x="267" y="500" on="0"/>
        <pt x="305" y="492" on="0"/>
        <pt x="341" y="471" on="0"/>
        <pt x="374" y="433" on="0"/>
        <pt x="387" y="402" on="1"/>
        <pt x="404" y="448" on="0"/>
        <pt x="477" y="500" on="0"/>
        <pt x="536" y="500" on="1"/>
        <pt x="619" y="500" on="0"/>
        <pt x="702" y="398" on="0"/>
        <pt x="702" y="289" on="1"/>
        <pt x="702" y="0" on="1"/>
      </contour>
    </TTGlyph>
    <TTGlyph name="mu" xMin="64" yMin="-242" xMax="486" yMax="490">
      <contour>
        <pt x="474" y="-10" on="1"/>
        <pt x="445" y="-10" on="1"/>
        <pt x="377" y="-10" on="0"/>
        <pt x="352" y="63" on="1"/>
        <pt x="330" y="30" on="0"/>
        <pt x="277" y="-11" on="0"/>
        <pt x="241" y="-11" on="1"/>
        <pt x="217" y="-11" on="0"/>
        <pt x="177" y="2" on="0"/>
        <pt x="153" y="27" on="1"/>
        <pt x="153" y="-242" on="1"/>
        <pt x="64" y="-242" on="1"/>
        <pt x="64" y="490" on="1"/>
        <pt x="153" y="490" on="1"/>
        <pt x="153" y="232" on="1"/>
        <pt x="153" y="155" on="0"/>
        <pt x="194" y="69" on="0"/>
        <pt x="250" y="69" on="1"/>
        <pt x="281" y="69" on="0"/>
        <pt x="322" y="96" on="0"/>
        <pt x="342" y="127" on="1"/>
        <pt x="342" y="490" on="1"/>
        <pt x="430" y="490" on="1"/>
        <pt x="430" y="170" on="1"/>
        <pt x="430" y="119" on="0"/>
        <pt x="445" y="62" on="0"/>
        <pt x="469" y="62" on="1"/>
        <pt x="486" y="62" on="1"/>
      </contour>
    </TTGlyph>
    <TTGlyph name="multiply" xMin="45" yMin="119" xMax="324" yMax="435">
      <contour>
        <pt x="285" y="119" on="1"/>
        <pt x="184" y="242" on="1"/>
        <pt x="85" y="119" on="1"/>
        <pt x="45" y="155" on="1"/>
        <pt x="145" y="277" on="1"/>
        <pt x="45" y="399" on="1"/>
        <pt x="85" y="435" on="1"/>
        <pt x="184" y="312" on="1"/>
        <pt x="285" y="435" on="1"/>
        <pt x="324" y="399" on="1"/>
        <pt x="224" y="277" on="1"/>
        <pt x="324" y="155" on="1"/>
      </contour>
    </TTGlyph>
    <TTGlyph name="n" xMin="50" yMin="0" xMax="430" yMax="500">
      <contour>
        <pt x="340" y="0" on="1"/>
        <pt x="340" y="270" on="1"/>
        <pt x="340" y="348" on="0"/>
        <pt x="294" y="420" on="0"/>
        <pt x="240" y="420" on="1"/>
        <pt x="208" y="420" on="0"/>
        <pt x="155" y="389" on="0"/>
        <pt x="140" y="356" on="1"/>
        <pt x="140" y="0" on="1"/>
        <pt x="50" y="0" on="1"/>
        <pt x="50" y="490" on="1"/>
        <pt x="127" y="490" on="1"/>
        <pt x="132" y="438" on="1"/>
        <pt x="161" y="476" on="0"/>
        <pt x="223" y="500" on="0"/>
        <pt x="253" y="500" on="1"/>
        <pt x="301" y="500" on="0"/>
        <pt x="368" y="468" on="0"/>
        <pt x="411" y="408" on="0"/>
        <pt x="430" y="323" on="0"/>
        <pt x="430" y="270" on="1"/>
        <pt x="430" y="0" on="1"/>
      </contour>
    </TTGlyph>
    <TTGlyph name="nine" xMin="50" yMin="0" xMax="448" yMax="714">
      <contour>
        <pt x="259" y="714" on="1"/>
        <pt x="297" y="714" on="0"/>
        <pt x="365" y="690" on="0"/>
        <pt x="417" y="632" on="0"/>
        <pt x="448" y="535" on="0"/>
        <pt x="448" y="462" on="1"/>
        <pt x="448" y="350" on="0"/>
        <pt x="396" y="177" on="0"/>
        <pt x="318" y="60" on="0"/>
        <pt x="230" y="0" on="0"/>
        <pt x="194" y="0" on="1"/>
        <pt x="128" y="38" on="1"/>
        <pt x="155" y="54" on="0"/>
        <pt x="225" y="102" on="0"/>
        <pt x="290" y="172" on="0"/>
        <pt x="339" y="269" on="0"/>
        <pt x="345" y="336" on="1"/>
        <pt x="336" y="322" on="0"/>
        <pt x="308" y="301" on="0"/>
        <pt x="276" y="286" on="0"/>
        <pt x="244" y="279" on="0"/>
        <pt x="232" y="279" on="1"/>
        <pt x="150" y="279" on="0"/>
        <pt x="50" y="378" on="0"/>
        <pt x="50" y="481" on="1"/>
        <pt x="50" y="530" on="0"/>
        <pt x="79" y="615" on="0"/>
        <pt x="134" y="678" on="0"/>
        <pt x="211" y="714" on="0"/>
      </contour>
      <contour>
        <pt x="241" y="361" on="1"/>
        <pt x="288" y="361" on="0"/>
        <pt x="354" y="436" on="0"/>
        <pt x="354" y="501" on="1"/>
        <pt x="354" y="534" on="0"/>
        <pt x="336" y="583" on="0"/>
        <pt x="307" y="615" on="0"/>
        <pt x="270" y="631" on="0"/>
        <pt x="251" y="631" on="1"/>
        <pt x="224" y="631" on="0"/>
        <pt x="184" y="606" on="0"/>
        <pt x="157" y="565" on="0"/>
        <pt x="143" y="513" on="0"/>
        <pt x="143" y="486" on="1"/>
        <pt x="143" y="466" on="0"/>
        <pt x="152" y="422" on="0"/>
        <pt x="175" y="385" on="0"/>
        <pt x="212" y="361" on="0"/>
      </contour>
    </TTGlyph>
    <TTGlyph name="ntilde" xMin="50" yMin="0" xMax="430" yMax="702">
      <component glyphName="n" x="0" y="0" flags="0x204"/>
      <component glyphName="tilde" x="10" y="0" flags="0x4"/>
    </TTGlyph>
    <TTGlyph name="numbersign" xMin="29" yMin="-11" xMax="581" yMax="700">
      <contour>
        <pt x="555" y="423" on="1"/>
        <pt x="456" y="423" on="1"/>
        <pt x="417" y="300" on="1"/>
        <pt x="526" y="300" on="1"/>
        <pt x="491" y="216" on="1"/>
        <pt x="388" y="216" on="1"/>
        <pt x="315" y="-11" on="1"/>
        <pt x="240" y="-11" on="1"/>
        <pt x="313" y="216" on="1"/>
        <pt x="206" y="216" on="1"/>
        <pt x="132" y="-11" on="1"/>
        <pt x="58" y="-11" on="1"/>
        <pt x="131" y="216" on="1"/>
        <pt x="29" y="216" on="1"/>
        <pt x="63" y="300" on="1"/>
        <pt x="161" y="300" on="1"/>
        <pt x="199" y="423" on="1"/>
        <pt x="93" y="423" on="1"/>
        <pt x="119" y="507" on="1"/>
        <pt x="229" y="507" on="1"/>
        <pt x="292" y="700" on="1"/>
        <pt x="366" y="700" on="1"/>
        <pt x="303" y="507" on="1"/>
        <pt x="410" y="507" on="1"/>
        <pt x="473" y="700" on="1"/>
        <pt x="548" y="700" on="1"/>
        <pt x="485" y="507" on="1"/>
        <pt x="581" y="507" on="1"/>
      </contour>
      <contour>
        <pt x="274" y="423" on="1"/>
        <pt x="235" y="300" on="1"/>
        <pt x="341" y="300" on="1"/>
        <pt x="381" y="423" on="1"/>
      </contour>
    </TTGlyph>
    <TTGlyph name="o" xMin="24" yMin="-10" xMax="449" yMax="500">
      <contour>
        <pt x="237" y="-10" on="1"/>
        <pt x="186" y="-10" on="0"/>
        <pt x="107" y="30" on="0"/>
        <pt x="53" y="99" on="0"/>
        <pt x="24" y="192" on="0"/>
        <pt x="24" y="245" on="1"/>
        <pt x="24" y="298" on="0"/>
        <pt x="53" y="391" on="0"/>
        <pt x="107" y="460" on="0"/>
        <pt x="186" y="500" on="0"/>
        <pt x="237" y="500" on="1"/>
        <pt x="287" y="500" on="0"/>
        <pt x="366" y="460" on="0"/>
        <pt x="420" y="391" on="0"/>
        <pt x="449" y="298" on="0"/>
        <pt x="449" y="245" on="1"/>
        <pt x="449" y="192" on="0"/>
        <pt x="420" y="99" on="0"/>
        <pt x="366" y="30" on="0"/>
        <pt x="287" y="-10" on="0"/>
      </contour>
      <contour>
        <pt x="237" y="420" on="1"/>
        <pt x="178" y="420" on="0"/>
        <pt x="116" y="328" on="0"/>
        <pt x="116" y="245" on="1"/>
        <pt x="116" y="162" on="0"/>
        <pt x="178" y="70" on="0"/>
        <pt x="237" y="70" on="1"/>
        <pt x="295" y="70" on="0"/>
        <pt x="357" y="162" on="0"/>
        <pt x="357" y="245" on="1"/>
        <pt x="357" y="328" on="0"/>
        <pt x="295" y="420" on="0"/>
      </contour>
    </TTGlyph>
    <TTGlyph name="oacute" xMin="24" yMin="-10" xMax="449" yMax="732">
      <component glyphName="o" x="0" y="0" flags="0x204"/>
      <component glyphName="acute" x="106" y="0" flags="0x4"/>
    </TTGlyph>
    <TTGlyph name="ocircumflex" xMin="24" yMin="-10" xMax="449" yMax="745">
      <component glyphName="o" x="0" y="0" flags="0x204"/>
      <component glyphName="circumflex" x="45" y="0" flags="0x4"/>
    </TTGlyph>
    <TTGlyph name="odieresis" xMin="24" yMin="-10" xMax="449" yMax="700">
      <component glyphName="o" x="0" y="0" flags="0x204"/>
      <component glyphName="dieresis" x="55" y="0" flags="0x4"/>
    </TTGlyph>
    <TTGlyph name="oe" xMin="24" yMin="-10" xMax="746" yMax="500">
      <contour>
        <pt x="454" y="245" on="1"/>
        <pt x="456" y="186" on="0"/>
        <pt x="483" y="114" on="0"/>
        <pt x="522" y="75" on="0"/>
        <pt x="566" y="62" on="0"/>
        <pt x="586" y="62" on="1"/>
        <pt x="620" y="62" on="0"/>
        <pt x="693" y="83" on="0"/>
        <pt x="719" y="99" on="1"/>
        <pt x="726" y="22" on="1"/>
        <pt x="702" y="9" on="0"/>
        <pt x="633" y="-10" on="0"/>
        <pt x="590" y="-10" on="1"/>
        <pt x="517" y="-10" on="0"/>
        <pt x="429" y="44" on="0"/>
        <pt x="406" y="97" on="1"/>
        <pt x="383" y="44" on="0"/>
        <pt x="292" y="-10" on="0"/>
        <pt x="238" y="-10" on="1"/>
        <pt x="187" y="-10" on="0"/>
        <pt x="108" y="31" on="0"/>
        <pt x="53" y="101" on="0"/>
        <pt x="24" y="196" on="0"/>
        <pt x="24" y="250" on="1"/>
        <pt x="24" y="303" on="0"/>
        <pt x="53" y="394" on="0"/>
        <pt x="108" y="462" on="0"/>
        <pt x="189" y="500" on="0"/>
        <pt x="240" y="500" on="1"/>
        <pt x="290" y="500" on="0"/>
        <pt x="380" y="451" on="0"/>
        <pt x="403" y="398" on="1"/>
        <pt x="429" y="451" on="0"/>
        <pt x="515" y="500" on="0"/>
        <pt x="561" y="500" on="1"/>
        <pt x="601" y="500" on="0"/>
        <pt x="669" y="473" on="0"/>
        <pt x="719" y="420" on="0"/>
        <pt x="746" y="344" on="0"/>
        <pt x="746" y="296" on="1"/>
        <pt x="746" y="268" on="0"/>
        <pt x="742" y="245" on="1"/>
      </contour>
      <contour>
        <pt x="562" y="420" on="1"/>
        <pt x="518" y="420" on="0"/>
        <pt x="466" y="368" on="0"/>
        <pt x="456" y="307" on="1"/>
        <pt x="655" y="307" on="1"/>
        <pt x="653" y="361" on="0"/>
        <pt x="607" y="420" on="0"/>
      </contour>
      <contour>
        <pt x="240" y="420" on="1"/>
        <pt x="179" y="420" on="0"/>
        <pt x="116" y="328" on="0"/>
        <pt x="116" y="245" on="1"/>
        <pt x="116" y="162" on="0"/>
        <pt x="179" y="70" on="0"/>
        <pt x="240" y="70" on="1"/>
        <pt x="270" y="70" on="0"/>
        <pt x="315" y="97" on="0"/>
        <pt x="346" y="145" on="0"/>
        <pt x="361" y="210" on="0"/>
        <pt x="361" y="248" on="1"/>
        <pt x="361" y="285" on="0"/>
        <pt x="345" y="349" on="0"/>
        <pt x="314" y="394" on="0"/>
        <pt x="269" y="420" on="0"/>
      </contour>
    </TTGlyph>
    <TTGlyph name="ograve" xMin="24" yMin="-10" xMax="449" yMax="732">
      <component glyphName="o" x="0" y="0" flags="0x204"/>
      <component glyphName="grave" x="106" y="0" flags="0x4"/>
    </TTGlyph>
    <TTGlyph name="one" xMin="38" yMin="0" xMax="230" yMax="700">
      <contour>
        <pt x="134" y="0" on="1"/>
        <pt x="134" y="563" on="1"/>
        <pt x="108" y="534" on="0"/>
        <pt x="70" y="509" on="0"/>
        <pt x="50" y="502" on="1"/>
        <pt x="38" y="591" on="1"/>
        <pt x="54" y="598" on="0"/>
        <pt x="89" y="620" on="0"/>
        <pt x="122" y="649" on="0"/>
        <pt x="150" y="682" on="0"/>
        <pt x="158" y="700" on="1"/>
        <pt x="230" y="700" on="1"/>
        <pt x="230" y="0" on="1"/>
      </contour>
    </TTGlyph>
    <TTGlyph name="onehalf" xMin="86" yMin="-85" xMax="652" yMax="700">
      <component glyphName="onesuperior" x="39" y="0" flags="0x4"/>
      <component glyphName="slash" x="83" y="0" flags="0x4"/>
      <component glyphName="twosuperior" x="391" y="-319" flags="0x4"/>
    </TTGlyph>
    <TTGlyph name="onequarter" xMin="86" yMin="-85" xMax="646" yMax="700">
      <component glyphName="onesuperior" x="39" y="0" flags="0x4"/>
      <component glyphName="slash" x="83" y="0" flags="0x4"/>
      <component glyphName="uni2074" x="355" y="-319" flags="0x4"/>
    </TTGlyph>
    <TTGlyph name="onesuperior" xMin="47" yMin="320" xMax="162" yMax="698">
      <contour>
        <pt x="90" y="320" on="1"/>
        <pt x="90" y="596" on="1"/>
        <pt x="85" y="591" on="0"/>
        <pt x="65" y="581" on="0"/>
        <pt x="51" y="579" on="1"/>
        <pt x="47" y="639" on="1"/>
        <pt x="54" y="640" on="0"/>
        <pt x="72" y="652" on="0"/>
        <pt x="90" y="668" on="0"/>
        <pt x="104" y="688" on="0"/>
        <pt x="106" y="698" on="1"/>
        <pt x="162" y="698" on="1"/>
        <pt x="162" y="320" on="1"/>
      </contour>
    </TTGlyph>
    <TTGlyph name="ordfeminine" xMin="26" yMin="434" xMax="272" yMax="725">
      <contour>
        <pt x="267" y="434" on="1"/>
        <pt x="233" y="434" on="1"/>
        <pt x="218" y="434" on="0"/>
        <pt x="186" y="451" on="0"/>
        <pt x="179" y="465" on="1"/>
        <pt x="167" y="450" on="0"/>
        <pt x="122" y="434" on="0"/>
        <pt x="99" y="434" on="1"/>
        <pt x="70" y="434" on="0"/>
        <pt x="26" y="478" on="0"/>
        <pt x="26" y="519" on="1"/>
        <pt x="26" y="549" on="0"/>
        <pt x="59" y="587" on="0"/>
        <pt x="105" y="610" on="0"/>
        <pt x="153" y="619" on="0"/>
        <pt x="167" y="620" on="1"/>
        <pt x="165" y="641" on="0"/>
        <pt x="150" y="662" on="0"/>
        <pt x="126" y="662" on="1"/>
        <pt x="107" y="662" on="0"/>
        <pt x="74" y="652" on="0"/>
        <pt x="53" y="642" on="1"/>
        <pt x="48" y="702" on="1"/>
        <pt x="101" y="725" on="0"/>
        <pt x="147" y="725" on="1"/>
        <pt x="188" y="725" on="0"/>
        <pt x="243" y="675" on="0"/>
        <pt x="243" y="617" on="1"/>
        <pt x="243" y="537" on="1"/>
        <pt x="243" y="521" on="0"/>
        <pt x="245" y="504" on="0"/>
        <pt x="249" y="496" on="0"/>
        <pt x="256" y="495" on="0"/>
        <pt x="261" y="495" on="1"/>
        <pt x="272" y="495" on="1"/>
      </contour>
      <contour>
        <pt x="168" y="570" on="1"/>
        <pt x="163" y="570" on="0"/>
        <pt x="142" y="564" on="0"/>
        <pt x="121" y="552" on="0"/>
        <pt x="105" y="534" on="0"/>
        <pt x="105" y="522" on="1"/>
        <pt x="105" y="505" on="0"/>
        <pt x="118" y="490" on="0"/>
        <pt x="137" y="490" on="1"/>
        <pt x="139" y="490" on="0"/>
        <pt x="158" y="498" on="0"/>
        <pt x="168" y="507" on="1"/>
      </contour>
    </TTGlyph>
    <TTGlyph name="ordmasculine" xMin="26" yMin="434" xMax="293" yMax="725">
      <contour>
        <pt x="160" y="434" on="1"/>
        <pt x="128" y="434" on="0"/>
        <pt x="78" y="458" on="0"/>
        <pt x="44" y="498" on="0"/>
        <pt x="26" y="551" on="0"/>
        <pt x="26" y="580" on="1"/>
        <pt x="26" y="609" on="0"/>
        <pt x="44" y="662" on="0"/>
        <pt x="78" y="702" on="0"/>
        <pt x="128" y="725" on="0"/>
        <pt x="160" y="725" on="1"/>
        <pt x="191" y="725" on="0"/>
        <pt x="241" y="702" on="0"/>
        <pt x="275" y="662" on="0"/>
        <pt x="293" y="609" on="0"/>
        <pt x="293" y="580" on="1"/>
        <pt x="293" y="551" on="0"/>
        <pt x="275" y="498" on="0"/>
        <pt x="241" y="458" on="0"/>
        <pt x="191" y="434" on="0"/>
      </contour>
      <contour>
        <pt x="160" y="666" on="1"/>
        <pt x="132" y="666" on="0"/>
        <pt x="102" y="618" on="0"/>
        <pt x="102" y="580" on="1"/>
        <pt x="102" y="542" on="0"/>
        <pt x="132" y="494" on="0"/>
        <pt x="160" y="494" on="1"/>
        <pt x="187" y="494" on="0"/>
        <pt x="217" y="542" on="0"/>
        <pt x="217" y="580" on="1"/>
        <pt x="217" y="618" on="0"/>
        <pt x="187" y="666" on="0"/>
      </contour>
    </TTGlyph>
    <TTGlyph name="oslash" xMin="24" yMin="-35" xMax="459" yMax="534">
      <contour>
        <pt x="242" y="-8" on="1"/>
        <pt x="225" y="-8" on="0"/>
        <pt x="193" y="-3" on="0"/>
        <pt x="173" y="3" on="1"/>
        <pt x="158" y="-35" on="1"/>
        <pt x="84" y="-35" on="1"/>
        <pt x="113" y="31" on="1"/>
        <pt x="68" y="73" on="0"/>
        <pt x="24" y="184" on="0"/>
        <pt x="24" y="249" on="1"/>
        <pt x="24" y="301" on="0"/>
        <pt x="53" y="395" on="0"/>
        <pt x="109" y="465" on="0"/>
        <pt x="190" y="506" on="0"/>
        <pt x="241" y="506" on="1"/>
        <pt x="257" y="506" on="0"/>
        <pt x="288" y="501" on="0"/>
        <pt x="307" y="494" on="1"/>
        <pt x="322" y="534" on="1"/>
        <pt x="399" y="534" on="1"/>
        <pt x="368" y="468" on="1"/>
        <pt x="414" y="425" on="0"/>
        <pt x="459" y="314" on="0"/>
        <pt x="459" y="248" on="1"/>
        <pt x="459" y="195" on="0"/>
        <pt x="430" y="102" on="0"/>
        <pt x="374" y="33" on="0"/>
        <pt x="293" y="-8" on="0"/>
      </contour>
      <contour>
        <pt x="206" y="68" on="1"/>
        <pt x="221" y="64" on="0"/>
        <pt x="236" y="62" on="0"/>
        <pt x="242" y="62" on="1"/>
        <pt x="272" y="62" on="0"/>
        <pt x="317" y="91" on="0"/>
        <pt x="349" y="142" on="0"/>
        <pt x="365" y="209" on="0"/>
        <pt x="365" y="248" on="1"/>
        <pt x="365" y="265" on="0"/>
        <pt x="361" y="309" on="0"/>
        <pt x="354" y="352" on="0"/>
        <pt x="342" y="388" on="0"/>
        <pt x="333" y="398" on="1"/>
      </contour>
      <contour>
        <pt x="241" y="436" on="1"/>
        <pt x="211" y="436" on="0"/>
        <pt x="166" y="407" on="0"/>
        <pt x="134" y="356" on="0"/>
        <pt x="118" y="288" on="0"/>
        <pt x="118" y="248" on="1"/>
        <pt x="118" y="216" on="0"/>
        <pt x="132" y="149" on="0"/>
        <pt x="149" y="100" on="1"/>
        <pt x="274" y="429" on="1"/>
        <pt x="260" y="434" on="0"/>
        <pt x="247" y="436" on="0"/>
      </contour>
    </TTGlyph>
    <TTGlyph name="otilde" xMin="24" yMin="-10" xMax="449" yMax="702">
      <component glyphName="o" x="0" y="0" flags="0x204"/>
      <component glyphName="tilde" x="9" y="0" flags="0x4"/>
    </TTGlyph>
    <TTGlyph name="p" xMin="56" yMin="-242" xMax="462" yMax="500">
      <contour>
        <pt x="265" y="-10" on="1"/>
        <pt x="234" y="-10" on="0"/>
        <pt x="169" y="26" on="0"/>
        <pt x="146" y="62" on="1"/>
        <pt x="146" y="-242" on="1"/>
        <pt x="56" y="-242" on="1"/>
        <pt x="56" y="490" on="1"/>
        <pt x="130" y="490" on="1"/>
        <pt x="138" y="420" on="1"/>
        <pt x="164" y="458" on="0"/>
        <pt x="220" y="500" on="0"/>
        <pt x="265" y="500" on="1"/>
        <pt x="312" y="500" on="0"/>
        <pt x="386" y="458" on="0"/>
        <pt x="436" y="387" on="0"/>
        <pt x="462" y="295" on="0"/>
        <pt x="462" y="245" on="1"/>
        <pt x="462" y="191" on="0"/>
        <pt x="437" y="98" on="0"/>
        <pt x="387" y="29" on="0"/>
        <pt x="314" y="-10" on="0"/>
      </contour>
      <contour>
        <pt x="257" y="420" on="1"/>
        <pt x="208" y="420" on="0"/>
        <pt x="141" y="334" on="0"/>
        <pt x="141" y="245" on="1"/>
        <pt x="141" y="153" on="0"/>
        <pt x="208" y="70" on="0"/>
        <pt x="257" y="70" on="1"/>
        <pt x="284" y="70" on="0"/>
        <pt x="326" y="98" on="0"/>
        <pt x="356" y="145" on="0"/>
        <pt x="371" y="209" on="0"/>
        <pt x="371" y="245" on="1"/>
        <pt x="371" y="282" on="0"/>
        <pt x="356" y="347" on="0"/>
        <pt x="326" y="393" on="0"/>
        <pt x="284" y="420" on="0"/>
      </contour>
    </TTGlyph>
    <TTGlyph name="paragraph" xMin="28" yMin="0" xMax="498" yMax="700">
      <contour>
        <pt x="436" y="633" on="1"/>
        <pt x="436" y="0" on="1"/>
        <pt x="380" y="0" on="1"/>
        <pt x="380" y="633" on="1"/>
        <pt x="308" y="633" on="1"/>
        <pt x="308" y="0" on="1"/>
        <pt x="262" y="0" on="1"/>
        <pt x="262" y="243" on="1"/>
        <pt x="202" y="247" on="0"/>
        <pt x="113" y="290" on="0"/>
        <pt x="56" y="355" on="0"/>
        <pt x="28" y="434" on="0"/>
        <pt x="28" y="474" on="1"/>
        <pt x="28" y="515" on="0"/>
        <pt x="58" y="596" on="0"/>
        <pt x="119" y="660" on="0"/>
        <pt x="212" y="700" on="0"/>
        <pt x="275" y="700" on="1"/>
        <pt x="498" y="700" on="1"/>
        <pt x="498" y="633" on="1"/>
      </contour>
    </TTGlyph>
    <TTGlyph name="parenleft" xMin="39" yMin="-136" xMax="214" yMax="750">
      <contour>
        <pt x="133" y="-136" on="1"/>
        <pt x="112" y="-96" on="0"/>
        <pt x="77" y="-6" on="0"/>
        <pt x="52" y="100" on="0"/>
        <pt x="39" y="228" on="0"/>
        <pt x="39" y="307" on="1"/>
        <pt x="39" y="386" on="0"/>
        <pt x="52" y="514" on="0"/>
        <pt x="77" y="620" on="0"/>
        <pt x="112" y="709" on="0"/>
        <pt x="133" y="750" on="1"/>
        <pt x="214" y="750" on="1"/>
        <pt x="171" y="666" on="0"/>
        <pt x="111" y="450" on="0"/>
        <pt x="111" y="307" on="1"/>
        <pt x="111" y="164" on="0"/>
        <pt x="171" y="-52" on="0"/>
        <pt x="214" y="-136" on="1"/>
      </contour>
    </TTGlyph>
    <TTGlyph name="parenright" xMin="31" yMin="-136" xMax="206" yMax="750">
      <contour>
        <pt x="31" y="-136" on="1"/>
        <pt x="74" y="-52" on="0"/>
        <pt x="133" y="164" on="0"/>
        <pt x="133" y="307" on="1"/>
        <pt x="133" y="450" on="0"/>
        <pt x="74" y="666" on="0"/>
        <pt x="31" y="750" on="1"/>
        <pt x="111" y="750" on="1"/>
        <pt x="133" y="709" on="0"/>
        <pt x="168" y="620" on="0"/>
        <pt x="193" y="514" on="0"/>
        <pt x="206" y="386" on="0"/>
        <pt x="206" y="307" on="1"/>
        <pt x="206" y="228" on="0"/>
        <pt x="193" y="100" on="0"/>
        <pt x="168" y="-6" on="0"/>
        <pt x="133" y="-96" on="0"/>
        <pt x="111" y="-136" on="1"/>
      </contour>
    </TTGlyph>
    <TTGlyph name="percent" xMin="31" yMin="-14" xMax="695" yMax="705">
      <contour>
        <pt x="210" y="-12" on="1"/>
        <pt x="135" y="-12" on="1"/>
        <pt x="498" y="700" on="1"/>
        <pt x="572" y="700" on="1"/>
      </contour>
      <contour>
        <pt x="158" y="333" on="1"/>
        <pt x="101" y="333" on="0"/>
        <pt x="31" y="427" on="0"/>
        <pt x="31" y="515" on="1"/>
        <pt x="31" y="561" on="0"/>
        <pt x="52" y="632" on="0"/>
        <pt x="87" y="680" on="0"/>
        <pt x="135" y="705" on="0"/>
        <pt x="162" y="705" on="1"/>
        <pt x="217" y="705" on="0"/>
        <pt x="289" y="612" on="0"/>
        <pt x="289" y="524" on="1"/>
        <pt x="289" y="431" on="0"/>
        <pt x="216" y="333" on="0"/>
      </contour>
      <contour>
        <pt x="161" y="654" on="1"/>
        <pt x="132" y="654" on="0"/>
        <pt x="88" y="578" on="0"/>
        <pt x="88" y="515" on="1"/>
        <pt x="88" y="455" on="0"/>
        <pt x="130" y="385" on="0"/>
        <pt x="159" y="385" on="1"/>
        <pt x="191" y="385" on="0"/>
        <pt x="233" y="460" on="0"/>
        <pt x="233" y="524" on="1"/>
        <pt x="233" y="583" on="0"/>
        <pt x="190" y="654" on="0"/>
      </contour>
      <contour>
        <pt x="564" y="-14" on="1"/>
        <pt x="507" y="-14" on="0"/>
        <pt x="437" y="80" on="0"/>
        <pt x="437" y="168" on="1"/>
        <pt x="437" y="214" on="0"/>
        <pt x="458" y="285" on="0"/>
        <pt x="493" y="333" on="0"/>
        <pt x="541" y="358" on="0"/>
        <pt x="568" y="358" on="1"/>
        <pt x="622" y="358" on="0"/>
        <pt x="695" y="265" on="0"/>
        <pt x="695" y="177" on="1"/>
        <pt x="695" y="84" on="0"/>
        <pt x="622" y="-14" on="0"/>
      </contour>
      <contour>
        <pt x="567" y="307" on="1"/>
        <pt x="538" y="307" on="0"/>
        <pt x="493" y="231" on="0"/>
        <pt x="493" y="168" on="1"/>
        <pt x="493" y="108" on="0"/>
        <pt x="536" y="38" on="0"/>
        <pt x="565" y="38" on="1"/>
        <pt x="597" y="38" on="0"/>
        <pt x="639" y="113" on="0"/>
        <pt x="639" y="177" on="1"/>
        <pt x="639" y="236" on="0"/>
        <pt x="595" y="307" on="0"/>
      </contour>
    </TTGlyph>
    <TTGlyph name="period" xMin="58" yMin="0" xMax="148" yMax="86">
      <contour>
        <pt x="58" y="0" on="1"/>
        <pt x="58" y="86" on="1"/>
        <pt x="148" y="86" on="1"/>
        <pt x="148" y="0" on="1"/>
      </contour>
    </TTGlyph>
    <TTGlyph name="periodcentered" xMin="55" yMin="213" xMax="162" yMax="343">
      <contour>
        <pt x="55" y="213" on="1"/>
        <pt x="55" y="343" on="1"/>
        <pt x="162" y="343" on="1"/>
        <pt x="162" y="213" on="1"/>
      </contour>
    </TTGlyph>
    <TTGlyph name="perthousand" xMin="31" yMin="-14" xMax="1004" yMax="705">
      <contour>
        <pt x="210" y="-12" on="1"/>
        <pt x="135" y="-12" on="1"/>
        <pt x="498" y="700" on="1"/>
        <pt x="572" y="700" on="1"/>
      </contour>
      <contour>
        <pt x="158" y="333" on="1"/>
        <pt x="101" y="333" on="0"/>
        <pt x="31" y="427" on="0"/>
        <pt x="31" y="515" on="1"/>
        <pt x="31" y="561" on="0"/>
        <pt x="52" y="632" on="0"/>
        <pt x="87" y="680" on="0"/>
        <pt x="135" y="705" on="0"/>
        <pt x="162" y="705" on="1"/>
        <pt x="217" y="705" on="0"/>
        <pt x="289" y="612" on="0"/>
        <pt x="289" y="524" on="1"/>
        <pt x="289" y="431" on="0"/>
        <pt x="216" y="333" on="0"/>
      </contour>
      <contour>
        <pt x="161" y="654" on="1"/>
        <pt x="132" y="654" on="0"/>
        <pt x="88" y="578" on="0"/>
        <pt x="88" y="515" on="1"/>
        <pt x="88" y="455" on="0"/>
        <pt x="130" y="385" on="0"/>
        <pt x="159" y="385" on="1"/>
        <pt x="191" y="385" on="0"/>
        <pt x="233" y="460" on="0"/>
        <pt x="233" y="524" on="1"/>
        <pt x="233" y="583" on="0"/>
        <pt x="190" y="654" on="0"/>
      </contour>
      <contour>
        <pt x="564" y="-14" on="1"/>
        <pt x="507" y="-14" on="0"/>
        <pt x="437" y="80" on="0"/>
        <pt x="437" y="168" on="1"/>
        <pt x="437" y="214" on="0"/>
        <pt x="458" y="285" on="0"/>
        <pt x="493" y="333" on="0"/>
        <pt x="541" y="358" on="0"/>
        <pt x="568" y="358" on="1"/>
        <pt x="622" y="358" on="0"/>
        <pt x="695" y="265" on="0"/>
        <pt x="695" y="177" on="1"/>
        <pt x="695" y="84" on="0"/>
        <pt x="622" y="-14" on="0"/>
      </contour>
      <contour>
        <pt x="567" y="307" on="1"/>
        <pt x="538" y="307" on="0"/>
        <pt x="493" y="231" on="0"/>
        <pt x="493" y="168" on="1"/>
        <pt x="493" y="108" on="0"/>
        <pt x="536" y="38" on="0"/>
        <pt x="565" y="38" on="1"/>
        <pt x="597" y="38" on="0"/>
        <pt x="639" y="113" on="0"/>
        <pt x="639" y="177" on="1"/>
        <pt x="639" y="236" on="0"/>
        <pt x="595" y="307" on="0"/>
      </contour>
      <contour>
        <pt x="873" y="-14" on="1"/>
        <pt x="816" y="-14" on="0"/>
        <pt x="746" y="80" on="0"/>
        <pt x="746" y="168" on="1"/>
        <pt x="746" y="214" on="0"/>
        <pt x="767" y="285" on="0"/>
        <pt x="802" y="333" on="0"/>
        <pt x="850" y="358" on="0"/>
        <pt x="877" y="358" on="1"/>
        <pt x="931" y="358" on="0"/>
        <pt x="1004" y="265" on="0"/>
        <pt x="1004" y="177" on="1"/>
        <pt x="1004" y="84" on="0"/>
        <pt x="931" y="-14" on="0"/>
      </contour>
      <contour>
        <pt x="876" y="307" on="1"/>
        <pt x="847" y="307" on="0"/>
        <pt x="803" y="231" on="0"/>
        <pt x="803" y="168" on="1"/>
        <pt x="803" y="108" on="0"/>
        <pt x="845" y="38" on="0"/>
        <pt x="874" y="38" on="1"/>
        <pt x="906" y="38" on="0"/>
        <pt x="948" y="113" on="0"/>
        <pt x="948" y="177" on="1"/>
        <pt x="948" y="236" on="0"/>
        <pt x="905" y="307" on="0"/>
      </contour>
    </TTGlyph>
    <TTGlyph name="plus" xMin="35" yMin="102" xMax="353" yMax="452">
      <contour>
        <pt x="231" y="238" on="1"/>
        <pt x="231" y="102" on="1"/>
        <pt x="157" y="102" on="1"/>
        <pt x="157" y="238" on="1"/>
        <pt x="35" y="238" on="1"/>
        <pt x="35" y="324" on="1"/>
        <pt x="157" y="324" on="1"/>
        <pt x="157" y="452" on="1"/>
        <pt x="231" y="452" on="1"/>
        <pt x="231" y="324" on="1"/>
        <pt x="353" y="324" on="1"/>
        <pt x="353" y="238" on="1"/>
      </contour>
    </TTGlyph>
    <TTGlyph name="plusminus" xMin="41" yMin="42" xMax="359" yMax="532">
      <contour>
        <pt x="233" y="327" on="1"/>
        <pt x="233" y="183" on="1"/>
        <pt x="167" y="183" on="1"/>
        <pt x="167" y="327" on="1"/>
        <pt x="41" y="327" on="1"/>
        <pt x="41" y="394" on="1"/>
        <pt x="167" y="394" on="1"/>
        <pt x="167" y="532" on="1"/>
        <pt x="233" y="532" on="1"/>
        <pt x="233" y="394" on="1"/>
        <pt x="359" y="394" on="1"/>
        <pt x="359" y="327" on="1"/>
      </contour>
      <contour>
        <pt x="41" y="42" on="1"/>
        <pt x="41" y="109" on="1"/>
        <pt x="359" y="109" on="1"/>
        <pt x="359" y="42" on="1"/>
      </contour>
    </TTGlyph>
    <TTGlyph name="q" xMin="56" yMin="-242" xMax="462" yMax="500">
      <contour>
        <pt x="254" y="-10" on="1"/>
        <pt x="205" y="-10" on="0"/>
        <pt x="131" y="29" on="0"/>
        <pt x="81" y="98" on="0"/>
        <pt x="56" y="191" on="0"/>
        <pt x="56" y="245" on="1"/>
        <pt x="56" y="295" on="0"/>
        <pt x="82" y="387" on="0"/>
        <pt x="132" y="458" on="0"/>
        <pt x="206" y="500" on="0"/>
        <pt x="253" y="500" on="1"/>
        <pt x="298" y="500" on="0"/>
        <pt x="355" y="458" on="0"/>
        <pt x="380" y="420" on="1"/>
        <pt x="389" y="490" on="1"/>
        <pt x="462" y="490" on="1"/>
        <pt x="462" y="-242" on="1"/>
        <pt x="373" y="-242" on="1"/>
        <pt x="373" y="62" on="1"/>
        <pt x="350" y="26" on="0"/>
        <pt x="284" y="-10" on="0"/>
      </contour>
      <contour>
        <pt x="262" y="420" on="1"/>
        <pt x="235" y="420" on="0"/>
        <pt x="193" y="393" on="0"/>
        <pt x="163" y="347" on="0"/>
        <pt x="148" y="282" on="0"/>
        <pt x="148" y="245" on="1"/>
        <pt x="148" y="209" on="0"/>
        <pt x="163" y="145" on="0"/>
        <pt x="193" y="98" on="0"/>
        <pt x="235" y="70" on="0"/>
        <pt x="262" y="70" on="1"/>
        <pt x="310" y="70" on="0"/>
        <pt x="377" y="153" on="0"/>
        <pt x="377" y="245" on="1"/>
        <pt x="377" y="334" on="0"/>
        <pt x="310" y="420" on="0"/>
      </contour>
    </TTGlyph>
    <TTGlyph name="question" xMin="26" yMin="0" xMax="343" yMax="750">
      <contour>
        <pt x="142" y="200" on="1"/>
        <pt x="139" y="240" on="0"/>
        <pt x="139" y="245" on="1"/>
        <pt x="139" y="291" on="0"/>
        <pt x="176" y="366" on="0"/>
        <pt x="221" y="437" on="0"/>
        <pt x="259" y="513" on="0"/>
        <pt x="259" y="561" on="1"/>
        <pt x="259" y="593" on="0"/>
        <pt x="242" y="639" on="0"/>
        <pt x="214" y="669" on="0"/>
        <pt x="178" y="684" on="0"/>
        <pt x="159" y="684" on="1"/>
        <pt x="139" y="684" on="0"/>
        <pt x="104" y="670" on="0"/>
        <pt x="75" y="649" on="0"/>
        <pt x="55" y="625" on="0"/>
        <pt x="49" y="616" on="1"/>
        <pt x="26" y="683" on="1"/>
        <pt x="44" y="711" on="0"/>
        <pt x="118" y="750" on="0"/>
        <pt x="163" y="750" on="1"/>
        <pt x="208" y="750" on="0"/>
        <pt x="275" y="715" on="0"/>
        <pt x="320" y="660" on="0"/>
        <pt x="343" y="594" on="0"/>
        <pt x="343" y="563" on="1"/>
        <pt x="343" y="515" on="0"/>
        <pt x="299" y="428" on="0"/>
        <pt x="245" y="345" on="0"/>
        <pt x="201" y="266" on="0"/>
        <pt x="201" y="227" on="1"/>
        <pt x="201" y="200" on="1"/>
      </contour>
      <contour>
        <pt x="127" y="0" on="1"/>
        <pt x="127" y="86" on="1"/>
        <pt x="218" y="86" on="1"/>
        <pt x="218" y="0" on="1"/>
      </contour>
    </TTGlyph>
    <TTGlyph name="questiondown" xMin="26" yMin="-250" xMax="343" yMax="500">
      <component glyphName="question" x="369" y="500" scale="-0.999938964844" flags="0x4"/>
    </TTGlyph>
    <TTGlyph name="quotedbl" xMin="31" yMin="450" xMax="309" yMax="750">
      <contour>
        <pt x="291" y="450" on="1"/>
        <pt x="235" y="450" on="1"/>
        <pt x="218" y="750" on="1"/>
        <pt x="309" y="750" on="1"/>
      </contour>
      <contour>
        <pt x="105" y="450" on="1"/>
        <pt x="48" y="450" on="1"/>
        <pt x="31" y="750" on="1"/>
        <pt x="123" y="750" on="1"/>
      </contour>
    </TTGlyph>
    <TTGlyph name="quotedblbase" xMin="54" yMin="-109" xMax="347" yMax="86">
      <contour>
        <pt x="273" y="-109" on="1"/>
        <pt x="252" y="-96" on="1"/>
        <pt x="281" y="-9" on="1"/>
        <pt x="253" y="0" on="1"/>
        <pt x="253" y="86" on="1"/>
        <pt x="347" y="86" on="1"/>
        <pt x="347" y="0" on="1"/>
      </contour>
      <contour>
        <pt x="75" y="-109" on="1"/>
        <pt x="54" y="-96" on="1"/>
        <pt x="83" y="-9" on="1"/>
        <pt x="55" y="0" on="1"/>
        <pt x="55" y="86" on="1"/>
        <pt x="149" y="86" on="1"/>
        <pt x="149" y="0" on="1"/>
      </contour>
    </TTGlyph>
    <TTGlyph name="quotedblleft" xMin="54" yMin="555" xMax="330" yMax="750">
      <contour>
        <pt x="128" y="750" on="1"/>
        <pt x="149" y="737" on="1"/>
        <pt x="120" y="650" on="1"/>
        <pt x="149" y="641" on="1"/>
        <pt x="149" y="555" on="1"/>
        <pt x="54" y="555" on="1"/>
        <pt x="54" y="641" on="1"/>
      </contour>
      <contour>
        <pt x="309" y="750" on="1"/>
        <pt x="330" y="737" on="1"/>
        <pt x="300" y="650" on="1"/>
        <pt x="329" y="641" on="1"/>
        <pt x="329" y="555" on="1"/>
        <pt x="235" y="555" on="1"/>
        <pt x="235" y="641" on="1"/>
      </contour>
    </TTGlyph>
    <TTGlyph name="quotedblright" xMin="54" yMin="555" xMax="330" yMax="750">
      <contour>
        <pt x="255" y="555" on="1"/>
        <pt x="235" y="568" on="1"/>
        <pt x="264" y="655" on="1"/>
        <pt x="235" y="664" on="1"/>
        <pt x="235" y="750" on="1"/>
        <pt x="330" y="750" on="1"/>
        <pt x="330" y="664" on="1"/>
      </contour>
      <contour>
        <pt x="75" y="555" on="1"/>
        <pt x="54" y="568" on="1"/>
        <pt x="83" y="655" on="1"/>
        <pt x="55" y="664" on="1"/>
        <pt x="55" y="750" on="1"/>
        <pt x="149" y="750" on="1"/>
        <pt x="149" y="664" on="1"/>
      </contour>
    </TTGlyph>
    <TTGlyph name="quoteleft" xMin="54" yMin="555" xMax="149" yMax="750">
      <contour>
        <pt x="128" y="750" on="1"/>
        <pt x="149" y="737" on="1"/>
        <pt x="120" y="650" on="1"/>
        <pt x="149" y="641" on="1"/>
        <pt x="149" y="555" on="1"/>
        <pt x="54" y="555" on="1"/>
        <pt x="54" y="641" on="1"/>
      </contour>
    </TTGlyph>
    <TTGlyph name="quoteright" xMin="54" yMin="555" xMax="149" yMax="750">
      <contour>
        <pt x="75" y="555" on="1"/>
        <pt x="54" y="568" on="1"/>
        <pt x="83" y="655" on="1"/>
        <pt x="55" y="664" on="1"/>
        <pt x="55" y="750" on="1"/>
        <pt x="149" y="750" on="1"/>
        <pt x="149" y="664" on="1"/>
      </contour>
    </TTGlyph>
    <TTGlyph name="quotesinglbase" xMin="54" yMin="-109" xMax="149" yMax="86">
      <contour>
        <pt x="75" y="-109" on="1"/>
        <pt x="54" y="-96" on="1"/>
        <pt x="83" y="-9" on="1"/>
        <pt x="55" y="0" on="1"/>
        <pt x="55" y="86" on="1"/>
        <pt x="149" y="86" on="1"/>
        <pt x="149" y="0" on="1"/>
      </contour>
    </TTGlyph>
    <TTGlyph name="quotesingle" xMin="37" yMin="450" xMax="132" yMax="750">
      <contour>
        <pt x="115" y="450" on="1"/>
        <pt x="53" y="450" on="1"/>
        <pt x="37" y="750" on="1"/>
        <pt x="132" y="750" on="1"/>
      </contour>
    </TTGlyph>
    <TTGlyph name="r" xMin="57" yMin="0" xMax="289" yMax="508">
      <contour>
        <pt x="270" y="409" on="1"/>
        <pt x="238" y="409" on="1"/>
        <pt x="225" y="409" on="0"/>
        <pt x="198" y="398" on="0"/>
        <pt x="174" y="380" on="0"/>
        <pt x="155" y="358" on="0"/>
        <pt x="150" y="346" on="1"/>
        <pt x="150" y="0" on="1"/>
        <pt x="57" y="0" on="1"/>
        <pt x="57" y="490" on="1"/>
        <pt x="136" y="490" on="1"/>
        <pt x="142" y="409" on="1"/>
        <pt x="200" y="508" on="0"/>
        <pt x="273" y="508" on="1"/>
        <pt x="289" y="508" on="1"/>
      </contour>
    </TTGlyph>
    <TTGlyph name="registered" xMin="34" yMin="37" xMax="568" yMax="693">
      <contour>
        <pt x="301" y="37" on="1"/>
        <pt x="243" y="37" on="0"/>
        <pt x="145" y="84" on="0"/>
        <pt x="74" y="170" on="0"/>
        <pt x="34" y="291" on="0"/>
        <pt x="34" y="365" on="1"/>
        <pt x="34" y="440" on="0"/>
        <pt x="74" y="561" on="0"/>
        <pt x="145" y="646" on="0"/>
        <pt x="243" y="693" on="0"/>
        <pt x="301" y="693" on="1"/>
        <pt x="359" y="693" on="0"/>
        <pt x="457" y="646" on="0"/>
        <pt x="528" y="561" on="0"/>
        <pt x="568" y="440" on="0"/>
        <pt x="568" y="365" on="1"/>
        <pt x="568" y="291" on="0"/>
        <pt x="528" y="170" on="0"/>
        <pt x="457" y="84" on="0"/>
        <pt x="359" y="37" on="0"/>
      </contour>
      <contour>
        <pt x="301" y="649" on="1"/>
        <pt x="247" y="649" on="0"/>
        <pt x="167" y="605" on="0"/>
        <pt x="114" y="529" on="0"/>
        <pt x="88" y="425" on="0"/>
        <pt x="88" y="365" on="1"/>
        <pt x="88" y="305" on="0"/>
        <pt x="114" y="201" on="0"/>
        <pt x="167" y="124" on="0"/>
        <pt x="247" y="80" on="0"/>
        <pt x="301" y="80" on="1"/>
        <pt x="355" y="80" on="0"/>
        <pt x="435" y="124" on="0"/>
        <pt x="488" y="201" on="0"/>
        <pt x="514" y="305" on="0"/>
        <pt x="514" y="365" on="1"/>
        <pt x="514" y="425" on="0"/>
        <pt x="488" y="529" on="0"/>
        <pt x="435" y="605" on="0"/>
        <pt x="355" y="649" on="0"/>
      </contour>
      <contour>
        <pt x="354" y="210" on="1"/>
        <pt x="299" y="327" on="1"/>
        <pt x="261" y="327" on="1"/>
        <pt x="261" y="210" on="1"/>
        <pt x="198" y="210" on="1"/>
        <pt x="198" y="531" on="1"/>
        <pt x="303" y="531" on="1"/>
        <pt x="325" y="531" on="0"/>
        <pt x="361" y="522" on="0"/>
        <pt x="387" y="499" on="0"/>
        <pt x="401" y="460" on="0"/>
        <pt x="401" y="431" on="1"/>
        <pt x="401" y="405" on="0"/>
        <pt x="376" y="361" on="0"/>
        <pt x="357" y="344" on="1"/>
        <pt x="419" y="210" on="1"/>
      </contour>
      <contour>
        <pt x="261" y="482" on="1"/>
        <pt x="261" y="383" on="1"/>
        <pt x="289" y="383" on="1"/>
        <pt x="318" y="383" on="0"/>
        <pt x="336" y="412" on="0"/>
        <pt x="336" y="433" on="1"/>
        <pt x="336" y="456" on="0"/>
        <pt x="318" y="482" on="0"/>
        <pt x="291" y="482" on="1"/>
      </contour>
    </TTGlyph>
    <TTGlyph name="ring" xMin="36" yMin="576" xMax="215" yMax="755">
      <contour>
        <pt x="125" y="576" on="1"/>
        <pt x="82" y="576" on="0"/>
        <pt x="36" y="630" on="0"/>
        <pt x="36" y="665" on="1"/>
        <pt x="36" y="682" on="0"/>
        <pt x="48" y="715" on="0"/>
        <pt x="70" y="740" on="0"/>
        <pt x="104" y="755" on="0"/>
        <pt x="125" y="755" on="1"/>
        <pt x="147" y="755" on="0"/>
        <pt x="180" y="740" on="0"/>
        <pt x="203" y="715" on="0"/>
        <pt x="215" y="682" on="0"/>
        <pt x="215" y="665" on="1"/>
        <pt x="215" y="630" on="0"/>
        <pt x="169" y="576" on="0"/>
      </contour>
      <contour>
        <pt x="125" y="724" on="1"/>
        <pt x="106" y="724" on="0"/>
        <pt x="80" y="691" on="0"/>
        <pt x="80" y="665" on="1"/>
        <pt x="80" y="637" on="0"/>
        <pt x="107" y="605" on="0"/>
        <pt x="125" y="605" on="1"/>
        <pt x="144" y="605" on="0"/>
        <pt x="171" y="637" on="0"/>
        <pt x="171" y="665" on="1"/>
        <pt x="171" y="691" on="0"/>
        <pt x="144" y="724" on="0"/>
      </contour>
    </TTGlyph>
    <TTGlyph name="s" xMin="33" yMin="-10" xMax="342" yMax="500">
      <contour>
        <pt x="178" y="-10" on="1"/>
        <pt x="124" y="-10" on="0"/>
        <pt x="50" y="21" on="0"/>
        <pt x="33" y="33" on="1"/>
        <pt x="42" y="120" on="1"/>
        <pt x="50" y="113" on="0"/>
        <pt x="78" y="95" on="0"/>
        <pt x="112" y="80" on="0"/>
        <pt x="153" y="70" on="0"/>
        <pt x="174" y="70" on="1"/>
        <pt x="215" y="70" on="0"/>
        <pt x="251" y="102" on="0"/>
        <pt x="251" y="131" on="1"/>
        <pt x="251" y="150" on="0"/>
        <pt x="236" y="177" on="0"/>
        <pt x="212" y="196" on="0"/>
        <pt x="183" y="208" on="0"/>
        <pt x="169" y="212" on="1"/>
        <pt x="147" y="219" on="0"/>
        <pt x="101" y="237" on="0"/>
        <pt x="64" y="268" on="0"/>
        <pt x="40" y="316" on="0"/>
        <pt x="40" y="353" on="1"/>
        <pt x="40" y="381" on="0"/>
        <pt x="56" y="434" on="0"/>
        <pt x="93" y="475" on="0"/>
        <pt x="154" y="500" on="0"/>
        <pt x="198" y="500" on="1"/>
        <pt x="240" y="500" on="0"/>
        <pt x="302" y="479" on="0"/>
        <pt x="321" y="468" on="1"/>
        <pt x="311" y="386" on="1"/>
        <pt x="294" y="404" on="0"/>
        <pt x="237" y="429" on="0"/>
        <pt x="202" y="429" on="1"/>
        <pt x="169" y="429" on="0"/>
        <pt x="125" y="398" on="0"/>
        <pt x="125" y="363" on="1"/>
        <pt x="125" y="346" on="0"/>
        <pt x="138" y="322" on="0"/>
        <pt x="163" y="305" on="0"/>
        <pt x="200" y="291" on="0"/>
        <pt x="223" y="283" on="1"/>
        <pt x="241" y="277" on="0"/>
        <pt x="282" y="258" on="0"/>
        <pt x="318" y="225" on="0"/>
        <pt x="342" y="174" on="0"/>
        <pt x="342" y="136" on="1"/>
        <pt x="342" y="112" on="0"/>
        <pt x="329" y="60" on="0"/>
        <pt x="293" y="17" on="0"/>
        <pt x="229" y="-10" on="0"/>
      </contour>
    </TTGlyph>
    <TTGlyph name="scaron" xMin="33" yMin="-10" xMax="342" yMax="740">
      <component glyphName="s" x="0" y="0" flags="0x204"/>
      <component glyphName="caron" x="-10" y="0" flags="0x4"/>
    </TTGlyph>
    <TTGlyph name="section" xMin="32" yMin="-84" xMax="361" yMax="750">
      <contour>
        <pt x="278" y="188" on="1"/>
        <pt x="293" y="171" on="0"/>
        <pt x="310" y="142" on="0"/>
        <pt x="320" y="115" on="0"/>
        <pt x="323" y="86" on="0"/>
        <pt x="323" y="69" on="1"/>
        <pt x="323" y="43" on="0"/>
        <pt x="309" y="-12" on="0"/>
        <pt x="275" y="-56" on="0"/>
        <pt x="219" y="-84" on="0"/>
        <pt x="177" y="-84" on="1"/>
        <pt x="140" y="-84" on="0"/>
        <pt x="70" y="-62" on="0"/>
        <pt x="54" y="-45" on="1"/>
        <pt x="64" y="18" on="1"/>
        <pt x="88" y="1" on="0"/>
        <pt x="147" y="-23" on="0"/>
        <pt x="176" y="-23" on="1"/>
        <pt x="211" y="-23" on="0"/>
        <pt x="260" y="17" on="0"/>
        <pt x="260" y="60" on="1"/>
        <pt x="260" y="96" on="0"/>
        <pt x="226" y="134" on="0"/>
        <pt x="176" y="159" on="0"/>
        <pt x="116" y="179" on="0"/>
        <pt x="66" y="216" on="0"/>
        <pt x="32" y="277" on="0"/>
        <pt x="32" y="330" on="1"/>
        <pt x="32" y="349" on="0"/>
        <pt x="38" y="393" on="0"/>
        <pt x="56" y="434" on="0"/>
        <pt x="90" y="468" on="0"/>
        <pt x="117" y="479" on="1"/>
        <pt x="88" y="511" on="0"/>
        <pt x="70" y="563" on="0"/>
        <pt x="70" y="587" on="1"/>
        <pt x="70" y="618" on="0"/>
        <pt x="84" y="677" on="0"/>
        <pt x="117" y="722" on="0"/>
        <pt x="173" y="750" on="0"/>
        <pt x="214" y="750" on="1"/>
        <pt x="233" y="750" on="0"/>
        <pt x="271" y="743" on="0"/>
        <pt x="304" y="731" on="0"/>
        <pt x="331" y="717" on="0"/>
        <pt x="339" y="710" on="1"/>
        <pt x="329" y="647" on="1"/>
        <pt x="305" y="664" on="0"/>
        <pt x="245" y="690" on="0"/>
        <pt x="218" y="690" on="1"/>
        <pt x="201" y="690" on="0"/>
        <pt x="171" y="676" on="0"/>
        <pt x="149" y="653" on="0"/>
        <pt x="137" y="622" on="0"/>
        <pt x="137" y="604" on="1"/>
        <pt x="137" y="573" on="0"/>
        <pt x="170" y="536" on="0"/>
        <pt x="220" y="510" on="0"/>
        <pt x="278" y="485" on="0"/>
        <pt x="328" y="445" on="0"/>
        <pt x="361" y="382" on="0"/>
        <pt x="361" y="331" on="1"/>
        <pt x="361" y="314" on="0"/>
        <pt x="354" y="275" on="0"/>
        <pt x="336" y="236" on="0"/>
        <pt x="303" y="201" on="0"/>
      </contour>
      <contour>
        <pt x="172" y="438" on="1"/>
        <pt x="164" y="438" on="0"/>
        <pt x="140" y="429" on="0"/>
        <pt x="117" y="407" on="0"/>
        <pt x="100" y="370" on="0"/>
        <pt x="100" y="342" on="1"/>
        <pt x="100" y="318" on="0"/>
        <pt x="122" y="280" on="0"/>
        <pt x="158" y="250" on="0"/>
        <pt x="204" y="228" on="0"/>
        <pt x="228" y="219" on="1"/>
        <pt x="253" y="229" on="0"/>
        <pt x="290" y="287" on="0"/>
        <pt x="290" y="324" on="1"/>
        <pt x="290" y="353" on="0"/>
        <pt x="265" y="393" on="0"/>
        <pt x="228" y="420" on="0"/>
        <pt x="187" y="434" on="0"/>
      </contour>
    </TTGlyph>
    <TTGlyph name="semicolon" xMin="54" yMin="-109" xMax="154" yMax="440">
      <contour>
        <pt x="55" y="354" on="1"/>
        <pt x="55" y="440" on="1"/>
        <pt x="154" y="440" on="1"/>
        <pt x="154" y="354" on="1"/>
      </contour>
      <contour>
        <pt x="75" y="-109" on="1"/>
        <pt x="54" y="-96" on="1"/>
        <pt x="83" y="-9" on="1"/>
        <pt x="55" y="0" on="1"/>
        <pt x="55" y="86" on="1"/>
        <pt x="149" y="86" on="1"/>
        <pt x="149" y="-1" on="1"/>
      </contour>
    </TTGlyph>
    <TTGlyph name="seven" xMin="37" yMin="0" xMax="429" yMax="700">
      <contour>
        <pt x="172" y="0" on="1"/>
        <pt x="74" y="0" on="1"/>
        <pt x="293" y="614" on="1"/>
        <pt x="37" y="614" on="1"/>
        <pt x="37" y="700" on="1"/>
        <pt x="429" y="700" on="1"/>
      </contour>
    </TTGlyph>
    <TTGlyph name="six" xMin="50" yMin="-14" xMax="447" yMax="700">
      <contour>
        <pt x="237" y="-14" on="1"/>
        <pt x="152" y="-14" on="0"/>
        <pt x="50" y="117" on="0"/>
        <pt x="50" y="235" on="1"/>
        <pt x="50" y="291" on="0"/>
        <pt x="73" y="402" on="0"/>
        <pt x="113" y="505" on="0"/>
        <pt x="165" y="594" on="0"/>
        <pt x="223" y="660" on="0"/>
        <pt x="281" y="699" on="0"/>
        <pt x="308" y="700" on="1"/>
        <pt x="371" y="662" on="1"/>
        <pt x="335" y="636" on="0"/>
        <pt x="264" y="576" on="0"/>
        <pt x="204" y="502" on="0"/>
        <pt x="161" y="412" on="0"/>
        <pt x="153" y="357" on="1"/>
        <pt x="172" y="389" on="0"/>
        <pt x="232" y="420" on="0"/>
        <pt x="265" y="420" on="1"/>
        <pt x="305" y="420" on="0"/>
        <pt x="372" y="391" on="0"/>
        <pt x="420" y="339" on="0"/>
        <pt x="447" y="264" on="0"/>
        <pt x="447" y="218" on="1"/>
        <pt x="447" y="167" on="0"/>
        <pt x="417" y="82" on="0"/>
        <pt x="362" y="20" on="0"/>
        <pt x="284" y="-14" on="0"/>
      </contour>
      <contour>
        <pt x="258" y="339" on="1"/>
        <pt x="234" y="339" on="0"/>
        <pt x="193" y="319" on="0"/>
        <pt x="162" y="282" on="0"/>
        <pt x="145" y="230" on="0"/>
        <pt x="145" y="199" on="1"/>
        <pt x="145" y="170" on="0"/>
        <pt x="162" y="122" on="0"/>
        <pt x="190" y="88" on="0"/>
        <pt x="227" y="69" on="0"/>
        <pt x="248" y="69" on="1"/>
        <pt x="297" y="69" on="0"/>
        <pt x="356" y="150" on="0"/>
        <pt x="356" y="213" on="1"/>
        <pt x="356" y="272" on="0"/>
        <pt x="306" y="339" on="0"/>
      </contour>
    </TTGlyph>
    <TTGlyph name="slash" xMin="20" yMin="-85" xMax="439" yMax="700">
      <contour>
        <pt x="118" y="-85" on="1"/>
        <pt x="20" y="-85" on="1"/>
        <pt x="340" y="700" on="1"/>
        <pt x="439" y="700" on="1"/>
      </contour>
    </TTGlyph>
    <TTGlyph name="sterling" xMin="34" yMin="0" xMax="426" yMax="714">
      <contour>
        <pt x="366" y="569" on="1"/>
        <pt x="344" y="625" on="0"/>
        <pt x="296" y="625" on="1"/>
        <pt x="271" y="625" on="0"/>
        <pt x="243" y="609" on="0"/>
        <pt x="229" y="575" on="0"/>
        <pt x="226" y="524" on="0"/>
        <pt x="226" y="488" on="1"/>
        <pt x="226" y="395" on="1"/>
        <pt x="388" y="395" on="1"/>
        <pt x="372" y="309" on="1"/>
        <pt x="221" y="309" on="1"/>
        <pt x="219" y="271" on="0"/>
        <pt x="215" y="217" on="0"/>
        <pt x="207" y="168" on="0"/>
        <pt x="193" y="119" on="0"/>
        <pt x="183" y="86" on="1"/>
        <pt x="398" y="86" on="1"/>
        <pt x="398" y="0" on="1"/>
        <pt x="34" y="0" on="1"/>
        <pt x="57" y="35" on="0"/>
        <pt x="90" y="103" on="0"/>
        <pt x="112" y="176" on="0"/>
        <pt x="125" y="259" on="0"/>
        <pt x="129" y="309" on="1"/>
        <pt x="50" y="309" on="1"/>
        <pt x="65" y="395" on="1"/>
        <pt x="134" y="395" on="1"/>
        <pt x="134" y="510" on="1"/>
        <pt x="134" y="550" on="0"/>
        <pt x="146" y="623" on="0"/>
        <pt x="179" y="680" on="0"/>
        <pt x="239" y="714" on="0"/>
        <pt x="287" y="714" on="1"/>
        <pt x="343" y="714" on="0"/>
        <pt x="415" y="665" on="0"/>
        <pt x="426" y="628" on="1"/>
      </contour>
    </TTGlyph>
    <TTGlyph name="t" xMin="17" yMin="-10" xMax="278" yMax="620">
      <contour>
        <pt x="269" y="-10" on="1"/>
        <pt x="197" y="-10" on="1"/>
        <pt x="167" y="-10" on="0"/>
        <pt x="124" y="10" on="0"/>
        <pt x="97" y="43" on="0"/>
        <pt x="85" y="85" on="0"/>
        <pt x="85" y="107" on="1"/>
        <pt x="85" y="420" on="1"/>
        <pt x="17" y="420" on="1"/>
        <pt x="25" y="490" on="1"/>
        <pt x="85" y="490" on="1"/>
        <pt x="85" y="611" on="1"/>
        <pt x="174" y="620" on="1"/>
        <pt x="174" y="490" on="1"/>
        <pt x="278" y="490" on="1"/>
        <pt x="278" y="420" on="1"/>
        <pt x="174" y="420" on="1"/>
        <pt x="174" y="162" on="1"/>
        <pt x="174" y="127" on="0"/>
        <pt x="178" y="87" on="0"/>
        <pt x="194" y="67" on="0"/>
        <pt x="225" y="62" on="0"/>
        <pt x="253" y="62" on="1"/>
        <pt x="277" y="62" on="1"/>
      </contour>
    </TTGlyph>
    <TTGlyph name="thorn" xMin="50" yMin="-241" xMax="469" yMax="750">
      <contour>
        <pt x="258" y="-10" on="1"/>
        <pt x="182" y="-10" on="0"/>
        <pt x="140" y="56" on="1"/>
        <pt x="140" y="-241" on="1"/>
        <pt x="50" y="-241" on="1"/>
        <pt x="50" y="750" on="1"/>
        <pt x="140" y="750" on="1"/>
        <pt x="140" y="438" on="1"/>
        <pt x="165" y="470" on="0"/>
        <pt x="223" y="500" on="0"/>
        <pt x="261" y="500" on="1"/>
        <pt x="311" y="500" on="0"/>
        <pt x="388" y="459" on="0"/>
        <pt x="441" y="389" on="0"/>
        <pt x="469" y="297" on="0"/>
        <pt x="469" y="245" on="1"/>
        <pt x="469" y="194" on="0"/>
        <pt x="442" y="101" on="0"/>
        <pt x="388" y="31" on="0"/>
        <pt x="309" y="-10" on="0"/>
      </contour>
      <contour>
        <pt x="251" y="420" on="1"/>
        <pt x="220" y="420" on="0"/>
        <pt x="176" y="394" on="0"/>
        <pt x="147" y="347" on="0"/>
        <pt x="134" y="283" on="0"/>
        <pt x="134" y="245" on="1"/>
        <pt x="134" y="207" on="0"/>
        <pt x="147" y="140" on="0"/>
        <pt x="176" y="91" on="0"/>
        <pt x="220" y="62" on="0"/>
        <pt x="251" y="62" on="1"/>
        <pt x="282" y="62" on="0"/>
        <pt x="329" y="90" on="0"/>
        <pt x="361" y="139" on="0"/>
        <pt x="378" y="206" on="0"/>
        <pt x="378" y="245" on="1"/>
        <pt x="378" y="323" on="0"/>
        <pt x="313" y="420" on="0"/>
      </contour>
    </TTGlyph>
    <TTGlyph name="three" xMin="32" yMin="-14" xMax="414" yMax="714">
      <contour>
        <pt x="195" y="-14" on="1"/>
        <pt x="166" y="-14" on="0"/>
        <pt x="111" y="-2" on="0"/>
        <pt x="67" y="15" on="0"/>
        <pt x="37" y="33" on="0"/>
        <pt x="32" y="39" on="1"/>
        <pt x="55" y="127" on="1"/>
        <pt x="85" y="102" on="0"/>
        <pt x="153" y="72" on="0"/>
        <pt x="193" y="72" on="1"/>
        <pt x="215" y="72" on="0"/>
        <pt x="259" y="85" on="0"/>
        <pt x="294" y="116" on="0"/>
        <pt x="316" y="171" on="0"/>
        <pt x="316" y="213" on="1"/>
        <pt x="316" y="238" on="0"/>
        <pt x="306" y="285" on="0"/>
        <pt x="278" y="321" on="0"/>
        <pt x="227" y="343" on="0"/>
        <pt x="187" y="343" on="1"/>
        <pt x="119" y="343" on="1"/>
        <pt x="127" y="419" on="1"/>
        <pt x="163" y="419" on="1"/>
        <pt x="238" y="419" on="0"/>
        <pt x="294" y="480" on="0"/>
        <pt x="294" y="534" on="1"/>
        <pt x="294" y="584" on="0"/>
        <pt x="246" y="628" on="0"/>
        <pt x="197" y="628" on="1"/>
        <pt x="159" y="628" on="0"/>
        <pt x="102" y="602" on="0"/>
        <pt x="86" y="587" on="1"/>
        <pt x="70" y="668" on="1"/>
        <pt x="81" y="680" on="0"/>
        <pt x="152" y="714" on="0"/>
        <pt x="208" y="714" on="1"/>
        <pt x="265" y="714" on="0"/>
        <pt x="337" y="679" on="0"/>
        <pt x="377" y="626" on="0"/>
        <pt x="392" y="563" on="0"/>
        <pt x="392" y="534" on="1"/>
        <pt x="392" y="494" on="0"/>
        <pt x="361" y="425" on="0"/>
        <pt x="323" y="388" on="1"/>
        <pt x="348" y="376" on="0"/>
        <pt x="383" y="338" on="0"/>
        <pt x="404" y="291" on="0"/>
        <pt x="414" y="239" on="0"/>
        <pt x="414" y="214" on="1"/>
        <pt x="414" y="156" on="0"/>
        <pt x="377" y="71" on="0"/>
        <pt x="315" y="14" on="0"/>
        <pt x="237" y="-14" on="0"/>
      </contour>
    </TTGlyph>
    <TTGlyph name="threequarters" xMin="86" yMin="-85" xMax="797" yMax="706">
      <component glyphName="threesuperior" x="42" y="0" flags="0x4"/>
      <component glyphName="slash" x="234" y="0" flags="0x4"/>
      <component glyphName="uni2074" x="506" y="-319" flags="0x4"/>
    </TTGlyph>
    <TTGlyph name="threesuperior" xMin="44" yMin="312" xMax="266" yMax="706">
      <contour>
        <pt x="137" y="312" on="1"/>
        <pt x="121" y="312" on="0"/>
        <pt x="90" y="319" on="0"/>
        <pt x="65" y="328" on="0"/>
        <pt x="47" y="338" on="0"/>
        <pt x="44" y="342" on="1"/>
        <pt x="62" y="408" on="1"/>
        <pt x="64" y="403" on="0"/>
        <pt x="79" y="393" on="0"/>
        <pt x="100" y="386" on="0"/>
        <pt x="123" y="382" on="0"/>
        <pt x="133" y="382" on="1"/>
        <pt x="160" y="382" on="0"/>
        <pt x="196" y="405" on="0"/>
        <pt x="196" y="434" on="1"/>
        <pt x="196" y="460" on="0"/>
        <pt x="176" y="498" on="0"/>
        <pt x="143" y="498" on="1"/>
        <pt x="94" y="498" on="1"/>
        <pt x="99" y="553" on="1"/>
        <pt x="125" y="553" on="1"/>
        <pt x="159" y="553" on="0"/>
        <pt x="182" y="582" on="0"/>
        <pt x="182" y="601" on="1"/>
        <pt x="182" y="620" on="0"/>
        <pt x="161" y="645" on="0"/>
        <pt x="134" y="645" on="1"/>
        <pt x="122" y="645" on="0"/>
        <pt x="88" y="638" on="0"/>
        <pt x="77" y="628" on="1"/>
        <pt x="66" y="681" on="1"/>
        <pt x="75" y="689" on="0"/>
        <pt x="119" y="706" on="0"/>
        <pt x="144" y="706" on="1"/>
        <pt x="178" y="706" on="0"/>
        <pt x="221" y="686" on="0"/>
        <pt x="245" y="655" on="0"/>
        <pt x="253" y="620" on="0"/>
        <pt x="253" y="605" on="1"/>
        <pt x="253" y="579" on="0"/>
        <pt x="237" y="541" on="0"/>
        <pt x="226" y="530" on="1"/>
        <pt x="242" y="515" on="0"/>
        <pt x="266" y="470" on="0"/>
        <pt x="266" y="437" on="1"/>
        <pt x="266" y="406" on="0"/>
        <pt x="244" y="359" on="0"/>
        <pt x="208" y="328" on="0"/>
        <pt x="161" y="312" on="0"/>
      </contour>
    </TTGlyph>
    <TTGlyph name="tilde" xMin="73" yMin="599" xMax="381" yMax="702">
      <contour>
        <pt x="285" y="599" on="1"/>
        <pt x="271" y="599" on="0"/>
        <pt x="241" y="615" on="0"/>
        <pt x="212" y="634" on="0"/>
        <pt x="185" y="650" on="0"/>
        <pt x="174" y="650" on="1"/>
        <pt x="151" y="650" on="0"/>
        <pt x="126" y="624" on="0"/>
        <pt x="121" y="601" on="1"/>
        <pt x="73" y="610" on="1"/>
        <pt x="77" y="635" on="0"/>
        <pt x="98" y="669" on="0"/>
        <pt x="125" y="690" on="0"/>
        <pt x="155" y="700" on="0"/>
        <pt x="169" y="700" on="1"/>
        <pt x="185" y="700" on="0"/>
        <pt x="216" y="685" on="0"/>
        <pt x="244" y="666" on="0"/>
        <pt x="270" y="651" on="0"/>
        <pt x="282" y="651" on="1"/>
        <pt x="302" y="651" on="0"/>
        <pt x="329" y="678" on="0"/>
        <pt x="337" y="702" on="1"/>
        <pt x="381" y="693" on="1"/>
        <pt x="373" y="649" on="0"/>
        <pt x="323" y="599" on="0"/>
      </contour>
    </TTGlyph>
    <TTGlyph name="trademark" xMin="33" yMin="337" xMax="587" yMax="700">
      <contour>
        <pt x="424" y="443" on="1"/>
        <pt x="351" y="606" on="1"/>
        <pt x="325" y="337" on="1"/>
        <pt x="269" y="337" on="1"/>
        <pt x="310" y="700" on="1"/>
        <pt x="343" y="700" on="1"/>
        <pt x="428" y="521" on="1"/>
        <pt x="512" y="700" on="1"/>
        <pt x="545" y="700" on="1"/>
        <pt x="587" y="337" on="1"/>
        <pt x="530" y="337" on="1"/>
        <pt x="505" y="605" on="1"/>
        <pt x="431" y="443" on="1"/>
      </contour>
      <contour>
        <pt x="257" y="650" on="1"/>
        <pt x="173" y="650" on="1"/>
        <pt x="173" y="337" on="1"/>
        <pt x="119" y="337" on="1"/>
        <pt x="119" y="650" on="1"/>
        <pt x="33" y="650" on="1"/>
        <pt x="33" y="700" on="1"/>
        <pt x="264" y="700" on="1"/>
      </contour>
    </TTGlyph>
    <TTGlyph name="two" xMin="45" yMin="0" xMax="406" yMax="714">
      <contour>
        <pt x="45" y="0" on="1"/>
        <pt x="129" y="141" on="0"/>
        <pt x="228" y="321" on="0"/>
        <pt x="278" y="432" on="0"/>
        <pt x="292" y="492" on="0"/>
        <pt x="292" y="512" on="1"/>
        <pt x="292" y="567" on="0"/>
        <pt x="241" y="625" on="0"/>
        <pt x="196" y="625" on="1"/>
        <pt x="168" y="625" on="0"/>
        <pt x="124" y="607" on="0"/>
        <pt x="90" y="579" on="0"/>
        <pt x="65" y="546" on="0"/>
        <pt x="57" y="532" on="1"/>
        <pt x="45" y="617" on="1"/>
        <pt x="49" y="625" on="0"/>
        <pt x="76" y="657" on="0"/>
        <pt x="119" y="690" on="0"/>
        <pt x="179" y="714" on="0"/>
        <pt x="218" y="714" on="1"/>
        <pt x="265" y="714" on="0"/>
        <pt x="329" y="679" on="0"/>
        <pt x="368" y="623" on="0"/>
        <pt x="384" y="555" on="0"/>
        <pt x="384" y="522" on="1"/>
        <pt x="384" y="487" on="0"/>
        <pt x="365" y="405" on="0"/>
        <pt x="323" y="301" on="0"/>
        <pt x="257" y="170" on="0"/>
        <pt x="210" y="86" on="1"/>
        <pt x="406" y="86" on="1"/>
        <pt x="406" y="0" on="1"/>
      </contour>
    </TTGlyph>
    <TTGlyph name="twosuperior" xMin="44" yMin="320" xMax="261" yMax="706">
      <contour>
        <pt x="44" y="320" on="1"/>
        <pt x="92" y="396" on="0"/>
        <pt x="147" y="492" on="0"/>
        <pt x="175" y="552" on="0"/>
        <pt x="182" y="583" on="0"/>
        <pt x="182" y="593" on="1"/>
        <pt x="182" y="618" on="0"/>
        <pt x="161" y="646" on="0"/>
        <pt x="141" y="646" on="1"/>
        <pt x="124" y="646" on="0"/>
        <pt x="98" y="632" on="0"/>
        <pt x="77" y="613" on="0"/>
        <pt x="64" y="593" on="0"/>
        <pt x="61" y="587" on="1"/>
        <pt x="52" y="652" on="1"/>
        <pt x="56" y="659" on="0"/>
        <pt x="74" y="678" on="0"/>
        <pt x="100" y="695" on="0"/>
        <pt x="133" y="706" on="0"/>
        <pt x="154" y="706" on="1"/>
        <pt x="182" y="706" on="0"/>
        <pt x="219" y="687" on="0"/>
        <pt x="241" y="657" on="0"/>
        <pt x="250" y="621" on="0"/>
        <pt x="250" y="604" on="1"/>
        <pt x="250" y="567" on="0"/>
        <pt x="211" y="468" on="0"/>
        <pt x="167" y="390" on="1"/>
        <pt x="261" y="390" on="1"/>
        <pt x="261" y="320" on="1"/>
      </contour>
    </TTGlyph>
    <TTGlyph name="u" xMin="46" yMin="-10" xMax="408" yMax="490">
      <contour>
        <pt x="327" y="0" on="1"/>
        <pt x="321" y="54" on="1"/>
        <pt x="282" y="-10" on="0"/>
        <pt x="213" y="-10" on="1"/>
        <pt x="127" y="-10" on="0"/>
        <pt x="46" y="94" on="0"/>
        <pt x="46" y="205" on="1"/>
        <pt x="46" y="490" on="1"/>
        <pt x="136" y="490" on="1"/>
        <pt x="136" y="230" on="1"/>
        <pt x="136" y="152" on="0"/>
        <pt x="179" y="70" on="0"/>
        <pt x="228" y="70" on="1"/>
        <pt x="257" y="70" on="0"/>
        <pt x="303" y="97" on="0"/>
        <pt x="319" y="126" on="1"/>
        <pt x="319" y="490" on="1"/>
        <pt x="408" y="490" on="1"/>
        <pt x="408" y="0" on="1"/>
      </contour>
    </TTGlyph>
    <TTGlyph name="uacute" xMin="46" yMin="-10" xMax="408" yMax="732">
      <component glyphName="u" x="0" y="0" flags="0x204"/>
      <component glyphName="acute" x="107" y="0" flags="0x4"/>
    </TTGlyph>
    <TTGlyph name="ucircumflex" xMin="46" yMin="-10" xMax="408" yMax="745">
      <component glyphName="u" x="0" y="0" flags="0x204"/>
      <component glyphName="circumflex" x="46" y="0" flags="0x4"/>
    </TTGlyph>
    <TTGlyph name="udieresis" xMin="46" yMin="-10" xMax="408" yMax="700">
      <component glyphName="u" x="0" y="0" flags="0x204"/>
      <component glyphName="dieresis" x="56" y="0" flags="0x4"/>
    </TTGlyph>
    <TTGlyph name="ugrave" xMin="46" yMin="-10" xMax="408" yMax="732">
      <component glyphName="u" x="0" y="0" flags="0x204"/>
      <component glyphName="grave" x="107" y="0" flags="0x4"/>
    </TTGlyph>
    <TTGlyph name="underscore" xMin="-1" yMin="-122" xMax="481" yMax="-36">
      <contour>
        <pt x="-1" y="-122" on="1"/>
        <pt x="-1" y="-36" on="1"/>
        <pt x="481" y="-36" on="1"/>
        <pt x="481" y="-122" on="1"/>
      </contour>
    </TTGlyph>
    <TTGlyph name="uni00AD" xMin="58" yMin="230" xMax="325" yMax="324">
      <contour>
        <pt x="58" y="230" on="1"/>
        <pt x="58" y="324" on="1"/>
        <pt x="325" y="324" on="1"/>
        <pt x="325" y="230" on="1"/>
      </contour>
    </TTGlyph>
    <TTGlyph name="uni0237" xMin="0" yMin="-242" xMax="148" yMax="490">
      <contour>
        <pt x="9" y="-242" on="1"/>
        <pt x="0" y="-173" on="1"/>
        <pt x="18" y="-171" on="0"/>
        <pt x="41" y="-161" on="0"/>
        <pt x="54" y="-140" on="0"/>
        <pt x="58" y="-103" on="0"/>
        <pt x="58" y="-73" on="1"/>
        <pt x="58" y="490" on="1"/>
        <pt x="148" y="490" on="1"/>
        <pt x="148" y="-107" on="1"/>
        <pt x="148" y="-142" on="0"/>
        <pt x="130" y="-189" on="0"/>
        <pt x="100" y="-219" on="0"/>
        <pt x="61" y="-234" on="0"/>
        <pt x="40" y="-237" on="1"/>
      </contour>
    </TTGlyph>
    <TTGlyph name="uni2070" xMin="55" yMin="312" xMax="348" yMax="706">
      <contour>
        <pt x="199" y="312" on="1"/>
        <pt x="133" y="312" on="0"/>
        <pt x="55" y="417" on="0"/>
        <pt x="55" y="503" on="1"/>
        <pt x="55" y="548" on="0"/>
        <pt x="78" y="623" on="0"/>
        <pt x="118" y="676" on="0"/>
        <pt x="173" y="706" on="0"/>
        <pt x="205" y="706" on="1"/>
        <pt x="236" y="706" on="0"/>
        <pt x="289" y="677" on="0"/>
        <pt x="327" y="626" on="0"/>
        <pt x="348" y="555" on="0"/>
        <pt x="348" y="512" on="1"/>
        <pt x="348" y="467" on="0"/>
        <pt x="327" y="394" on="0"/>
        <pt x="288" y="341" on="0"/>
        <pt x="233" y="312" on="0"/>
      </contour>
      <contour>
        <pt x="204" y="642" on="1"/>
        <pt x="190" y="642" on="0"/>
        <pt x="162" y="626" on="0"/>
        <pt x="140" y="591" on="0"/>
        <pt x="126" y="539" on="0"/>
        <pt x="126" y="503" on="1"/>
        <pt x="126" y="436" on="0"/>
        <pt x="169" y="377" on="0"/>
        <pt x="199" y="377" on="1"/>
        <pt x="232" y="377" on="0"/>
        <pt x="278" y="440" on="0"/>
        <pt x="278" y="512" on="1"/>
        <pt x="278" y="579" on="0"/>
        <pt x="232" y="642" on="0"/>
      </contour>
    </TTGlyph>
    <TTGlyph name="uni2074" xMin="27" yMin="320" xMax="291" yMax="698">
      <contour>
        <pt x="249" y="423" on="1"/>
        <pt x="249" y="320" on="1"/>
        <pt x="177" y="320" on="1"/>
        <pt x="177" y="423" on="1"/>
        <pt x="27" y="423" on="1"/>
        <pt x="188" y="698" on="1"/>
        <pt x="249" y="698" on="1"/>
        <pt x="249" y="480" on="1"/>
        <pt x="291" y="480" on="1"/>
        <pt x="291" y="423" on="1"/>
      </contour>
      <contour>
        <pt x="177" y="590" on="1"/>
        <pt x="121" y="480" on="1"/>
        <pt x="177" y="480" on="1"/>
      </contour>
    </TTGlyph>
</ttFont>
